<?xml version="1.0" encoding="iso-8859-1"?>
<!-- Generator: Adobe Illustrator 19.0.0, SVG Export Plug-In . SVG Version: 6.00 Build 0)  -->
<svg version="1.1" id="Capa_1" xmlns="http://www.w3.org/2000/svg" xmlns:xlink="http://www.w3.org/1999/xlink" x="0px" y="0px"
	 viewBox="0 0 511.999 511.999" style="enable-background:new 0 0 511.999 511.999;" xml:space="preserve">
<g>
	<g>
		<path d="M311.058,312.881c4.172,0,7.554-3.382,7.554-7.554v-17.123c0-13.052-10.618-23.67-23.67-23.67h-80.578
			c-13.052,0-23.67,10.618-23.67,23.67v75.542c0,4.172,3.382,7.554,7.554,7.554h112.81c4.172,0,7.554-3.382,7.554-7.554v-23.166
			c0-4.172-3.382-7.554-7.554-7.554s-7.554,3.382-7.554,7.554v15.612h-41.296v-49.354l20.396-27.195h12.339
			c4.721,0,8.561,3.841,8.561,8.561v17.123C303.504,309.498,306.886,312.881,311.058,312.881z M247.099,356.191h-41.296v-67.988
			c0-4.721,3.841-8.561,8.561-8.561h12.339l20.396,27.195V356.191z M254.653,291.729l-9.065-12.087h18.13L254.653,291.729z"/>
	</g>
</g>
<g>
	<g>
		<path d="M254.653,159.782c-27.975,0-43.845,12.497-52.231,22.98c-9.101,11.377-11.484,22.897-11.581,23.382
			c-0.922,4.605,2.716,9.036,7.407,9.036h9.164c3.633,22.804,23.431,40.289,47.241,40.289c26.38,0,47.843-21.463,47.843-47.843
			C302.496,181.245,281.033,159.782,254.653,159.782z M254.653,240.36c-15.45,0-28.425-10.762-31.846-25.181h63.691
			C283.078,229.598,270.103,240.36,254.653,240.36z M209.086,200.071c5.217-10.162,17.651-25.181,45.567-25.181
			c15.451,0,28.436,10.76,31.855,25.181H209.086z"/>
	</g>
</g>
<g>
	<g>
		<path d="M446.48,315.826c20.379-25.602,36.77-52.194,48.754-79.158c38.289-86.15-6.954-172.011-70.829-202.156
			c-30.067-14.189-62.904-15.469-92.465-3.606c-30.018,12.047-56.542,37.447-77.286,73.849
			c-20.745-36.402-47.268-61.803-77.286-73.849c-29.56-11.863-62.398-10.583-92.465,3.606
			C21.027,64.657-24.217,150.517,14.072,236.668c33.951,76.388,96.69,134.69,143.344,170.146
			c50.402,38.306,92.232,58.389,93.988,59.225c2.037,0.97,4.459,0.97,6.496,0c1.542-0.734,35.711-17.144,79.402-48.465
			c7.772,40.706,43.629,71.572,86.565,71.572c48.597,0,88.133-39.536,88.133-88.133C512,360.231,484.154,325.836,446.48,315.826z
			 M335.745,400.025c-38.241,28.226-70.946,45.602-81.094,50.757c-10.747-5.456-46.804-24.618-88.092-55.997
			C121.314,360.4,60.526,303.99,27.878,230.532C-6.705,152.718,33.897,75.288,91.35,48.176
			c46.37-21.883,111.844-13.41,156.546,75.992c2.73,5.459,10.783,5.459,13.513,0c44.702-89.404,110.177-97.875,156.546-75.992
			c57.452,27.113,98.056,104.542,63.472,182.356c-12.498,28.12-30.043,55.883-52.147,82.52c-1.791-0.109-3.595-0.171-5.413-0.171
			C375.6,312.881,336.278,351.883,335.745,400.025z M423.867,474.037c-40.266,0-73.024-32.758-73.024-73.024
			s32.758-73.024,73.024-73.024c40.266,0,73.024,32.758,73.024,73.024S464.132,474.037,423.867,474.037z"/>
	</g>
</g>
<g>
	<g>
		<path d="M464.157,393.459h-32.735v-32.735c0-4.172-3.382-7.554-7.554-7.554s-7.554,3.382-7.554,7.554v32.735h-32.735
			c-4.172,0-7.554,3.382-7.554,7.554s3.382,7.554,7.554,7.554h32.735v32.735c0,4.172,3.382,7.554,7.554,7.554
			s7.554-3.382,7.554-7.554v-32.735h32.735c4.172,0,7.554-3.382,7.554-7.554S468.329,393.459,464.157,393.459z"/>
	</g>
</g>
<g>
</g>
<g>
</g>
<g>
</g>
<g>
</g>
<g>
</g>
<g>
</g>
<g>
</g>
<g>
</g>
<g>
</g>
<g>
</g>
<g>
</g>
<g>
</g>
<g>
</g>
<g>
</g>
<g>
</g>
</svg>
