<svg id="Layer_1" enable-background="new 0 0 512 512" height="512" viewBox="0 0 512 512" width="512" xmlns="http://www.w3.org/2000/svg"><g><path d="m11.504 125.565c4.145 0 7.504-3.358 7.504-7.5v-86.965c0-4.577 3.732-8.301 8.32-8.301h86.898c4.145 0 7.504-3.358 7.504-7.5s-3.359-7.5-7.504-7.5h-86.898c-12.863-.001-23.328 10.453-23.328 23.301v86.965c0 4.143 3.359 7.5 7.504 7.5z"/><path d="m80.693 154.495c4.145 0 7.504-3.358 7.504-7.5 0-4.143-3.359-7.5-7.504-7.5h-22.56c-4.145 0-7.504 3.358-7.504 7.5 0 4.143 3.359 7.5 7.504 7.5z"/><path d="m50.629 65.84c0 4.143 3.359 7.5 7.504 7.5h74.53c4.145 0 7.504-3.358 7.504-7.5s-3.359-7.5-7.504-7.5h-74.53c-4.145 0-7.504 3.357-7.504 7.5z"/><path d="m484.701 7.798h-86.928c-4.145 0-7.504 3.358-7.504 7.5s3.359 7.5 7.504 7.5h86.928c4.572 0 8.291 3.724 8.291 8.301v86.965c0 4.143 3.359 7.5 7.504 7.5s7.504-3.358 7.504-7.5v-86.964c0-12.848-10.452-23.302-23.299-23.302z"/><path d="m114.226 496.999h-86.898c-4.587 0-8.32-3.724-8.32-8.301v-86.965c0-4.143-3.359-7.5-7.504-7.5s-7.504 3.357-7.504 7.5v86.965c0 12.848 10.465 23.302 23.328 23.302h86.898c4.145 0 7.504-3.358 7.504-7.5s-3.359-7.501-7.504-7.501z"/><path d="m500.496 394.233c-4.145 0-7.504 3.358-7.504 7.5v86.965c0 4.577-3.719 8.301-8.291 8.301h-86.928c-4.145 0-7.504 3.358-7.504 7.5s3.359 7.5 7.504 7.5h86.928c12.847.001 23.299-10.453 23.299-23.301v-86.965c0-4.143-3.359-7.5-7.504-7.5z"/><path d="m468.572 455.207c0-4.143-3.359-7.5-7.504-7.5h-74.53c-4.145 0-7.504 3.358-7.504 7.5s3.359 7.5 7.504 7.5h74.53c4.144.001 7.504-3.357 7.504-7.5z"/><path d="m476.746 304.363c-14.635 0-26.945 10.135-30.31 23.761h-107.589v-72.552l66.398 7.954 16.992 3.758c2.823.619 5.535.908 8.131.908 15.887 0 27.273-10.844 30.852-23.261 4.413-15.316-2.281-35.908-27.406-44.927l-17.892-6.418-19.215-7.249c-3.873-1.462-8.207.492-9.67 4.368-1.464 3.875.493 8.203 4.371 9.665l13.735 5.182-5.169 42.233-61.126-7.322v-9.204c0-4.143-3.359-7.5-7.504-7.5s-7.504 3.358-7.504 7.5v96.864h-128.624v-96.863c0-4.143-3.359-7.5-7.504-7.5s-7.504 3.358-7.504 7.5v9.204l-61.126 7.322-3.231-26.393-1.948-15.915 56.119-21.978 8.578 14.342c1.406 2.35 3.895 3.652 6.448 3.652 1.31 0 2.637-.343 3.844-1.064 3.557-2.125 4.716-6.731 2.59-10.287l-6.155-10.291c1.435-.029 3.064-.03 5.036-.029l32.031.001v3.682c0 22.555 16.991 40.904 37.874 40.904 20.868 0 37.845-18.349 37.845-40.904v-3.682l30.58-.001c9.645.007 11.392-.01 19.856 3.474.041.017.081.032.122.049l9.727 3.805c.899.352 1.823.518 2.733.518 2.999 0 5.831-1.81 6.99-4.769 1.511-3.858-.394-8.208-4.253-9.718l-9.664-3.78c-11.171-4.591-15.379-4.58-25.523-4.578l-27.401.001c17.36-14.487 29.614-35.774 29.614-54.601v-49.613c0-24.422-18.404-46.469-46.888-56.167-24.995-8.511-49.801-4.549-63.031 9.748-13.553 2.309-32.749 12.992-32.096 55.07.007.384.012 40.961.012 40.961 0 18.82 12.256 40.107 29.628 54.601l-28.141-.001c-5.736.004-9.499.004-13.581.764l-37.691-63.019c-1.355-2.265-3.801-3.652-6.441-3.652h-74.53c-4.145 0-7.504 3.358-7.504 7.5 0 4.143 3.359 7.5 7.504 7.5h70.273l33.799 56.512-76.967 29.576c-25.124 9.018-31.818 29.61-27.404 44.926 3.578 12.417 14.96 23.259 30.855 23.259 2.597 0 5.316-.289 8.139-.908l16.98-3.756 66.398-7.954v72.552h-114.645c-3.368-13.626-15.69-23.761-30.339-23.761-17.216.001-31.224 14.025-31.224 31.262 0 17.221 14.008 31.231 31.225 31.231 14.647 0 26.966-10.121 30.337-23.731h114.646v37.811c0 4.143 3.359 7.5 7.504 7.5s7.504-3.358 7.504-7.5v-37.811h56.822v99.355h-56.816l.022-26.072c.004-4.142-3.353-7.502-7.498-7.506-.002 0-.004 0-.006 0-4.141 0-7.5 3.354-7.504 7.494l-.028 33.578v.003s0 .002 0 .003v15.975c0 22.538 18.345 40.875 40.893 40.875h5.052c13.776 0 25.973-6.851 33.386-17.317 7.408 10.465 19.597 17.317 33.363 17.317h5.081c22.533 0 40.864-18.337 40.864-40.875v-15.974-43.894l45.238 15.632c.789.273 1.617.412 2.452.412h74.53c4.145 0 7.504-3.358 7.504-7.5s-3.359-7.5-7.504-7.5h-73.27l-48.95-16.915v-47.09h107.59c3.368 13.609 15.676 23.731 30.308 23.731 17.234 0 31.254-14.01 31.254-31.231.001-17.238-14.019-31.262-31.253-31.262zm-57.131-93.515 9.128 3.275c17.215 6.179 20.486 18.222 18.055 26.656-2.23 7.741-9.686 14.409-21.33 11.855l-10.679-2.361zm-136.511-27.342c0 14.283-10.245 25.904-22.837 25.904-12.608 0-22.866-11.621-22.866-25.904v-6.778c1.32.589 2.648 1.149 3.99 1.648 6.793 2.494 12.671 3.655 18.498 3.655 5.861 0 11.743-1.163 18.526-3.665 1.515-.563 3.015-1.197 4.503-1.873.057.085.125.161.185.244v6.769zm-57.628-154.782c2.089-.184 4.005-1.232 5.285-2.893 9.986-12.95 31.507-12.942 48.404-7.187 16.939 5.767 36.719 20.219 36.719 41.967v22.679h-4.167c-8.78 0-14.454-5.323-21.638-12.061-8.743-8.202-19.625-18.408-38.463-18.408h-13.733c-17.996 0-19.431 15.244-20.202 23.433-.987 10.483-1.814 11.684-8.048 11.684h-5.736v-17.741c0-.296-.006-.689-.013-1.168-.273-17.495 3.254-38.689 21.592-40.305zm-21.579 81.499v-7.285h5.736c20.61 0 22.158-16.444 22.99-25.278.927-9.838 1.589-9.838 5.261-9.838h13.733c12.899 0 19.986 6.648 28.193 14.346 8.057 7.557 17.189 16.123 31.908 16.123h4.167v11.932c0 20.359-19.952 45.632-42.681 54.077-5.051 1.863-9.28 2.732-13.312 2.732-4.007 0-8.241-.869-13.293-2.725-22.749-8.461-42.702-33.734-42.702-54.084zm-110.297 142.409c-11.645 2.554-19.111-4.113-21.343-11.853-2.43-8.435.84-20.477 18.055-26.656l9.129-3.274 4.826 39.425zm-58.375 99.222c-8.942 0-16.217-7.281-16.217-16.23 0-8.966 7.274-16.26 16.217-16.26 8.958 0 16.246 7.294 16.246 16.26 0 8.949-7.288 16.23-16.246 16.23zm190.928 139.975h-5.052c-14.273 0-25.885-11.607-25.885-25.874v-8.475h56.822v8.475c0 14.267-11.612 25.874-25.885 25.874zm97.686-25.874c0 14.267-11.599 25.874-25.856 25.874h-5.081c-14.258 0-25.857-11.607-25.857-25.874v-8.475h56.793v8.475zm-23.052-73.022 23.052 7.966v41.58h-56.793v-99.355h56.793v41.904l-18.149-6.272c-3.914-1.356-8.19.724-9.543 4.638-1.355 3.915.723 8.186 4.64 9.539zm175.959-41.079c-8.942 0-16.217-7.281-16.217-16.23 0-8.966 7.274-16.26 16.217-16.26 8.958 0 16.246 7.294 16.246 16.26 0 8.949-7.288 16.23-16.246 16.23z"/></g></svg>