<svg id="Layer_5" enable-background="new 0 0 64 64" height="512" viewBox="0 0 64 64" width="512" xmlns="http://www.w3.org/2000/svg"><path d="m54.929 39c-2.156 0-4.183.84-5.707 2.364l-.222.222-.222-.222c-1.524-1.524-3.551-2.364-5.707-2.364-.71 0-1.4.1-2.071.279v-4.279c0-.551.449-1 1-1h2c1.654 0 3-1.346 3-3v-10.051c5.046-.503 9-4.773 9-9.949 0-5.514-4.486-10-10-10s-10 4.486-10 10c0 5.177 3.954 9.446 9 9.949v10.051c0 .551-.449 1-1 1h-2c-1.654 0-3 1.346-3 3v11c0 .551-.449 1-1 1s-1-.449-1-1v-8c0-1.654-1.346-3-3-3s-3 1.346-3 3v5c0 .551-.449 1-1 1s-1-.449-1-1v-10h2c.737 0 1.375-.405 1.722-1.001h2.788c1.924 0 3.49-1.566 3.49-3.499 0-1.928-1.569-3.498-3.498-3.499h-2.779c-.347-.595-.985-1.001-1.723-1.001h-6c-.737 0-1.375.405-1.722 1h-3.389c1.301-1.271 2.111-3.042 2.111-5 0-3.86-3.14-7-7-7s-7 3.14-7 7c0 2.233 1.055 4.22 2.688 5.503-2.979 1.036-5.287 3.596-5.895 6.839l-1.682 8.972c-.331 1.765.07 3.546 1.129 5.017.172.238.365.459.569.669h-3.809v16h19.999c.28 0 .561-.029.835-.088 1.047-.224 1.944-.842 2.524-1.74.581-.897.777-1.968.552-3.012l-2.322-10.836c-.696-3.249-3.374-5.714-6.588-6.224l1.659-8.296c.093-.466.505-.804.979-.804h4.64c.347.595.985 1 1.722 1h2v10c0 1.654 1.346 3 3 3s3-1.346 3-3v-5c0-.551.449-1 1-1s1 .449 1 1v8c0 .118.021.23.035.345-.021.239-.035.481-.035.726v.649c0 2.379 1.042 4.625 2.857 6.161l11.143 9.429 11.143-9.428c1.815-1.537 2.857-3.782 2.857-6.162v-.649c0-4.45-3.621-8.071-8.071-8.071zm-10.929-22c0-1.103.897-2 2-2s2 .897 2 2-.897 2-2 2-2-.897-2-2zm-5.931-5h1.931v-2h-1.931c.183-1.458.759-2.792 1.619-3.898l1.362 1.362 1.414-1.414-1.362-1.362c1.106-.86 2.44-1.436 3.898-1.619v1.931h2v-1.931c1.458.183 2.792.759 3.898 1.619l-1.362 1.362 1.414 1.414 1.362-1.362c.86 1.106 1.436 2.44 1.619 3.898h-1.931v2h1.931c-.325 2.587-1.884 4.794-4.074 6.005.084-.323.143-.656.143-1.005 0-1.858-1.28-3.411-3-3.858v-6.142h-2v6.142c-1.72.447-3 2-3 3.858 0 .349.059.682.144 1.005-2.19-1.211-3.75-3.418-4.075-6.005zm-28.069 8c0-2.757 2.243-5 5-5s5 2.243 5 5-2.243 5-5 5-5-2.243-5-5zm-7 29h6.699l5.068.001 2.322 10.837c.09.418.252.806.46 1.162h-14.549zm12.698-16.588-2.117 10.585 1.214.006c2.797.013 5.252 2.007 5.839 4.74l2.322 10.837c.113.522.015 1.057-.275 1.505-.291.449-.739.758-1.262.87-1.042.225-2.147-.483-2.373-1.537l-2.323-10.838c-.199-.915-1.021-1.58-1.956-1.58h-2.767-2.301c-1.573 0-3.006-.687-3.835-1.838-.736-1.022-1.016-2.258-.786-3.479l1.682-8.973c.62-3.309 3.514-5.71 6.88-5.71h9.36v3h-4.362c-1.424 0-2.661 1.014-2.94 2.412zm21.302-3.904c0 .822-.668 1.491-1.49 1.491h-2.51v-2.998h2.501c.827.001 1.499.673 1.499 1.507zm-12-2.508h6l.001 5h-6.001zm16 20v-4.634c.661-.241 1.354-.366 2.071-.366 1.622 0 3.146.631 4.293 1.778l1.636 1.636 1.636-1.636c1.147-1.147 2.671-1.778 4.293-1.778 3.324 0 6.029 2.685 6.068 6h-4.461l-2.786-4.179-2.958 7.888-2.792-4.653-3 5-2.434-4.056h-1.751c.113-.314.185-.648.185-1zm17.851 6.355-9.851 8.335-9.851-8.335c-1.073-.908-1.78-2.147-2.036-3.504.282.088.576.149.887.149h3.434l3.566 5.944 3-5 3.208 5.348 3.042-8.112 1.215 1.82h5.398c-.28 1.299-.978 2.48-2.012 3.355z"/><path d="m5 57h2v2h-2z"/><path d="m5 53h2v2h-2z"/></svg>