<?xml version="1.0"?>
<svg xmlns="http://www.w3.org/2000/svg" xmlns:xlink="http://www.w3.org/1999/xlink" xmlns:svgjs="http://svgjs.com/svgjs" version="1.1" width="512" height="512" x="0" y="0" viewBox="0 0 64 64" style="enable-background:new 0 0 512 512" xml:space="preserve"><g><g xmlns="http://www.w3.org/2000/svg" id="notification"><circle cx="22" cy="42" r="2" fill="#ffffff" data-original="#000000" style=""/><path d="m10 20h4v4h-4z" fill="#ffffff" data-original="#000000" style=""/><path d="m10 30h4v4h-4z" fill="#ffffff" data-original="#000000" style=""/><circle cx="22" cy="32" r="2" fill="#ffffff" data-original="#000000" style=""/><path d="m50 7h-4v1a4 4 0 0 1 -8 0v-1h-22v1a4 4 0 0 1 -8 0v-1h-4v7h46z" fill="#ffffff" data-original="#000000" style=""/><path d="m10 40h4v4h-4z" fill="#ffffff" data-original="#000000" style=""/><path d="m12 10a2.006 2.006 0 0 0 2-2v-4h-4v4a2.006 2.006 0 0 0 2 2z" fill="#ffffff" data-original="#000000" style=""/><circle cx="22" cy="22" r="2" fill="#ffffff" data-original="#000000" style=""/><path d="m42 10a2.006 2.006 0 0 0 2-2v-4h-4v4a2.006 2.006 0 0 0 2 2z" fill="#ffffff" data-original="#000000" style=""/><path d="m42 27v.36a12.68 12.68 0 0 1 6 0v-.36a3 3 0 0 0 -6 0z" fill="#ffffff" data-original="#000000" style=""/><path d="m32 40a13.031 13.031 0 0 1 8-12v-1a5 5 0 0 1 10 0v-11h-46v32h28zm-16 5a1 1 0 0 1 -1 1h-6a1 1 0 0 1 -1-1v-6a1 1 0 0 1 1-1h6a1 1 0 0 1 1 1zm0-10a1 1 0 0 1 -1 1h-6a1 1 0 0 1 -1-1v-6a1 1 0 0 1 1-1h6a1 1 0 0 1 1 1zm0-10a1 1 0 0 1 -1 1h-6a1 1 0 0 1 -1-1v-6a1 1 0 0 1 1-1h6a1 1 0 0 1 1 1zm6 21a4 4 0 1 1 4-4 4 4 0 0 1 -4 4zm0-10a4 4 0 1 1 4-4 4 4 0 0 1 -4 4zm0-10a4 4 0 1 1 4-4 4 4 0 0 1 -4 4zm6.031-4.031a4 4 0 1 1 4 4 4 4 0 0 1 -4-4z" fill="#ffffff" data-original="#000000" style=""/><path d="m56.29 52.71a1.033 1.033 0 0 1 -.29-.71v-12a11 11 0 0 0 -22 0v12a1.033 1.033 0 0 1 -.29.71l-2.3 2.29h27.18z" fill="#ffffff" data-original="#000000" style=""/><path d="m45 60a4 4 0 0 0 3.86-3h-7.72a4 4 0 0 0 3.86 3z" fill="#ffffff" data-original="#000000" style=""/><path d="m34.031 21.969a2 2 0 1 0 -2 2 2 2 0 0 0 2-2z" fill="#ffffff" data-original="#000000" style=""/></g></g></svg>
