<svg xmlns:rdf="http://www.w3.org/1999/02/22-rdf-syntax-ns#" xmlns="http://www.w3.org/2000/svg" xmlns:cc="http://creativecommons.org/ns#" xmlns:dc="http://purl.org/dc/elements/1.1/" xmlns:svg="http://www.w3.org/2000/svg" xmlns:inkscape="http://www.inkscape.org/namespaces/inkscape" xmlns:sodipodi="http://sodipodi.sourceforge.net/DTD/sodipodi-0.dtd" xmlns:ns1="http://sozi.baierouge.fr" xmlns:xlink="http://www.w3.org/1999/xlink" id="svg3664" viewBox="0 0 208.4 210.53" version="1.1" inkscape:version="0.91 r13725">
  <g id="layer1" transform="translate(112.77 -529.95)">
    <g id="g5555" stroke="#000" stroke-width="0.5" fill="#000" fill-rule="nonzero" transform="matrix(.61858 0 0 .63162 -281.75 880.35)">
    <path id="path5528" style="fill:#c8b7b7" d="m439.75-546.72c-88.315 0-159.91 70.942-159.91 158.47 0 17.779 2.9582 34.888 8.4062 50.844-3.6201-13.385-5.5625-27.591-5.5625-42.281 0-81.218 59.448-147.06 132.78-147.06 73.333 0 132.78 65.844 132.78 147.06 0 81.218-59.448 147.06-132.78 147.06-2.4493 0-4.8647-0.0737-7.2812-0.21875 10.206 2.0254 20.755 3.0938 31.562 3.0938 88.315 0 159.91-70.973 159.91-158.5s-71.591-158.47-159.91-158.47z"/>
    <path id="path5526" style="block-progression:tb;text-indent:0;color:rgba(174, 214, 220, 1);text-transform:none;fill:rgba(174, 214, 220, 1)" d="m439.75-554.06c-85.302-9.0101-154.89 70.283-164.41 149.99-10.424 61.588 17.148 129.2 73.597 158.99 81.606 53.07 197.1 11.205 242.26-70.488 61.36-101.07-36.9-246.83-151.45-238.49zm0 14.688c74.115-9.1794 137.97 57.068 146.33 127.45 13.752 68.901-20.653 152-93.203 170.49-68.572 23.116-149.6-8.9558-182.65-73.677-36.369-60.86-29.338-150.54 32.582-192.4 27.547-20.92 62.111-33.626 96.946-31.866z"/>
    </g>
  </g>
</svg>
