<?xml version="1.0"?>
<svg xmlns="http://www.w3.org/2000/svg" xmlns:xlink="http://www.w3.org/1999/xlink" xmlns:svgjs="http://svgjs.com/svgjs" version="1.1" width="512" height="512" x="0" y="0" viewBox="0 0 61 60" style="enable-background:new 0 0 512 512" xml:space="preserve"><g><g xmlns="http://www.w3.org/2000/svg" id="054---Listening-To-Customer"><path id="Shape" d="m2.6 52.219c-.238.069-2.334.781-2.571 4.581-.01242071.0659475-.01878056.1328933-.019.2-.03147317 1.6115905 1.23891429 2.9488404 2.85 3h22.3c.784995-.0168455 1.5297668-.3506274 2.064741-.9253478.5349741-.5747205.8146175-1.3414636.775259-2.1256522-.1-3.934-2.358-4.66-2.6-4.729l-6.4-1.88v-3.579c.8185313-.739946 1.3647498-1.7334227 1.551-2.821 2.09-.454 3.155-3.275 1.93-5.39.6507692-2.0507117.643426-4.2536723-.021-6.3-1.38-4.202-8.238-4.25-8.53-4.25-3.821 0-5.34 1.441-5.93 2.429-3.242.552-3.479 4.982-2.458 8.08-1.252 2.1-.214 4.97 1.908 5.431.18486394 1.0878359.73091013 2.0816399 1.55 2.821v3.579zm23.4 4.801c.0192967.2415104-.0585118.4807453-.2161856.664698-.1576738.1839528-.382194.2974347-.6238144.315302h-22.3c-.50179329-.04454-.87494142-.4835902-.838-.986.127-2.415 1.14-2.875 1.14-2.875l6.411-1.882c.616.787 1.885 1.743 4.437 1.743s3.811-.953 4.422-1.742l6.371 1.87c.043.017 1.134.449 1.197 2.892zm-9-6.2c-.789 1.595-5.2 1.579-6 0v-1.649c.5436764.5536989 1.2944206.8543593 2.07.829 1.882 0 2.888.2 3.93-.829zm-8.553-18.435c.52513591-.0554294.9857924-.3747224 1.222-.847 1.31-2.55 9.858-1.807 10.89 1.331.4294816 1.2644225.5218534 2.6189785.268 3.93-.1808936-.7581572-.5083787-1.4735966-.964-2.106-.481873-.9013263-1.3826707-1.5018581-2.4-1.6-1.433-.1-5.483-.1-6.928 0-.61146872.03789-1.19126931.2850645-1.642.7-.84714072.8319992-1.44554321 1.8837055-1.728 3.037-.301-1.596-.324-4.284 1.282-4.445zm-.328 9.605c-.673.135-1.119-.758-1.119-1.49 0-.813.458-1.5 1-1.5.53666154.0004512.97799706-.4227895 1-.959.03076345-.7755449.28955755-1.5247955.744-2.154.16136824-.227758.3384669-.443952.53-.647.193-.186.51-.23 3.727-.23 1.375 0 2.646.029 3.313.077.413.032.539.256.937.79.4574932.6317462.7180735 1.3846113.749 2.164.0220029.5362105.4633385.9594512 1 .959.473 0 1 .616 1 1.5 0 .776-.5 1.614-1.119 1.49-.2810167-.0583005-.5735368.0069499-.8031373.1791503-.2296005.1722003-.3741465.4347495-.3968627.7208497-.0180439.8746058-.3659508 1.7100826-.974 2.339-1.689 1.485-1.773 2.771-2.777 2.771h-1.86c-.5 0-.645-.144-1.213-.949-.4444457-.6728668-.9726861-1.286459-1.572-1.826-.60520812-.6287405-.95120497-1.4624894-.969-2.335-.02284019-.2854565-.16696478-.5474238-.39585315-.7195203-.22888838-.1720965-.52057472-.2378067-.80114685-.1804797z" fill="#ffffff" data-original="#000000" style=""/><path id="Shape" d="m3 22h7.568l3.332 3.529c.2893413.3003617.6884442.4700612 1.1055.4700612s.8161587-.1696995 1.1055-.4700612l3.321-3.529h7.568c1.6568542 0 3-1.3431458 3-3v-16c0-1.65685425-1.3431458-3-3-3h-24c-1.65685425 0-3 1.34314575-3 3v16c0 1.6568542 1.34314575 3 3 3zm-1-19c0-.55228475.44771525-1 1-1h24c.5522847 0 1 .44771525 1 1v16c0 .5522847-.4477153 1-1 1h-10c-.4983255-.0044931-.9223132.3621285-.9898048.8558828s.2425537.9607114.7238048 1.0901172l-1.734 1.839-1.734-1.839c.4812511-.1294058.7912964-.5963629.7238048-1.0901172s-.4914793-.8603759-.9898048-.8558828h-10c-.55228475 0-1-.4477153-1-1z" fill="#ffffff" data-original="#000000" style=""/><path id="Shape" d="m10.051 15.684c-.17590268.5246705.1068295 1.0925973.6315 1.2685s1.0925973-.1068295 1.2685-.6315c.4512219-1.3206727 1.655861-2.237684 3.049-2.321 1.3928983.0809401 2.5985541.9961478 3.051 2.316.174522.5246705.7413295.8085219 1.266.634.5246705-.174522.808522-.7413295.634-1.266-.051-.151-1.273-3.684-4.951-3.684s-4.9 3.533-4.949 3.684z" fill="#ffffff" data-original="#000000" style=""/><path id="Shape" d="m11 11c1.6568542 0 3-1.34314575 3-3s-1.3431458-3-3-3c-1.65685425 0-3 1.34314575-3 3s1.34314575 3 3 3zm0-4c.5522847 0 1 .44771525 1 1s-.4477153 1-1 1-1-.44771525-1-1 .4477153-1 1-1z" fill="#ffffff" data-original="#000000" style=""/><path id="Shape" d="m19 11c1.6568542 0 3-1.34314575 3-3s-1.3431458-3-3-3-3 1.34314575-3 3 1.3431458 3 3 3zm0-4c.5522847 0 1 .44771525 1 1s-.4477153 1-1 1-1-.44771525-1-1 .4477153-1 1-1z" fill="#ffffff" data-original="#000000" style=""/><path id="Shape" d="m49 60c4.4162219-.0049599 7.9950401-3.5837781 8-8 .0040078-1.730309.5650209-3.4133482 1.6-4.8.9063735-1.2129196 1.397347-2.6858402 1.4-4.2 0-29.057.166-28.109-.458-30.827-.842-3.66-3.793-12.173-13.022-12.173s-14.52 7.654-14.52 21c-.3029449 7.0592013 1.8923748 13.9992443 6.2 19.6 1.9272144 2.7471668 2.909859 6.0460454 2.8 9.4v2c.0049599 4.4162219 3.5837781 7.9950401 8 8zm-9.2-20.6c-4.063485-5.2465854-6.1202758-11.7715769-5.8-18.4 0-7.1 1.626-19 12.52-19 7.511 0 10.162 6.654 11.073 10.62.547 2.385.407.869.407 30.38-.0022917 1.0814779-.3529466 2.1334426-1 3-1.2942985 1.7330146-1.99563 3.8370093-2 6 0 3.3137085-2.6862915 6-6 6s-6-2.6862915-6-6v-2.006c.1117566-3.7850926-1.0114845-7.5037225-3.2-10.594z" fill="#ffffff" data-original="#000000" style=""/><path id="Shape" d="m45.967 39.3 1.9 4.05c.8878062 1.5113074 2.806717 2.057907 4.3576362 1.2412678s2.1860726-2.7080857 1.4423638-4.2952678c-3.239-6.788.354-7.311-.7-11.53-.369-1.477-.67-3.666.262-4.869.2058145-.2650691.4695421-.4795402.771-.627v1.73c0 .5522847.4477153 1 1 1s1-.4477153 1-1c0-8.858.12-9.855-.356-11.93-1.723-7.497-5.913-9.07-9.124-9.07-4.195 0-7.118 2.554-8.935 7.808-2.207 6.378-1.945 11.911-.155 18.092 1.219 4.209 4.064 6.931 6.642 7.791.8269932.2511993 1.5130189.8336877 1.895 1.609zm5.32 3.567c-.5796224.2973011-1.2901757.1086548-1.646-.437l-1.862-3.978c-.3950861-.8223048-1.0110235-1.5185669-1.779-2.011v-4.441c.0080479-2.6187465 2.0383572-4.7861268 4.651-4.965.0670813.7462685.1938197 1.4859663.379 2.212.787 3.149-2.631 4.642.836 11.907.2987936.6329262.0428565 1.3888027-.579 1.71zm-11.936-13.526c-1.666-5.755-1.955-10.872.124-16.879 1.981-5.728 4.806-6.462 7.045-6.462 3.666 0 6.012 2.459 7.174 7.518.411 1.792.306 2.846.306 7.629-1.8090134.458975-3.1316603 2.0092775-3.3 3.868-3.7425572.16054-6.6954145 3.2390039-6.7 6.985v3.489c-2.323498-1.3292916-4.0029484-3.5502555-4.649-6.148z" fill="#ffffff" data-original="#000000" style=""/></g></g></svg>
