<?xml version="1.0"?>
<svg xmlns="http://www.w3.org/2000/svg" xmlns:xlink="http://www.w3.org/1999/xlink" xmlns:svgjs="http://svgjs.com/svgjs" version="1.1" width="512" height="512" x="0" y="0" viewBox="0 0 64 64" style="enable-background:new 0 0 512 512" xml:space="preserve" class=""><g><g xmlns="http://www.w3.org/2000/svg"><path d="m55 29c4.411 0 8-3.589 8-8s-3.589-8-8-8c-.548 0-1.095.058-1.636.173-1.626-4.86-6.161-8.173-11.364-8.173-2.604 0-5.107.842-7.176 2.395-1.261-2.163-4.645-6.395-11.824-6.395-6.253 0-11.656 4.076-13.409 10.009-4.774.215-8.591 4.166-8.591 8.991 0 4.962 4.037 9 9 9h5.101c-.066.323-.101.658-.101 1v22c0 6.065 4.935 11 11 11h12c6.065 0 11-4.935 11-11v-22c0-.342-.035-.677-.101-1zm-45-2c-3.859 0-7-3.14-7-7s3.141-7 7-7c.054 0 .106.004.159.008l.981.046.19-.807c1.281-5.445 6.079-9.247 11.67-9.247 8.147 0 10.462 6.055 10.556 6.309l.513 1.432 1.111-1.039c1.863-1.743 4.286-2.702 6.82-2.702 4.624 0 8.616 3.141 9.707 7.638l.261 1.074 1.043-.367c.652-.229 1.321-.345 1.989-.345 3.309 0 6 2.691 6 6s-2.691 6-6 6h-7.026c-.914-1.207-2.348-2-3.974-2h-24c-1.627 0-3.061.793-3.974 2zm26.899 0c-.465 2.279-2.484 4-4.899 4s-4.434-1.721-4.899-4zm10.101 25c0 4.962-4.037 9-9 9h-12c-4.963 0-9-4.038-9-9v-22c0-1.654 1.346-3 3-3h5.08c.488 3.387 3.401 6 6.92 6s6.432-2.613 6.92-6h5.08c1.654 0 3 1.346 3 3z" fill="#ffffff" data-original="#000000" style=""/><path d="m23 17h-2c0 1.103-.897 2-2 2s-2-.897-2-2v-4c0-1.103.897-2 2-2s2 .897 2 2h2c0-2.206-1.794-4-4-4s-4 1.794-4 4v4c0 2.206 1.794 4 4 4s4-1.794 4-4z" fill="#ffffff" data-original="#000000" style=""/><path d="m29 21c2.206 0 4-1.794 4-4v-4c0-2.206-1.794-4-4-4s-4 1.794-4 4v4c0 2.206 1.794 4 4 4zm-2-8c0-1.103.897-2 2-2s2 .897 2 2v4c0 1.103-.897 2-2 2s-2-.897-2-2z" fill="#ffffff" data-original="#000000" style=""/><path d="m43 35h-22c-1.103 0-2 .897-2 2v15c0 3.86 3.141 7 7 7h12c3.859 0 7-3.14 7-7v-15c0-1.103-.897-2-2-2zm0 17c0 2.757-2.243 5-5 5h-12c-2.757 0-5-2.243-5-5v-15h22z" fill="#ffffff" data-original="#000000" style=""/><circle cx="21" cy="30" r="1" fill="#ffffff" data-original="#000000" style=""/><circle cx="43" cy="30" r="1" fill="#ffffff" data-original="#000000" style=""/><path d="m41 39h-18v6h18zm-2 4h-14v-2h14z" fill="#ffffff" data-original="#000000" style=""/><path d="m27 55c2.206 0 4-1.794 4-4s-1.794-4-4-4-4 1.794-4 4 1.794 4 4 4zm0-6c1.103 0 2 .897 2 2s-.897 2-2 2-2-.897-2-2 .897-2 2-2z" fill="#ffffff" data-original="#000000" style=""/><path d="m37 47c-2.206 0-4 1.794-4 4s1.794 4 4 4 4-1.794 4-4-1.794-4-4-4zm0 6c-1.103 0-2-.897-2-2s.897-2 2-2 2 .897 2 2-.897 2-2 2z" fill="#ffffff" data-original="#000000" style=""/><path d="m7 20h-2c0 2.757 2.243 5 5 5h2v-2h-2c-1.654 0-3-1.346-3-3z" fill="#ffffff" data-original="#000000" style=""/><path d="m14 23h2v2h-2z" fill="#ffffff" data-original="#000000" style=""/><path d="m47 16h2c0-3.86-3.141-7-7-7v2c2.757 0 5 2.243 5 5z" fill="#ffffff" data-original="#000000" style=""/><path d="m51 37h2v10h-2z" fill="#ffffff" data-original="#000000" style=""/><path d="m55 35h2v14h-2z" fill="#ffffff" data-original="#000000" style=""/><path d="m59 33h2v18h-2z" fill="#ffffff" data-original="#000000" style=""/><path d="m11 37h2v10h-2z" fill="#ffffff" data-original="#000000" style=""/><path d="m7 35h2v14h-2z" fill="#ffffff" data-original="#000000" style=""/><path d="m3 33h2v18h-2z" fill="#ffffff" data-original="#000000" style=""/></g></g></svg>
