<svg height="462pt" viewBox="-28 0 462 462.02229" width="462pt" xmlns="http://www.w3.org/2000/svg"><path d="m210.863281 0h-86.253906c-39.023437.0429688-70.644531 31.667969-70.691406 70.691406v81.328125h-27.90625c-14.351563.015625-25.9843752 11.648438-26.0000002 26v207.980469c.015625 14.351562 11.6484372 25.984375 26.0000002 26h232.035156c12.917969 35.523438 49.984375 56.152344 86.984375 48.410156 37-7.738281 62.6875-41.496094 60.28125-79.222656-2.402344-37.722656-32.167969-67.949219-69.851562-70.929688v-132.238281c-.015626-14.351562-11.648438-25.984375-26-26h-27.90625v-81.328125c-.046876-39.023437-31.667969-70.6484372-70.691407-70.691406zm58.691407 70.691406v81.328125h-9.566407v-81.328125c-.03125-27.121094-22.007812-49.097656-49.125-49.128906h-20.957031v-9.5625h20.957031c32.398438.035156 58.652344 26.292969 58.691407 58.691406zm-111.992188-49.128906v-9.5625h20.34375v9.5625zm53.300781 12c20.496094.023438 37.101563 16.632812 37.125 37.128906v81.328125h-160.503906v-81.328125c.023437-20.496094 16.628906-37.105468 37.125-37.128906zm-144.945312 37.128906c.039062-32.398437 26.292969-58.65625 58.691406-58.691406h20.953125v9.5625h-20.953125c-27.117187.03125-49.09375 22.007812-49.125 49.128906v81.328125h-9.566406zm327.542969 315.308594c0 35.347656-28.652344 64-64 64-35.347657 0-64-28.652344-64-64s28.652343-64 64-64c35.328124.039062 63.960937 28.671875 64 64zm-70-207.980469v132.238281c-21.496094 1.675782-41.265626 12.417969-54.371094 29.539063-13.105469 17.125-18.3125 39.015625-14.3125 60.203125h-228.765625c-7.730469-.007812-13.992188-6.269531-14-14v-207.980469c.007812-7.726562 6.269531-13.988281 14-14h283.449219c7.730468.011719 13.992187 6.273438 14 14zm0 0"/><path d="m138.988281 294.6875c6.449219 0 11.675781-5.226562 11.675781-11.675781s-5.226562-11.675781-11.671874-11.675781c-6.449219 0-11.675782 5.226562-11.675782 11.675781.007813 6.445312 5.226563 11.667969 11.671875 11.675781zm0-12c.179688 0 .324219.144531.324219.324219 0 .179687-.144531.324219-.324219.324219-.179687 0-.324219-.144532-.324219-.324219 0-.179688.144532-.324219.324219-.324219zm0 0"/><path d="m196.484375 294.6875c6.445313 0 11.671875-5.230469 11.671875-11.675781 0-6.449219-5.226562-11.675781-11.671875-11.675781-6.449219 0-11.675781 5.226562-11.675781 11.675781.007812 6.445312 5.230468 11.667969 11.675781 11.675781zm0-12c.179687 0 .324219.144531.324219.324219 0 .179687-.148438.324219-.328125.324219-.179688 0-.324219-.144532-.324219-.324219 0-.179688.148438-.324219.328125-.324219zm0 0"/><path d="m253.976562 294.6875c6.449219 0 11.675782-5.230469 11.675782-11.675781 0-6.449219-5.226563-11.675781-11.675782-11.675781-6.449218 0-11.675781 5.226562-11.675781 11.675781.007813 6.445312 5.230469 11.667969 11.675781 11.675781zm0-12c.179688 0 .324219.144531.324219.324219 0 .179687-.144531.324219-.324219.324219-.179687 0-.324218-.144532-.324218-.324219 0-.179688.144531-.324219.324218-.324219zm0 0"/><path d="m81.496094 294.6875c6.445312 0 11.675781-5.230469 11.675781-11.675781 0-6.449219-5.230469-11.675781-11.675781-11.675781-6.449219 0-11.675782 5.226562-11.675782 11.675781.007813 6.445312 5.230469 11.667969 11.675782 11.675781zm0-12c.179687 0 .324218.144531.324218.324219 0 .179687-.144531.324219-.324218.324219-.179688 0-.324219-.144532-.324219-.324219 0-.179688.144531-.324219.324219-.324219zm0 0"/><path d="m303.460938 364.085938c0 3.316406 2.6875 6 6 6s6-2.683594 6-6c0-3.886719 1.617187-7.601563 4.460937-10.25 2.847656-2.648438 6.667969-3.992188 10.546875-3.714844 6.132812.441406 11.261719 4.832031 12.644531 10.824218 1.378907 5.992188-1.316406 12.183594-6.640625 15.261719-8.113281 4.808594-13.066406 13.5625-13.011718 22.992188v8.683593c0 3.3125 2.6875 6 6 6s6-2.6875 6-6v-8.683593c-.058594-5.15625 2.617187-9.953125 7.035156-12.613281 10.914062-6.320313 15.714844-19.566407 11.386718-31.410157-4.324218-11.847656-16.527343-18.882812-28.949218-16.6875-12.417969 2.195313-21.472656 12.988281-21.472656 25.597657zm0 0"/><path d="m329.460938 415.246094c-5.152344 0-9.332032 4.179687-9.332032 9.335937 0 5.152344 4.179688 9.332031 9.332032 9.332031 5.15625 0 9.335937-4.179687 9.335937-9.335937-.007813-5.152344-4.183594-9.324219-9.335937-9.332031zm0 12c-1.472657 0-2.667969-1.191406-2.667969-2.667969 0-1.472656 1.195312-2.664063 2.667969-2.664063 1.472656 0 2.667968 1.191407 2.667968 2.664063-.003906 1.472656-1.195312 2.667969-2.667968 2.667969zm0 0"/></svg>