<svg height="480pt" viewBox="0 0 480 480" width="480pt" xmlns="http://www.w3.org/2000/svg"><path d="m445.65625 2.34375c-1.496094-1.503906-3.535156-2.34375-5.65625-2.34375h-88c-4.414062 0-8 3.574219-8 8 0 12.304688 4.6875 23.496094 12.320312 32h-108.320312c-13.230469 0-24 10.769531-24 24s10.769531 24 24 24h73.472656c-.898437 2.511719-1.472656 5.183594-1.472656 8 0 6.167969 2.40625 11.742188 6.238281 16-3.839843 4.257812-6.238281 9.832031-6.238281 16s2.40625 11.742188 6.238281 16c-3.839843 4.257812-6.238281 9.832031-6.238281 16 0 13.230469 10.769531 24 24 24h136v-16h-136c-4.40625 0-8-3.585938-8-8s3.59375-8 8-8h64v-16h-64c-4.40625 0-8-3.585938-8-8s3.59375-8 8-8h64v-16h-64c-4.40625 0-8-3.585938-8-8s3.59375-8 8-8h64v-16h-160c-4.40625 0-8-3.585938-8-8s3.59375-8 8-8h184v-16h-40c-14.878906 0-27.425781-10.207031-30.992188-24h75.671876l13.65625 13.65625c1.503906 1.503906 3.542968 2.34375 5.664062 2.34375h24v-16h-20.6875zm0 0"/><path d="m272 176c0-28.519531-24.230469-66.703125-25.265625-68.3125-2.941406-4.589844-10.527344-4.589844-13.476563 0-1.027343 1.609375-25.257812 39.792969-25.257812 68.3125 0 26.535156 10.769531 40 32 40s32-13.464844 32-40zm-48 0c0-15.3125 9.296875-35.449219 16-47.976562 6.703125 12.527343 16 32.664062 16 47.976562 0 24-8.871094 24-16 24s-16 0-16-24zm0 0"/><path d="m472 336h-168v-56c0-22.054688-17.945312-40-40-40h-224c-22.054688 0-40 17.945312-40 40v160c0 22.054688 17.945312 40 40 40h224c22.054688 0 40-17.945312 40-40v-56h168c4.414062 0 8-3.574219 8-8v-32c0-4.425781-3.585938-8-8-8zm-312 56h47.34375c-9.816406 16.902344-27.105469 28.902344-47.34375 31.449219zm56-32c0 5.535156-.777344 10.871094-2.105469 16h-53.894531v-32h53.894531c1.328125 5.128906 2.105469 10.464844 2.105469 16zm-56-32v-31.449219c20.230469 2.546875 37.527344 14.546875 47.34375 31.449219zm-16 96h-128v-128h128zm120 40h-224c-13.230469 0-24-10.769531-24-24h136c44.113281 0 80-35.886719 80-80s-35.886719-80-80-80h-136c0-13.230469 10.769531-24 24-24h224c13.230469 0 24 10.769531 24 24v40.808594c-18.230469 3.71875-32 19.871094-32 39.191406s13.769531 35.472656 32 39.191406v40.808594c0 13.230469-10.769531 24-24 24zm24-126.527344v45.046875c-9.289062-3.3125-16-12.113281-16-22.527343 0-10.417969 6.710938-19.207032 16-22.519532zm176 30.527344h-160v-16h160zm0 0"/><path d="m72 320h16v16h-16zm0 0"/><path d="m72 352h16v16h-16zm0 0"/><path d="m72 384h16v16h-16zm0 0"/></svg>