<svg id="Capa_1" enable-background="new 0 0 512 512" height="512" viewBox="0 0 512 512" width="512" xmlns="http://www.w3.org/2000/svg"><g><path d="m425.148 79.608c5.049-8.161 7.75-17.582 7.75-27.389 0-28.794-23.425-52.219-52.218-52.219s-52.218 23.425-52.218 52.218c0 9.897 2.747 19.392 7.876 27.599-23.791 9.479-36.73 26.913-36.73 49.935v32.82c0 4.151 3.365 7.515 7.515 7.515s7.515-3.364 7.515-7.515v-32.82c0-19.344 12.166-32.435 36.159-38.91 2.58-.697 4.596-2.71 5.295-5.29.699-2.579-.024-5.336-1.9-7.24-6.9-7.004-10.701-16.271-10.701-26.095 0-20.506 16.683-37.189 37.189-37.189s37.189 16.683 37.189 37.189c0 9.761-3.761 18.986-10.59 25.977-1.868 1.913-2.579 4.674-1.868 7.251s2.739 4.582 5.323 5.265c24.312 6.426 36.639 19.561 36.639 39.041v59.527c0 5.738-4.668 10.405-10.406 10.405-5.737 0-10.405-4.667-10.405-10.405v-53.76c0-4.151-3.365-7.515-7.515-7.515s-7.515 3.364-7.515 7.515v159.408c0 4.151 3.364 7.515 7.515 7.515s7.515-3.364 7.515-7.515v-82.44c3.178 1.43 6.701 2.227 10.406 2.227.105 0 .209-.007.314-.008v155.219c0 4.151 3.365 7.515 7.515 7.515s7.515-3.364 7.515-7.515v-160.376c6.126-4.649 10.091-12.003 10.091-20.268v-59.527c0-23.204-13.128-40.713-37.255-50.145z"/><path d="m381.005 369.389c4.825 4.964 11.569 8.051 19.022 8.051 14.632 0 26.536-11.904 26.536-26.536v-25.918c0-4.151-3.365-7.515-7.515-7.515s-7.515 3.364-7.515 7.515v25.918c0 6.344-5.162 11.507-11.507 11.507s-11.507-5.163-11.507-11.507v-96.969c0-4.151-3.365-7.515-7.515-7.515s-7.515 3.364-7.515 7.515v96.969c0 6.344-5.162 11.507-11.507 11.507s-11.507-5.163-11.507-11.507v-215.384c0-4.151-3.365-7.515-7.515-7.515s-7.515 3.364-7.515 7.515v89.831c0 5.738-4.668 10.405-10.405 10.405-5.738 0-10.406-4.667-10.406-10.405v-32.719c0-4.151-3.365-7.515-7.515-7.515s-7.515 3.364-7.515 7.515v32.719c0 14.025 11.41 25.434 25.435 25.434 3.704 0 7.227-.796 10.405-2.227v102.346c0 14.632 11.904 26.536 26.536 26.536 7.456 0 14.2-3.087 19.025-8.051z"/><path d="m198.355 288.907v-53.872c0-21.069-11.753-37.018-33.381-45.734 4.354-7.328 6.679-15.715 6.679-24.435 0-26.452-21.52-47.972-47.972-47.972s-47.972 21.52-47.972 47.972c0 8.803 2.365 17.259 6.792 24.63-21.318 8.757-32.905 24.637-32.905 45.538v9.833c0 4.151 3.365 7.515 7.515 7.515s7.515-3.364 7.515-7.515v-9.833c0-17.144 10.833-28.759 32.197-34.524 2.58-.697 4.596-2.71 5.295-5.29.699-2.579-.025-5.337-1.9-7.24-6.112-6.204-9.479-14.413-9.479-23.115 0-18.164 14.778-32.942 32.942-32.942s32.942 14.778 32.942 32.942c0 8.646-3.331 16.817-9.381 23.011-1.868 1.912-2.579 4.673-1.868 7.251.711 2.577 2.739 4.582 5.323 5.265 21.65 5.721 32.627 17.377 32.627 34.642v53.872c0 4.799-3.904 8.704-8.702 8.704-4.799 0-8.703-3.904-8.703-8.704v-48.653c0-4.151-3.365-7.515-7.515-7.515s-7.515 3.364-7.515 7.515v14.481h-53.827v-14.481c0-4.151-3.364-7.515-7.515-7.515s-7.515 3.364-7.515 7.515v48.653c0 4.799-3.904 8.704-8.703 8.704s-8.703-3.904-8.703-8.704v-13.98c0-4.151-3.364-7.515-7.515-7.515-4.15 0-7.515 3.364-7.515 7.515v13.98c0 13.086 10.646 23.733 23.732 23.733 3.071 0 6.007-.586 8.703-1.653v41.724c0 13.636 11.093 24.729 24.729 24.729 6.685 0 12.759-2.666 17.215-6.991 4.456 4.325 10.529 6.991 17.214 6.991 13.636 0 24.729-11.093 24.729-24.729v-41.724c2.696 1.066 5.632 1.653 8.703 1.653 13.087.001 23.734-10.646 23.734-23.732zm-47.465-19.142v11.678c-11.811 12.16-22.709 17.659-26.914 17.659s-15.105-5.499-26.914-17.659v-11.678zm-44.129 92.646c-5.348 0-9.7-4.351-9.7-9.7v-51.033c5.704 4.565 12.577 9.086 19.4 11.204v39.829c0 5.349-4.351 9.7-9.7 9.7zm34.429 0c-5.348 0-9.7-4.351-9.7-9.7v-39.829c6.823-2.118 13.696-6.639 19.4-11.204v51.033c0 5.349-4.351 9.7-9.7 9.7z"/><path d="m250.459 357.812c-42.51 0-77.094 34.584-77.094 77.094s34.584 77.094 77.094 77.094 77.094-34.584 77.094-77.094-34.584-77.094-77.094-77.094zm0 139.159c-34.223 0-62.065-27.842-62.065-62.065s27.842-62.065 62.065-62.065 62.065 27.842 62.065 62.065-27.843 62.065-62.065 62.065z"/><path d="m250.459 397.551c-4.15 0-7.515 3.364-7.515 7.515v26.172l-13.55 10.571c-3.272 2.553-3.856 7.275-1.303 10.547 2.566 3.289 7.301 3.842 10.548 1.302l16.443-12.828c1.825-1.424 2.892-3.61 2.892-5.925v-29.84c0-4.15-3.365-7.514-7.515-7.514z"/><path d="m144.539 427.391h-63.612c-4.15 0-7.515 3.364-7.515 7.515s3.364 7.515 7.515 7.515h63.613c4.15 0 7.515-3.364 7.515-7.515s-3.366-7.515-7.516-7.515z"/><path d="m393.327 399.585c-3.028-2.839-7.783-2.689-10.622.339-2.84 3.027-2.688 7.783.339 10.622l17.955 16.845h-44.62c-4.15 0-7.515 3.364-7.515 7.515s3.364 7.515 7.515 7.515h44.62l-17.955 16.845c-3.027 2.84-3.178 7.595-.339 10.622 2.845 3.031 7.601 3.174 10.622.339l31.806-29.84c3.137-2.82 3.137-8.141 0-10.961z"/></g></svg>