<?xml version="1.0" encoding="UTF-8"?>
<svg xmlns="http://www.w3.org/2000/svg" id="Layer_1" data-name="Layer 1" viewBox="0 0 512 512" width="512" height="512"><polygon points="273.783 278.199 335.329 302.168 396.875 278.199 335.329 255.562 273.783 278.199"/><path d="M335.278,312.534a5.27,5.27,0,0,1-1.865-.341L289,294.936v20.813c30,10.317,63,10.317,92,0V294.936l-44.11,17.257A4,4,0,0,1,335.278,312.534Z"/><path d="M410.878,306.855l-1.085,2.482A21.61,21.61,0,0,0,408,317.86V331h6V317.624a21.835,21.835,0,0,0-1.835-8.183Z"/><path d="M289,326.286v4.648c30,10.318,63,10.318,92,0v-4.648a150.465,150.465,0,0,1-92,0Z"/><path d="M309,69.578V36H180V69.578C180,78.16,176.136,86,170.637,92h116.7C299.557,92,309,81.8,309,69.578Z"/><path d="M225,476V174h-2.284c-9.7,0-17.716,7.4-17.716,17.106V458.343A17.768,17.768,0,0,0,222.716,476Z"/><path d="M147.364,92C159.583,92,170,81.8,170,69.578V36H56.833A34.92,34.92,0,0,0,22,70.886V92H147.364ZM63.17,71.068A7.173,7.173,0,1,1,70.343,63.9,7.18,7.18,0,0,1,63.17,71.068Zm32.591,0a7.173,7.173,0,1,1,7.173-7.172A7.18,7.18,0,0,1,95.761,71.068Zm32.591,0a7.173,7.173,0,1,1,7.173-7.172A7.18,7.18,0,0,1,128.352,71.068Z"/><path d="M432.567,174H235V476H432.567A17.527,17.527,0,0,0,450,458.343V191.106A17.062,17.062,0,0,0,432.567,174ZM365.324,430H272.007a5,5,0,0,1,0-10h93.317a5,5,0,1,1,0,10Zm-98.317-35a5,5,0,0,1,5-5h23.822a5,5,0,0,1,0,10H272.007A5,5,0,0,1,267.007,395Zm140.009,35H386.281a5,5,0,1,1,0-10h20.735a5,5,0,1,1,0,10Zm0-30H316.785a5,5,0,0,1,0-10h90.231a5,5,0,1,1,0,10ZM424,335.519A5.824,5.824,0,0,1,418.559,341H403.1c-2.762,0-5.1-2.72-5.1-5.481V317.86a31.566,31.566,0,0,1,2.6-12.454L406,292.9v-7.516l-15,5.662v43.41a4.824,4.824,0,0,1-3.051,4.685,150.928,150.928,0,0,1-105.6,0A5.1,5.1,0,0,1,279,334.451V291.042l-21.254-8.315a4.906,4.906,0,0,1-3.084-4.7,4.993,4.993,0,0,1,3.274-4.64L333.6,245.561a5.01,5.01,0,0,1,3.452.02l75.666,27.872A5.107,5.107,0,0,1,416,278.178l0,14.675,5.44,12.815A31.765,31.765,0,0,1,424,317.624Z"/><polygon points="108 283.426 126.624 269.459 108 255.493 108 283.426"/><path d="M455.167,36H319V69.578A32.678,32.678,0,0,1,310.612,92H490V70.886A34.92,34.92,0,0,0,455.167,36Z"/><path d="M22,393.138A34.9,34.9,0,0,0,56.833,428H195V191.106C195,175.888,207.5,164,222.716,164H432.567A27.071,27.071,0,0,1,460,191.106V427.6a34.891,34.891,0,0,0,30-34.465V102H22ZM138.1,273.459l-31.968,23.966a5.048,5.048,0,0,1-3.019,1,5.151,5.151,0,0,1-2.274-.528A5.072,5.072,0,0,1,98,293.425V245.494a5.075,5.075,0,0,1,2.839-4.473,5.135,5.135,0,0,1,5.312.473l31.958,23.965a5,5,0,0,1-.009,8Zm22.987,32.893a61.36,61.36,0,0,1-6.379,7.137,5,5,0,0,1-6.912-7.228,51.42,51.42,0,0,0,5.338-5.97,5,5,0,1,1,7.953,6.061ZM112.6,208.539a60.968,60.968,0,0,1,58.862,76.7,5,5,0,0,1-9.66-2.584,50.868,50.868,0,1,0-34.522,35.581,5,5,0,0,1,2.878,9.578A60.928,60.928,0,1,1,112.6,208.539ZM39,120.156a5,5,0,0,1,10,0v3.2a5,5,0,1,1-10,0Zm0,20.956a5,5,0,0,1,10,0v76.616a5,5,0,0,1-10,0Z"/></svg>
