<?xml version="1.0" encoding="UTF-8" standalone="no"?>
<!-- Created with Inkscape (http://www.inkscape.org/) -->

<svg
   xmlns:dc="http://purl.org/dc/elements/1.1/"
   xmlns:cc="http://creativecommons.org/ns#"
   xmlns:rdf="http://www.w3.org/1999/02/22-rdf-syntax-ns#"
   xmlns:svg="http://www.w3.org/2000/svg"
   xmlns="http://www.w3.org/2000/svg"
   xmlns:sodipodi="http://sodipodi.sourceforge.net/DTD/sodipodi-0.dtd"
   xmlns:inkscape="http://www.inkscape.org/namespaces/inkscape"
   width="335.19019"
   height="313.37589"
   id="svg4593"
   version="1.1"
   inkscape:version="0.48.5 r10040"
   sodipodi:docname="hand_written-circle-05.svg">
  <defs
     id="defs4595" />
  <sodipodi:namedview
     id="base"
     pagecolor="#ffffff"
     bordercolor="#666666"
     borderopacity="1.0"
     inkscape:pageopacity="0.0"
     inkscape:pageshadow="2"
     inkscape:zoom="0.94544445"
     inkscape:cx="394.89674"
     inkscape:cy="127.28219"
     inkscape:document-units="px"
     inkscape:current-layer="g5148"
     showgrid="false"
     inkscape:window-width="1920"
     inkscape:window-height="1055"
     inkscape:window-x="0"
     inkscape:window-y="0"
     inkscape:window-maximized="1"
     fit-margin-top="0"
     fit-margin-left="0"
     fit-margin-right="0"
     fit-margin-bottom="0" />
  <g
     inkscape:label="Calque 1"
     inkscape:groupmode="layer"
     id="layer1"
     style="display:none"
     sodipodi:insensitive="true"
     transform="translate(125.18233,-98.108817)">
    <path
       style="fill:#000000;fill-opacity:1;fill-rule:nonzero;stroke:none"
       d="m 329.22236,103.09073 c -13.25503,-0.29427 -26.52907,2.35214 -39.24582,5.92115 -4.17046,1.17046 -8.27271,2.57163 -12.40907,3.85745 -25.23094,8.82746 -48.6417,22.32622 -68.91142,39.77314 -4.72976,4.07107 -9.12969,8.51033 -13.69453,12.7655 -4.37999,4.84038 -8.97172,9.49727 -13.13998,14.52115 -17.77682,21.42585 -32.1981,45.88376 -41.86544,72.01466 -2.35913,6.37674 -4.10685,12.96331 -6.16027,19.44496 -1.31903,6.31546 -3.0109,12.5644 -3.95708,18.94638 -2.49504,16.82893 -2.25298,34.31679 3.49943,50.51776 4.61936,13.00987 7.48887,15.03141 15.72263,25.79494 3.90579,3.37282 7.4946,7.1521 11.71737,10.11847 20.22548,14.20776 45.86138,18.78466 70.14076,17.9059 7.14608,-0.25865 14.22789,-1.44943 21.34183,-2.17414 7.50713,-1.71636 15.13052,-2.98625 22.52139,-5.14909 23.12009,-6.76579 44.95654,-17.70537 64.66198,-31.50635 17.07539,-11.959 21.02053,-16.77194 36.01868,-31.03892 4.98013,-5.78097 10.22761,-11.34201 14.9404,-17.34292 16.61639,-21.15809 30.27365,-45.59488 36.92979,-71.80958 1.40193,-5.52141 2.06481,-11.20456 3.09721,-16.80684 0.17009,-5.27306 0.80044,-10.55136 0.51026,-15.81917 -0.80449,-14.60446 -5.62631,-28.65851 -15.17894,-39.89836 -9.10455,-10.71262 -13.65823,-12.06355 -25.7835,-19.42328 -6.20385,-2.30102 -12.23406,-5.13946 -18.61153,-6.90305 -16.02622,-4.43178 -32.60871,-6.11654 -49.19586,-6.1601 -22.09391,-0.058 -40.49913,2.14872 -62.16781,6.96801 -11.26578,2.5056 -22.26191,6.09846 -33.39286,9.1477 -33.39836,10.85885 -65.26034,25.79601 -95.20342,44.1171 -9.25343,5.66184 -18.06945,12.00937 -27.10418,18.01405 -0.0621,0.0468 -0.26874,-0.22756 -0.20666,-0.27432 l 0,0 c 9.04116,-6.00919 2.52675,-20.29424 11.78678,-25.96035 29.96535,-18.33549 49.15869,-32.22675 82.58198,-43.0947 11.14035,-3.05217 42.26264,-5.50018 53.51743,-8.0988 18.58075,-4.29011 37.56272,-10.81486 56.76208,-11.90149 16.94335,-0.95894 48.32166,8.07494 64.99402,11.66017 6.94685,1.49385 13.5728,4.21197 20.3592,6.31796 13.74189,7.66127 19.08772,8.95082 29.29176,20.95161 10.68839,12.57044 15.60321,28.66333 15.87864,44.96053 0.0953,5.6369 -0.83663,11.24433 -1.25494,16.8665 -1.32852,5.82608 -2.28776,11.74887 -3.98554,17.47824 -7.83616,26.44413 -22.58488,51.36063 -39.95253,72.61705 -4.9118,6.0116 -10.33665,11.58508 -15.50497,17.37762 -15.64885,14.6727 -19.08551,18.95105 -36.80512,31.29911 -20.09429,14.00289 -42.17128,25.23903 -65.56094,32.58993 -7.52092,2.36367 -15.27834,3.89575 -22.91752,5.84362 -7.66795,0.96757 -15.29073,2.41148 -23.00386,2.90269 -25.94692,1.65243 -53.55001,-2.43114 -75.29669,-17.63139 -4.69301,-3.28027 -8.63787,-7.51833 -12.9568,-11.2775 -9.0606,-12.27657 -11.99833,-14.15672 -16.71353,-28.93178 -5.5383,-17.35426 -5.10583,-35.87387 -1.91542,-53.60072 1.17472,-6.52709 3.08395,-12.90041 4.62592,-19.35062 2.20451,-6.60171 4.13092,-13.3029 6.61353,-19.80514 10.13132,-26.53508 24.52878,-51.69545 42.15892,-73.96122 4.15962,-5.25334 8.75865,-10.14329 13.13797,-15.21493 4.575,-4.50634 8.97507,-9.19746 13.725,-13.51902 20.47922,-18.63228 44.34973,-33.02908 69.93216,-43.48073 4.18968,-1.59123 8.349,-3.26481 12.56904,-4.773665 13.04586,-4.664507 26.4472,-8.237877 39.91028,-11.463197 3.54753,-0.71271 6.69733,14.965312 3.14979,15.678022 z"
       id="path4619"
       inkscape:connector-curvature="0" />
  </g>
  <g
     id="g5148"
     inkscape:groupmode="layer"
     inkscape:label="Copie de Calque 1"
     style="display:inline"
     transform="translate(125.18233,-98.108817)">
    <path
       inkscape:connector-curvature="0"
       d="m 99.955811,113.81043 c -13.25503,-0.29427 -26.52907,2.35214 -39.24582,5.92115 -4.17046,1.17046 -8.27271,2.57163 -12.40907,3.85745 -25.23094,8.82746 -48.64170012,22.32622 -68.91142,39.77314 -4.72976,4.07107 -9.12969,8.51033 -13.69453,12.7655 -4.37999,4.84038 -8.97172,9.49727 -13.13998,14.52115 -17.77682,21.42585 -32.1981,45.88376 -41.86544,72.01466 -2.35913,6.37674 -4.10685,12.96331 -6.16027,19.44496 -1.31903,6.31546 -3.0109,12.5644 -3.95708,18.94638 -2.495041,16.82893 -2.252981,34.31679 3.49943,50.51776 4.61936,13.00987 7.48887,15.03141 15.72263,25.79494 3.90579,3.37282 7.4946,7.1521 11.71737,10.11847 20.22548,14.20776 45.86138,18.78466 70.1407599,17.9059 7.14608,-0.25865 14.2278901,-1.44943 21.3418301,-2.17414 7.50713,-1.71636 15.13052,-2.98625 22.52139,-5.14909 23.12009,-6.76579 44.95654,-17.70537 64.661979,-31.50635 17.07539,-11.959 21.02053,-16.77194 36.01868,-31.03892 4.98013,-5.78097 10.22761,-11.34201 14.9404,-17.34292 16.61639,-21.15809 30.27365,-45.59488 36.92979,-71.80958 1.40193,-5.52141 2.06481,-11.20456 3.09721,-16.80684 0.17009,-5.27306 0.80044,-10.55136 0.51026,-15.81917 -0.80449,-14.60446 -5.62631,-28.65851 -15.17894,-39.89836 -9.10455,-10.71262 -13.65823,-12.06355 -25.7835,-19.42328 -6.20385,-2.30102 -12.23406,-5.13946 -18.61153,-6.90305 -16.02622,-4.43178 -32.60871,-6.11654 -49.195859,-6.1601 -22.09391,-0.058 -40.49913,2.14872 -62.16781,6.96801 -11.26578,2.5056 -22.2619101,6.09846 -33.3928601,9.1477 -33.3983599,10.85885 -65.2603399,25.79601 -95.2034199,44.1171 -9.253431,5.66184 -18.069451,12.00937 -27.104181,18.01405 -0.0621,0.0468 -0.26874,-0.22756 -0.20666,-0.27432 l 0,0 c 9.04116,-6.00919 17.86345,-12.36146 27.123481,-18.02757 29.96535,-18.33549 61.85114,-33.28446 95.2744299,-44.15241 11.14035,-3.05217 22.1662701,-6.55788 33.4210601,-9.1565 18.58075,-4.29011 43.38009,-8.1706 62.57945,-9.25723 16.943349,-0.95894 34.571509,-0.38669 51.243869,3.19854 6.94685,1.49385 13.5728,4.21197 20.3592,6.31796 13.74189,7.66127 19.08772,8.95082 29.29176,20.95161 10.68839,12.57044 15.60321,28.66333 15.87864,44.96053 0.0953,5.6369 -0.83663,11.24433 -1.25494,16.8665 -1.32852,5.82608 -2.28776,11.74887 -3.98554,17.47824 -7.83616,26.44413 -22.58488,51.36063 -39.95253,72.61705 -4.9118,6.0116 -10.33665,11.58508 -15.50497,17.37762 -15.64885,14.6727 -19.08551,18.95105 -36.80512,31.29911 -20.094289,14.00289 -42.171279,25.23903 -65.560939,32.58993 -7.52092,2.36367 -15.27834,3.89575 -22.91752,5.84362 -7.66795,0.96757 -15.2907301,2.41148 -23.0038601,2.90269 -25.9469199,1.65243 -53.5500099,-2.43114 -75.2966899,-17.63139 -4.69301,-3.28027 -8.63787,-7.51833 -12.9568,-11.2775 -9.0606,-12.27657 -11.99833,-14.15672 -16.713531,-28.93178 -5.5383,-17.35426 -5.10583,-35.87387 -1.91542,-53.60072 1.17472,-6.52709 3.08395,-12.90041 4.62592,-19.35062 2.204511,-6.60171 4.130921,-13.3029 6.613531,-19.80514 10.13132,-26.53508 24.52878,-51.69545 42.15892,-73.96122 4.15962,-5.25334 8.75865,-10.14329 13.13797,-15.21493 4.575,-4.50634 8.97507,-9.19746 13.725,-13.51902 20.4792199,-18.63228 44.34973,-33.02908 69.93216,-43.48073 4.18968,-1.59123 8.349,-3.26481 12.56904,-4.77367 13.04586,-4.66451 26.4472,-8.23789 39.91028,-11.463207 3.547529,-0.71271 6.697329,14.965327 3.14979,15.678037 z"
       id="path5150"
       style="fill:#000000;fill-opacity:1;fill-rule:nonzero;stroke:none" />
    <path
       style="fill:#ffed00;fill-opacity:1;fill-rule:nonzero;stroke:none"
       d="m -15.759786,404.71048 c -24.192383,-1.96885 -45.117668,-10.20151 -59.760253,-23.51152 -4.576689,-4.16018 -12.384491,-13.84122 -15.231449,-18.88574 -6.384937,-11.31349 -9.699362,-25.63176 -9.695482,-41.88436 0.003,-10.60168 0.582311,-15.93231 3.036049,-27.91424 6.779435,-33.10488 23.472407,-67.93892 46.430716,-96.88926 9.990317,-12.59774 27.181581,-30.06913 31.266417,-31.77589 5.47552,-2.28782 18.0824687,-6.39244 29.754186,-9.68749 17.062239,-4.81685 18.011544,-5.05137 29.056255,-7.17839 19.76069,-3.80556 33.018761,-5.10417 52.333741,-5.12603 24.692206,-0.028 43.310276,2.87146 60.386216,9.40399 8.44961,3.23247 10.5498,4.30548 19.63714,10.03288 14.86636,9.36969 24.71636,23.85681 28.64794,42.13461 1.75646,8.16575 1.6237,22.10558 -0.31093,32.64796 -4.51383,24.59718 -14.18934,46.83946 -30.85519,70.93064 -13.46954,19.47075 -34.00052,40.76625 -52.72569,54.68902 -26.143252,19.43836 -53.696109,32.47598 -82.013685,38.80771 -18.602557,4.15948 -34.2945845,5.48069 -49.955981,4.20611 z"
       id="path3879"
       inkscape:connector-curvature="0" />
  </g>
</svg>
