<svg id="Layer_5" enable-background="new 0 0 64 64" height="512" viewBox="0 0 64 64" width="512" xmlns="http://www.w3.org/2000/svg"><path d="m19 5h2v2h-2z"/><path d="m15 5h2v2h-2z"/><path d="m11 5h2v2h-2z"/><path d="m7 37h18c1.103 0 2-.897 2-2v-20c0-1.103-.897-2-2-2h-18c-1.103 0-2 .897-2 2v20c0 1.103.897 2 2 2zm0-2v-9h3.566l2.126-3.544 2.897 9.657 4.891-6.113h4.52l.001 9zm18-20 .001 9h-5.481l-3.109 3.887-3.103-10.343-3.874 6.456h-2.434v-9z"/><path d="m12 43h8v2h-8z"/><path d="m60.465 27c-3.062 0-5.721 2.18-6.321 5.182l-.839 4.193-.305-.611v-12.764h4v-18.414l-1.172-1.172c-1.556-1.557-3.626-2.414-5.828-2.414s-4.272.857-5.828 2.414l-1.172 1.172v18.414h4v2.184c-.314-.112-.648-.184-1-.184-1.383 0-2.538.945-2.884 2.22-.346-.139-.721-.22-1.116-.22-1.383 0-2.538.945-2.884 2.22-.346-.139-.721-.22-1.116-.22-1.654 0-3 1.346-3 3v8.056c0 .772.183 1.546.528 2.236l1.472 2.944v1.764h-2v10h11v3c0 .552-.449 1-1 1h-11c-.551 0-1-.448-1-1v-6c0-1.654-1.346-3-3-3h-4c-1.654 0-3 1.346-3 3v6c0 .552-.449 1-1 1h-4c-.551 0-1-.448-1-1v-7h3v-4h6c2.757 0 5-2.243 5-5v-38c0-2.757-2.243-5-5-5h-20c-2.757 0-5 2.243-5 5v38c0 2.757 2.243 5 5 5h6v4h3v7c0 1.654 1.346 3 3 3h4c1.654 0 3-1.346 3-3v-6c0-.552.449-1 1-1h4c.551 0 1 .448 1 1v6c0 1.654 1.346 3 3 3h11c1.654 0 3-1.346 3-3v-3h11v-10h-2v-1.667l2.163-2.884c.521-.694.854-1.517.961-2.379l.708-5.671c.085-.681.332-1.343.713-1.914l1.029-1.544c.279-.418.426-.904.426-1.406 0-1.397-1.137-2.535-2.535-2.535zm-31.465 12h-26v-28h26zm-23-36h20c1.654 0 3 1.346 3 3v3h-26v-3c0-1.654 1.346-3 3-3zm-3 41v-3h26v3c0 1.654-1.346 3-3 3h-20c-1.654 0-3-1.346-3-3zm11 5h4v2h-4zm41-34h-10v-6h10zm-9.414-10.172c1.179-1.179 2.746-1.828 4.414-1.828s3.235.649 4.414 1.828l.586.586v1.586h-10v-1.586zm-.586 12.172h10v4h-10zm12 38h-20v-6h20zm3.91-25.168-1.028 1.544c-.553.827-.91 1.787-1.034 2.775l-.708 5.671c-.065.517-.264 1.011-.577 1.428l-2.563 3.417v2.333h-16v-2.236l-1.683-3.366c-.208-.415-.317-.879-.317-1.342v-8.056c0-.552.449-1 1-1s1 .448 1 1v2h2v-2-2c0-.552.449-1 1-1s1 .448 1 1v4h2v-4-2c0-.552.449-1 1-1s1 .448 1 1v6h2v-6-5h2v13.236l1.382 2.764h2.438l1.285-6.426c.414-2.071 2.248-3.574 4.36-3.574.295 0 .535.24.535.535 0 .107-.031.209-.09.297z"/><path d="m47 11h2v2h-2z"/><path d="m51 11h2v2h-2z"/></svg>