<?xml version="1.0" standalone="no"?>
<!DOCTYPE svg PUBLIC "-//W3C//DTD SVG 20010904//EN"
 "http://www.w3.org/TR/2001/REC-SVG-20010904/DTD/svg10.dtd">
<svg version="1.0" xmlns="http://www.w3.org/2000/svg"
 width="1280.000000pt" height="1161.000000pt" viewBox="0 0 1280.000000 1161.000000"
 preserveAspectRatio="xMidYMid meet">
<metadata>
Created by potrace 1.15, written by Peter Selinger 2001-2017
</metadata>
<g transform="translate(0.000000,1161.000000) scale(0.100000,-0.100000)"
fill="#9e9e9e" stroke="none">
<path d="M9556 11595 c-4 -11 -21 -15 -61 -15 l-55 0 0 -220 c0 -137 -4 -220
-10 -220 -6 0 -11 70 -12 178 l-3 177 -106 3 -106 3 -7 -95 c-4 -52 -4 -133 0
-180 5 -62 4 -86 -5 -86 -6 0 -11 -4 -11 -10 0 -6 102 -10 285 -10 183 0 285
4 285 10 0 6 -10 10 -21 10 -21 0 -22 2 -15 105 4 58 4 157 0 220 l-7 115 -49
0 c-34 0 -50 4 -54 15 -4 8 -14 15 -24 15 -10 0 -20 -7 -24 -15z"/>
<path d="M8795 11554 c-49 -20 -130 -52 -180 -71 -103 -40 -120 -52 -135 -99
-23 -69 31 -144 102 -144 40 0 389 139 419 167 34 31 43 75 25 117 -31 76 -94
83 -231 30z"/>
<path d="M3070 11549 c-35 -15 -59 -39 -81 -81 -36 -70 -16 -147 58 -228 40
-45 168 -140 188 -140 19 0 150 97 189 141 46 51 76 112 76 159 0 72 -78 160
-142 160 -28 0 -78 -19 -109 -41 -13 -10 -22 -7 -46 10 -35 26 -97 35 -133 20z"/>
<path d="M3764 11526 c-47 -21 -86 -78 -92 -135 -8 -86 56 -175 192 -270 33
-23 65 -41 71 -41 6 0 47 26 91 58 114 84 157 139 170 220 8 51 -24 122 -69
154 -44 32 -114 31 -157 -1 l-32 -23 -48 26 c-53 29 -80 32 -126 12z"/>
<path d="M9912 11478 c-16 -16 -15 -28 3 -48 13 -14 16 -56 18 -233 2 -195 4
-217 21 -236 26 -29 96 -29 122 0 17 19 19 41 22 237 3 185 6 219 20 235 12
14 14 22 6 35 -9 14 -30 18 -105 20 -65 2 -98 -1 -107 -10z"/>
<path d="M2464 11401 c-39 -24 -70 -63 -84 -107 -15 -44 7 -115 54 -174 36
-46 183 -159 206 -160 8 0 54 29 102 65 163 123 206 244 119 338 -56 62 -110
71 -178 32 l-43 -24 -42 24 c-52 30 -92 31 -134 6z"/>
<path d="M10406 11375 c-83 -29 -136 -109 -136 -205 0 -128 86 -214 215 -214
117 -1 205 79 213 194 6 80 -17 139 -71 185 -63 54 -141 69 -221 40z"/>
<path d="M2060 11336 c-135 -49 -280 -105 -315 -122 -69 -32 -88 -123 -36
-174 36 -37 74 -46 120 -30 68 24 316 122 349 137 76 36 82 155 10 190 -45 22
-64 22 -128 -1z"/>
<path d="M4357 11354 c-4 -4 -7 -25 -7 -46 0 -27 -4 -38 -15 -38 -26 0 -34
-35 -40 -171 -6 -118 -4 -138 12 -169 19 -37 19 -37 120 -39 l42 -1 4 -47 3
-48 2 48 2 47 38 1 c20 1 48 1 62 0 14 -1 31 3 39 8 22 14 29 88 19 204 -5 60
-7 114 -5 121 6 16 -12 46 -28 46 -9 0 -15 14 -17 43 l-3 42 -111 3 c-60 1
-113 -1 -117 -4z m163 -44 c0 -5 -22 -10 -50 -10 -27 0 -50 5 -50 10 0 6 23
10 50 10 28 0 50 -4 50 -10z"/>
<path d="M8260 11337 c-42 -21 -52 -72 -48 -259 3 -154 5 -169 26 -197 12 -17
22 -43 22 -60 0 -32 24 -48 46 -30 8 6 14 25 14 41 0 16 9 38 20 50 19 20 20
36 20 219 0 173 -2 199 -17 217 -24 27 -53 34 -83 19z"/>
<path d="M7833 11278 c-122 -130 -187 -273 -169 -372 25 -135 239 -184 362
-83 86 71 85 190 -5 320 -35 52 -139 167 -150 167 -4 0 -21 -15 -38 -32z"/>
<path d="M4882 11258 c-19 -19 -14 -55 10 -72 12 -9 26 -16 30 -16 13 0 48 39
48 54 0 37 -61 61 -88 34z m56 -36 c3 -16 -2 -22 -17 -22 -24 0 -35 15 -27 36
9 23 40 13 44 -14z"/>
<path d="M8920 11205 c0 -10 -15 -15 -57 -17 l-58 -3 -3 -217 c-1 -134 -6
-218 -12 -218 -6 0 -10 69 -10 180 l0 181 -107 -3 -108 -3 -3 -177 c-1 -108
-6 -178 -12 -178 -6 0 -10 -7 -10 -15 0 -13 36 -15 282 -13 214 2 282 6 286
16 2 6 -4 12 -15 12 -17 0 -18 11 -15 187 2 104 1 203 -3 220 -6 32 -8 33 -54
33 -34 0 -51 5 -55 15 -7 19 -46 20 -46 0z"/>
<path d="M3547 11203 c-3 -4 -6 -64 -6 -132 l-2 -124 -59 -63 c-32 -35 -61
-72 -65 -84 -4 -12 -12 -19 -18 -16 -7 3 -20 9 -29 12 -11 4 -18 19 -20 48
l-3 41 -112 3 -113 3 0 -45 c0 -38 -3 -45 -24 -50 -22 -5 -25 -13 -33 -83 -13
-128 -10 -224 10 -261 15 -28 23 -33 50 -32 18 1 49 2 69 1 37 -1 37 -1 41
-48 l3 -48 2 48 2 47 43 1 c129 3 131 5 122 173 -7 113 -6 119 12 112 51 -20
141 -28 268 -23 144 5 191 15 202 43 9 25 -30 95 -90 161 l-55 59 -4 130 -3
129 -92 3 c-50 1 -94 -1 -96 -5z m-267 -363 c0 -5 -22 -10 -50 -10 -27 0 -50
5 -50 10 0 6 23 10 50 10 28 0 50 -4 50 -10z"/>
<path d="M4904 11083 c3 -42 6 -87 6 -100 0 -22 4 -23 63 -23 l63 0 43 -75
c23 -41 45 -75 49 -75 11 1 42 26 42 35 0 4 -9 5 -19 2 -16 -4 -28 9 -61 64
l-41 69 -59 0 -60 0 0 90 c0 77 -2 90 -16 90 -15 0 -16 -10 -10 -77z"/>
<path d="M10955 11139 c-45 -13 -105 -67 -126 -113 -35 -77 -20 -186 34 -245
30 -32 114 -71 156 -71 87 0 175 56 206 132 71 178 -86 351 -270 297z"/>
<path d="M2188 11089 c-21 -12 -24 -59 -6 -77 7 -7 21 -12 33 -12 12 0 26 5
33 12 19 19 15 66 -7 78 -24 12 -31 12 -53 -1z m50 -42 c4 -20 -25 -34 -40
-19 -15 15 -1 44 19 40 10 -2 19 -11 21 -21z"/>
<path d="M1337 11044 c-12 -12 -8 -41 8 -54 12 -10 15 -48 15 -227 0 -214 0
-214 25 -238 15 -16 36 -25 55 -25 19 0 40 9 55 25 25 24 25 24 25 238 0 182
2 217 15 227 9 7 15 23 13 34 -3 19 -10 21 -104 24 -55 1 -103 0 -107 -4z"/>
<path d="M4857 10991 c-33 -40 -37 -109 -8 -157 38 -63 139 -82 200 -37 30 23
38 43 17 43 -9 0 -16 -4 -16 -9 0 -5 -16 -16 -36 -26 -50 -24 -95 -13 -134 32
-28 32 -32 41 -27 80 2 24 12 52 22 63 9 10 15 24 13 31 -2 7 -15 -2 -31 -20z"/>
<path d="M2202 10883 l3 -98 65 -3 65 -3 43 -74 c43 -74 44 -74 68 -59 26 18
24 35 -4 28 -13 -4 -26 11 -54 59 l-37 64 -56 6 c-32 3 -59 8 -62 11 -3 2 -7
41 -10 85 -8 114 -24 101 -21 -16z"/>
<path d="M9385 10955 c-40 -39 -33 -73 25 -130 l49 -48 -49 -54 c-57 -62 -63
-91 -25 -128 37 -38 69 -32 128 24 l52 49 53 -49 c61 -56 90 -62 127 -24 39
38 32 69 -26 131 l-52 54 52 54 c57 61 62 85 26 121 -38 39 -69 32 -131 -26
l-54 -52 -54 52 c-61 57 -85 62 -121 26z"/>
<path d="M11379 10951 l-29 -29 0 -190 c0 -174 2 -191 20 -215 11 -14 20 -35
20 -47 0 -30 18 -60 36 -60 15 0 37 46 31 64 -3 6 5 21 17 34 20 22 21 36 24
218 l3 194 -30 30 c-37 38 -55 38 -92 1z"/>
<path d="M5267 10963 c-4 -3 -7 -62 -7 -131 l0 -124 -55 -60 c-62 -67 -98
-129 -93 -161 5 -33 78 -48 248 -48 149 -1 218 10 240 36 18 21 -25 105 -89
174 l-49 53 -3 122 c-1 66 -7 127 -12 134 -10 13 -168 18 -180 5z"/>
<path d="M7363 10822 c-45 -60 -97 -119 -117 -133 -20 -13 -36 -28 -36 -32 0
-5 -14 -23 -32 -40 -33 -33 -128 -173 -128 -189 0 -21 36 -20 77 2 61 32 143
111 143 137 0 15 5 20 18 17 12 -2 50 35 127 125 61 71 111 135 113 143 2 13
-34 47 -74 71 -6 4 -45 -39 -91 -101z"/>
<path d="M3962 10888 c-17 -17 -15 -47 3 -54 13 -5 15 -39 15 -223 0 -256 2
-261 80 -261 78 0 80 5 80 261 0 184 2 218 15 223 18 7 20 37 3 54 -7 7 -44
12 -98 12 -54 0 -91 -5 -98 -12z"/>
<path d="M1730 10754 l0 -126 -56 -61 c-101 -112 -118 -173 -53 -194 91 -29
397 -24 435 8 35 29 4 99 -82 189 l-42 45 -4 130 -3 130 -97 3 -98 3 0 -127z"/>
<path d="M10676 10838 c-21 -29 -20 -41 2 -61 23 -21 46 -22 66 -1 31 30 9 84
-34 84 -10 0 -26 -10 -34 -22z m52 -44 c-19 -19 -38 -11 -38 16 0 24 21 31 40
14 12 -12 12 -16 -2 -30z"/>
<path d="M2152 10815 c-32 -40 -36 -88 -13 -140 37 -83 142 -107 212 -48 39
34 26 50 -15 18 -50 -38 -108 -35 -152 9 -28 28 -34 41 -34 78 0 27 8 52 20
68 11 14 20 28 20 33 0 15 -19 6 -38 -18z"/>
<path d="M2653 10770 c-4 -14 -14 -20 -33 -20 -36 0 -57 -21 -86 -86 -14 -31
-38 -64 -63 -83 -22 -17 -43 -41 -46 -52 -10 -31 4 -77 26 -84 10 -4 19 -14
19 -24 0 -25 20 -41 50 -41 14 0 31 5 38 12 17 17 15 58 -5 81 -17 19 -17 20
4 8 13 -6 26 -22 29 -36 6 -24 8 -24 109 -22 94 2 103 0 111 -18 10 -23 58
-32 80 -14 17 14 18 60 2 78 -11 11 -10 12 0 6 7 -4 17 -18 22 -31 11 -28 19
-29 45 -10 17 12 18 27 17 152 -1 119 -3 140 -18 151 -12 9 -56 13 -136 13
-111 0 -118 1 -118 20 0 14 -7 20 -21 20 -12 0 -23 -8 -26 -20z"/>
<path d="M10143 10770 c-3 -12 -17 -23 -32 -26 -45 -9 -55 -19 -88 -84 -18
-35 -40 -68 -50 -74 -64 -35 -80 -93 -40 -141 63 -78 75 -83 115 -52 17 13 15
52 -4 71 -9 9 -11 16 -4 16 6 0 19 -14 28 -30 l17 -31 99 2 c92 2 100 0 107
-19 11 -29 45 -37 74 -18 29 19 32 51 8 80 -18 21 -18 21 5 2 12 -11 22 -25
22 -33 0 -18 35 -17 50 2 17 21 16 270 -1 291 -9 11 -40 14 -130 14 -118 0
-120 0 -129 25 -11 30 -40 33 -47 5z"/>
<path d="M11692 10699 c-34 -41 -78 -107 -99 -148 -33 -65 -38 -83 -38 -145 0
-84 22 -124 88 -158 61 -32 165 -31 230 1 71 35 102 86 102 170 0 56 -6 76
-35 130 -19 36 -69 101 -110 145 l-76 79 -62 -74z"/>
<path d="M4570 10711 c-52 -20 -139 -54 -193 -75 -79 -31 -103 -45 -118 -70
-47 -77 -1 -165 87 -166 62 0 391 131 427 170 45 50 33 124 -25 160 -45 27
-68 25 -178 -19z"/>
<path d="M10700 10651 c0 -112 -1 -111 83 -111 l52 0 39 -70 c40 -70 52 -80
74 -58 18 18 15 28 -8 25 -14 -1 -29 14 -57 63 l-38 65 -63 3 -62 3 0 89 c0
53 -4 90 -10 90 -6 0 -10 -40 -10 -99z"/>
<path d="M980 10660 c0 -16 -7 -20 -34 -20 -38 0 -57 -20 -91 -97 -10 -24 -34
-55 -54 -70 -47 -35 -51 -41 -51 -85 0 -27 6 -41 20 -50 11 -7 20 -18 20 -24
0 -17 34 -44 57 -44 11 0 28 9 38 21 16 17 17 25 8 50 -10 26 -10 29 3 19 8
-7 14 -18 14 -25 0 -7 16 -16 36 -20 52 -9 158 -4 166 9 5 7 8 5 8 -6 0 -43
63 -63 93 -30 21 24 21 41 0 64 -14 16 -14 18 -1 13 8 -3 20 -17 26 -30 8 -18
16 -23 29 -18 30 11 33 23 33 160 0 106 -3 135 -16 147 -12 13 -40 16 -140 16
-117 0 -124 1 -124 20 0 13 -7 20 -20 20 -13 0 -20 -7 -20 -20z"/>
<path d="M8597 10657 c-85 -106 -136 -181 -156 -226 -55 -128 -31 -223 68
-273 82 -42 177 -36 252 15 128 86 101 250 -69 427 l-77 80 -18 -23z"/>
<path d="M7784 10641 c-46 -28 -74 -80 -74 -135 0 -87 59 -168 186 -256 l75
-52 62 42 c174 120 236 231 185 330 -45 88 -137 116 -212 65 l-36 -24 -36 24
c-45 31 -106 33 -150 6z"/>
<path d="M9002 10628 c-17 -17 -15 -35 6 -50 15 -12 17 -35 17 -231 0 -218 0
-219 24 -238 30 -24 82 -24 112 0 24 19 24 22 27 237 3 186 6 221 20 237 12
14 14 22 6 35 -9 14 -30 18 -105 20 -65 2 -98 -1 -107 -10z"/>
<path d="M10645 10574 c-61 -94 3 -214 114 -214 48 0 111 32 111 56 0 20 -8
18 -42 -11 -44 -37 -98 -34 -144 8 -46 41 -52 98 -16 146 26 35 27 41 8 41 -7
0 -21 -12 -31 -26z"/>
<path d="M3666 10554 c-23 -23 -20 -51 9 -70 23 -15 27 -15 50 0 27 18 31 36
15 67 -13 23 -53 25 -74 3z m54 -19 c15 -17 5 -35 -20 -35 -22 0 -33 23 -17
39 15 15 22 14 37 -4z"/>
<path d="M4870 10483 c-30 -43 -94 -118 -144 -168 -91 -92 -186 -223 -186
-256 0 -29 31 -23 96 19 62 40 124 103 124 126 0 8 6 13 14 12 8 0 67 60 131
134 l118 134 -43 38 c-23 21 -46 38 -49 38 -4 0 -32 -35 -61 -77z"/>
<path d="M3690 10360 l0 -100 65 0 64 0 35 -62 c54 -96 51 -92 75 -79 26 14
28 35 3 27 -15 -5 -27 8 -58 64 l-39 70 -62 0 -63 0 0 90 c0 53 -4 90 -10 90
-6 0 -10 -40 -10 -100z"/>
<path d="M9478 10440 c-67 -36 -118 -119 -118 -195 0 -79 54 -164 124 -196 58
-26 141 -25 196 4 155 79 157 298 5 384 -53 30 -153 31 -207 3z"/>
<path d="M11152 10438 c-7 -7 -12 -37 -12 -70 l0 -57 -67 -3 -68 -3 -3 -77 -3
-78 70 0 70 0 3 -67 3 -68 80 0 80 0 3 68 3 67 70 0 70 0 -3 78 -3 77 -67 3
-67 3 -3 67 -3 67 -70 3 c-46 2 -74 -1 -83 -10z"/>
<path d="M5664 10430 c-27 -10 -54 -48 -54 -73 0 -10 23 -43 52 -73 l52 -55
-41 -42 c-49 -51 -65 -80 -56 -104 12 -35 36 -53 71 -53 28 0 44 9 83 48 l48
48 53 -48 c69 -61 114 -64 143 -7 19 36 12 54 -46 114 l-49 51 50 49 c58 57
65 91 25 130 -35 36 -60 31 -120 -26 l-54 -51 -61 51 c-65 55 -64 54 -96 41z"/>
<path d="M2204 10337 c-32 -45 -92 -116 -133 -157 -151 -152 -230 -280 -173
-280 48 0 210 135 199 164 -3 7 3 12 13 12 11 -1 62 50 134 133 l116 134 -22
25 c-13 13 -35 30 -49 37 -26 14 -27 13 -85 -68z"/>
<path d="M7400 10362 c0 -31 -5 -41 -24 -50 -21 -9 -25 -20 -33 -89 -13 -128
-10 -226 10 -257 16 -24 23 -26 87 -26 l70 0 2 -47 1 -48 6 45 6 45 72 3 72 3
11 34 c8 23 9 81 4 180 -7 141 -8 147 -30 157 -19 9 -24 19 -24 50 l0 38 -115
0 -115 0 0 -38z m160 -2 c0 -5 -23 -10 -51 -10 -31 0 -48 4 -44 10 3 6 26 10
51 10 24 0 44 -4 44 -10z"/>
<path d="M5418 10304 c-15 -33 -1 -58 36 -62 33 -4 56 13 56 42 0 51 -71 66
-92 20z m66 -10 c8 -21 -1 -34 -24 -34 -20 0 -30 17 -22 38 6 17 39 15 46 -4z"/>
<path d="M3641 10293 c-45 -56 -40 -129 12 -181 56 -55 150 -54 197 3 21 25 4
29 -25 6 -60 -46 -135 -33 -176 32 -24 38 -20 88 11 129 26 35 8 46 -19 11z"/>
<path d="M6895 10310 c-3 -5 -21 -10 -39 -10 -17 0 -37 -5 -44 -12 -9 -9 -12
-69 -12 -208 0 -139 3 -199 12 -208 14 -14 295 -17 316 -4 9 7 12 57 10 218
l-3 209 -42 3 c-24 2 -43 7 -43 13 0 12 -147 12 -155 -1z"/>
<path d="M12055 10255 c-25 -24 -25 -25 -25 -218 0 -177 2 -197 19 -219 11
-13 21 -40 23 -59 3 -29 7 -34 28 -34 21 0 25 5 28 35 2 19 13 45 25 58 21 23
22 32 22 217 0 191 0 194 -24 219 -31 33 -65 33 -96 1z"/>
<path d="M4220 10137 l0 -133 -46 -44 c-60 -60 -104 -127 -104 -161 0 -40 41
-51 215 -56 167 -6 259 6 275 36 13 25 -26 102 -89 172 l-49 55 -3 120 c-1 65
-5 125 -7 132 -3 8 -32 12 -98 12 l-94 0 0 -133z"/>
<path d="M10583 10240 c-4 -14 -14 -20 -33 -20 -33 0 -49 -17 -88 -95 -20 -39
-43 -68 -66 -83 -35 -21 -41 -36 -37 -87 1 -11 11 -27 22 -37 10 -9 19 -21 19
-26 0 -19 31 -42 55 -42 15 0 31 10 41 26 16 24 16 26 -5 55 -22 29 -22 30 -3
20 12 -6 23 -19 27 -30 3 -10 16 -22 28 -25 40 -11 162 -7 175 6 9 9 12 8 12
-8 0 -27 19 -44 50 -44 14 0 31 5 38 12 13 13 16 59 5 74 -5 5 0 1 9 -8 9 -10
18 -24 20 -30 3 -9 12 -8 31 5 l27 17 0 135 c0 170 4 165 -162 165 -111 0
-118 1 -118 20 0 14 -7 20 -21 20 -12 0 -23 -8 -26 -20z"/>
<path d="M1383 10230 c-4 -14 -14 -20 -33 -20 -35 0 -54 -18 -86 -84 -15 -28
-46 -69 -70 -92 -52 -48 -59 -89 -21 -126 12 -13 27 -32 32 -43 12 -24 46 -31
74 -15 24 12 28 58 9 80 -11 12 -10 12 4 1 10 -7 20 -22 24 -33 5 -18 13 -20
109 -16 95 3 103 1 111 -17 7 -14 19 -20 43 -20 44 0 60 23 44 65 -6 17 -7 28
-2 24 6 -3 14 -17 19 -30 11 -28 19 -29 45 -10 16 12 18 27 17 151 -1 84 -6
143 -12 149 -6 6 -64 12 -135 14 -115 3 -125 5 -125 23 0 26 -40 26 -47 -1z"/>
<path d="M3044 10242 c-6 -4 -13 -15 -17 -24 -3 -10 -19 -18 -39 -20 -30 -3
-37 -10 -71 -75 -23 -45 -49 -79 -67 -90 -52 -31 -64 -110 -19 -134 11 -5 19
-16 19 -24 0 -8 11 -22 25 -31 23 -15 27 -15 50 0 28 18 34 62 13 86 -11 12
-10 12 4 1 10 -7 20 -22 23 -33 6 -18 15 -19 110 -16 101 3 104 2 110 -19 7
-31 50 -41 75 -18 22 20 26 55 8 73 -7 7 -8 12 -2 12 6 0 16 -11 22 -25 12
-26 27 -31 52 -15 12 7 15 36 15 150 0 114 -3 143 -15 150 -8 5 -68 10 -133
10 -116 0 -118 0 -127 25 -10 26 -18 30 -36 17z"/>
<path d="M10018 10176 c-111 -135 -160 -254 -138 -336 17 -62 62 -107 128
-126 129 -38 263 24 293 136 16 59 -5 132 -60 218 -44 68 -140 172 -159 172
-6 0 -35 -29 -64 -64z"/>
<path d="M2494 10148 c-27 -40 -91 -116 -142 -168 -90 -91 -192 -227 -192
-255 0 -25 20 -27 65 -5 57 28 143 105 151 135 3 13 11 22 18 19 12 -4 246
258 246 276 0 10 -77 70 -90 70 -3 0 -29 -33 -56 -72z"/>
<path d="M5450 10120 l0 -100 64 0 64 0 42 -72 c24 -40 44 -74 46 -76 1 -2 11
3 23 10 27 17 29 43 3 29 -16 -9 -24 -1 -58 59 l-39 70 -62 0 -63 0 0 90 c0
53 -4 90 -10 90 -6 0 -10 -40 -10 -100z"/>
<path d="M8198 10193 c-8 -10 -35 -48 -61 -84 -25 -36 -71 -89 -101 -117 -31
-28 -56 -53 -56 -57 0 -3 -11 -16 -25 -28 -35 -32 -125 -167 -125 -189 0 -29
39 -22 97 17 61 41 123 102 123 122 0 7 6 13 14 13 8 0 67 61 132 136 l118
137 -39 33 c-44 39 -56 41 -77 17z"/>
<path d="M4965 10129 c-205 -78 -235 -100 -235 -170 0 -56 51 -109 104 -109
54 0 411 145 436 177 52 66 -3 174 -86 172 -22 0 -116 -30 -219 -70z"/>
<path d="M571 10153 c-37 -19 -78 -73 -87 -119 -15 -76 41 -169 153 -252 109
-82 104 -81 170 -37 211 140 263 300 130 399 -40 29 -112 28 -154 -2 l-31 -22
-48 25 c-55 29 -86 31 -133 8z"/>
<path d="M11610 10017 l0 -133 -46 -44 c-59 -59 -106 -133 -102 -162 5 -40 49
-51 208 -56 155 -4 258 8 276 34 22 29 -14 100 -91 183 l-43 46 -4 130 -3 130
-97 3 -98 3 0 -134z"/>
<path d="M5408 10062 c-56 -64 -48 -149 18 -201 51 -40 138 -36 179 9 26 28
11 36 -22 13 -42 -30 -78 -35 -118 -19 -71 30 -93 114 -45 178 22 30 12 48
-12 20z"/>
<path d="M8486 10003 c-186 -220 -205 -387 -54 -464 57 -29 164 -26 227 6 66
33 94 74 99 146 5 69 -7 109 -57 186 -37 57 -147 183 -160 183 -4 0 -29 -26
-55 -57z"/>
<path d="M2580 9962 c-44 -35 1 -99 55 -79 24 10 30 55 10 77 -22 25 -37 25
-65 2z m56 -23 c3 -6 -1 -18 -9 -27 -13 -12 -19 -13 -31 -3 -8 7 -12 19 -9 27
6 17 39 19 49 3z"/>
<path d="M8949 9961 c-23 -19 -24 -24 -24 -161 0 -129 2 -143 19 -156 16 -11
62 -14 211 -14 173 0 194 2 208 18 14 15 17 42 17 155 0 184 9 177 -230 177
-160 0 -180 -2 -201 -19z"/>
<path d="M12320 9960 c-24 -24 -24 -29 -4 -58 27 -39 84 -23 84 23 0 23 -28
55 -48 55 -7 0 -21 -9 -32 -20z m55 -35 c0 -30 -39 -27 -43 3 -3 20 0 23 20
20 15 -2 23 -10 23 -23z"/>
<path d="M3532 9934 c-21 -14 -22 -22 -22 -158 0 -126 2 -145 18 -159 16 -15
46 -17 209 -17 171 0 192 2 206 18 14 15 17 42 17 160 0 183 15 172 -225 172
-147 0 -185 -3 -203 -16z"/>
<path d="M5977 9943 c-4 -3 -7 -35 -7 -70 l0 -63 -70 0 -70 0 0 -80 0 -80 70
0 70 0 0 -70 0 -70 80 0 80 0 0 70 0 70 69 0 c46 0 70 4 74 13 2 6 4 37 4 67
0 30 -2 61 -4 68 -4 8 -28 12 -74 12 l-69 0 0 70 0 70 -73 0 c-41 0 -77 -3
-80 -7z"/>
<path d="M9578 9919 c-22 -12 -23 -33 -3 -52 11 -12 15 -57 17 -231 l3 -215
-75 -3 -75 -3 -3 -129 -3 -129 -55 -59 c-87 -94 -115 -166 -74 -188 10 -6 67
-15 125 -22 112 -12 282 -1 324 21 44 24 17 95 -75 191 l-43 45 -3 118 -3 117
41 0 c72 0 74 6 74 251 0 202 1 216 20 232 25 21 26 43 1 57 -25 13 -171 13
-193 -1z"/>
<path d="M6460 9860 c0 -34 -4 -42 -24 -50 -20 -7 -26 -18 -32 -67 -5 -32 -8
-102 -9 -155 0 -83 3 -100 21 -125 14 -18 31 -28 50 -29 16 -1 46 -2 66 -3 37
-1 37 -1 41 -48 l3 -48 2 48 2 47 38 1 c35 2 53 3 94 7 30 3 39 59 33 197 -8
162 -10 175 -35 175 -17 0 -20 7 -20 45 l0 45 -115 0 -115 0 0 -40z m160 -5
c0 -11 -12 -15 -44 -15 -43 0 -63 10 -49 24 3 3 26 6 50 6 32 0 43 -4 43 -15z"/>
<path d="M11105 9860 c-3 -5 -19 -10 -35 -10 -57 0 -60 -12 -60 -225 0 -163 3
-196 16 -209 13 -13 42 -16 158 -16 97 0 146 4 154 12 17 17 17 409 0 426 -7
7 -27 12 -44 12 -18 0 -36 5 -39 10 -3 6 -37 10 -75 10 -38 0 -72 -4 -75 -10z"/>
<path d="M1876 9810 c-29 -27 -57 -50 -62 -50 -6 0 -30 20 -54 45 -52 53 -93
60 -128 22 -35 -37 -28 -65 30 -124 l52 -52 -52 -55 c-29 -31 -52 -64 -52 -76
0 -25 51 -80 75 -80 9 0 42 24 73 54 l57 55 52 -50 c59 -56 96 -64 131 -26 37
39 29 74 -29 130 l-50 48 50 54 c61 64 65 92 20 129 -17 14 -37 26 -45 26 -9
0 -39 -22 -68 -50z"/>
<path d="M2600 9760 l0 -99 67 -3 67 -3 37 -65 c41 -70 52 -79 74 -60 21 17
19 32 -4 25 -15 -4 -26 7 -57 60 -31 53 -43 65 -64 65 -14 0 -42 3 -62 6 l-38
7 0 83 c0 49 -4 84 -10 84 -6 0 -10 -40 -10 -100z"/>
<path d="M12340 9760 l0 -100 68 0 67 0 39 -70 c22 -39 44 -70 49 -70 4 0 17
5 28 11 23 12 17 29 -9 23 -13 -4 -27 11 -56 60 -37 64 -39 66 -79 66 -86 0
-87 2 -87 96 0 49 -4 84 -10 84 -6 0 -10 -40 -10 -100z"/>
<path d="M7470 9720 l0 -70 -70 0 -71 0 3 -77 3 -78 67 -3 67 -3 3 -67 3 -67
78 -3 77 -3 0 71 0 70 70 0 c80 0 84 4 78 101 l-3 54 -70 5 -70 5 -3 68 -3 67
-79 0 -80 0 0 -70z"/>
<path d="M5572 9716 l-57 -55 -52 50 c-59 56 -96 64 -131 26 -36 -38 -29 -73
28 -130 l50 -50 -50 -53 c-48 -51 -57 -74 -44 -109 7 -16 54 -45 74 -45 6 0
35 23 64 50 29 28 57 50 62 50 6 0 30 -20 54 -45 54 -55 96 -61 129 -19 31 40
26 60 -30 120 l-52 54 52 54 c56 61 62 83 29 120 -43 46 -62 43 -126 -18z"/>
<path d="M1025 9750 c-4 -6 -5 -36 -4 -68 l3 -57 -70 -5 -69 -5 0 -75 0 -75
70 -3 70 -3 -3 -57 c-5 -76 5 -84 95 -80 l68 3 3 67 3 67 67 3 67 3 3 78 3 77
-71 0 -70 0 0 70 0 70 -79 0 c-44 0 -83 -5 -86 -10z"/>
<path d="M6967 9744 c-4 -4 -7 -36 -7 -70 l0 -63 -67 -3 -68 -3 -3 -77 -3 -78
71 0 70 0 0 -70 0 -70 80 0 79 0 3 68 3 67 70 5 70 5 3 54 c6 97 2 101 -78
101 l-69 0 -3 68 -3 67 -70 3 c-39 1 -74 0 -78 -4z"/>
<path d="M2551 9696 c-72 -77 -6 -219 102 -219 46 0 105 25 114 49 10 27 -6
27 -37 0 -104 -87 -243 51 -159 158 25 32 9 42 -20 12z"/>
<path d="M5030 9711 c0 -6 -23 -11 -52 -13 -50 -3 -52 -4 -61 -37 -5 -19 -7
-117 -5 -218 2 -117 -1 -183 -7 -183 -6 0 -9 52 -7 142 2 79 0 158 -3 176 l-6
33 -107 -3 -107 -3 -3 -170 c-1 -93 -7 -174 -12 -179 -6 -6 -10 -14 -10 -18 0
-4 128 -8 285 -8 247 0 285 2 285 15 0 8 -7 15 -15 15 -12 0 -15 33 -17 218
l-3 217 -52 3 c-29 2 -53 7 -53 13 0 5 -11 9 -25 9 -14 0 -25 -4 -25 -9z"/>
<path d="M12297 9702 c-64 -70 -34 -182 57 -217 52 -20 110 -9 145 29 31 33 9
43 -25 11 -42 -39 -106 -35 -150 9 -29 29 -34 41 -34 79 0 29 7 53 20 70 11
14 20 28 20 31 0 12 -17 6 -33 -12z"/>
<path d="M10414 9668 c-67 -59 -79 -120 -40 -203 28 -60 84 -118 176 -180 l68
-47 86 61 c190 137 228 267 110 371 -34 29 -42 32 -89 28 -30 -3 -64 -13 -81
-25 l-29 -21 -35 24 c-53 37 -119 33 -166 -8z"/>
<path d="M335 9666 c-39 -17 -80 -65 -95 -110 -26 -79 31 -177 157 -271 48
-36 95 -65 103 -65 8 0 53 29 101 64 126 93 185 193 159 272 -22 66 -89 124
-143 124 -13 0 -45 -11 -71 -25 l-46 -24 -46 24 c-53 28 -75 30 -119 11z"/>
<path d="M2967 9632 c-14 -15 -17 -42 -17 -160 0 -183 -15 -172 227 -172 236
0 223 -11 223 178 0 122 -2 141 -18 155 -16 15 -46 17 -209 17 -171 0 -192 -2
-206 -18z"/>
<path d="M8190 9643 c-8 -3 -36 -26 -62 -51 l-47 -45 -39 31 c-21 17 -45 38
-52 47 -30 36 -103 7 -116 -47 -5 -23 2 -35 46 -82 l52 -55 -46 -54 c-50 -59
-57 -91 -28 -128 32 -39 75 -30 132 26 l48 48 29 -21 c15 -11 39 -32 52 -46
43 -46 112 -26 127 36 5 23 -2 35 -46 82 l-52 55 31 39 c16 21 37 45 46 52 47
39 -16 134 -75 113z"/>
<path d="M12090 9560 c-24 -24 -24 -29 -4 -58 17 -24 53 -29 72 -10 19 19 14
55 -10 72 -29 20 -34 20 -58 -4z m58 -33 c4 -20 -25 -34 -40 -19 -15 15 -1 44
19 40 10 -2 19 -11 21 -21z"/>
<path d="M4125 9535 c-36 -35 -31 -60 25 -119 28 -29 50 -56 50 -59 0 -4 -22
-32 -50 -62 -27 -30 -50 -62 -50 -71 0 -23 55 -74 80 -74 12 0 45 23 76 51
l54 52 54 -52 c60 -56 80 -61 120 -30 43 34 36 75 -24 134 l-49 48 49 54 c57
62 64 97 27 131 -38 36 -71 28 -130 -27 l-52 -49 -52 49 c-59 56 -91 62 -128
24z"/>
<path d="M2225 9489 c-44 -17 -127 -49 -185 -71 -58 -23 -117 -52 -132 -66
-34 -31 -45 -80 -26 -118 19 -41 76 -77 111 -70 50 10 392 147 410 165 41 39
38 118 -6 159 -38 36 -82 36 -172 1z"/>
<path d="M10075 9475 c-5 -2 -26 -6 -46 -9 -20 -4 -54 -22 -79 -43 -157 -135
-69 -383 136 -383 108 0 188 63 214 168 22 93 -28 201 -112 240 -43 20 -94 32
-113 27z"/>
<path d="M3655 9454 c-80 -44 -124 -115 -125 -202 0 -82 45 -153 124 -194 60
-31 161 -23 218 17 122 86 122 274 -1 360 -36 25 -53 30 -114 32 -52 3 -80 -1
-102 -13z"/>
<path d="M8856 9455 c-22 -23 -28 -70 -24 -189 4 -146 -4 -140 210 -144 259
-5 248 -13 248 177 0 121 -2 140 -18 154 -27 24 -392 25 -416 2z"/>
<path d="M1411 9447 c-6 -8 -8 -17 -5 -20 6 -6 -15 -12 -61 -19 -13 -2 -31
-25 -52 -70 -21 -42 -47 -78 -73 -98 -36 -29 -40 -36 -40 -77 0 -36 4 -46 20
-50 11 -3 20 -13 20 -23 0 -21 31 -50 53 -50 21 0 57 35 57 55 0 8 -9 24 -20
35 -11 11 -16 20 -12 20 12 0 42 -34 42 -48 0 -17 196 -17 203 1 3 6 6 3 6 -9
1 -22 30 -54 49 -54 7 0 12 -3 12 -6 0 -15 -76 -107 -125 -153 -30 -27 -55
-51 -55 -54 0 -2 -15 -20 -34 -40 -45 -48 -116 -157 -116 -179 0 -27 41 -22
90 11 55 37 118 98 125 122 4 10 12 19 20 19 7 0 66 61 131 136 l118 137 -31
26 c-28 24 -30 28 -17 45 16 23 20 261 4 286 -7 12 -38 16 -137 20 -123 5
-128 6 -131 28 -4 25 -24 29 -41 9z m249 -335 c0 -15 -2 -15 -10 -2 -13 20
-13 33 0 25 6 -3 10 -14 10 -23z"/>
<path d="M11635 9450 c-3 -5 -19 -10 -36 -10 -16 0 -38 -9 -49 -20 -19 -19
-20 -33 -20 -203 0 -242 -12 -227 175 -227 117 0 146 3 159 16 13 13 16 46 16
208 0 174 -2 195 -18 209 -10 10 -33 17 -50 17 -17 0 -34 5 -37 10 -3 6 -35
10 -70 10 -35 0 -67 -4 -70 -10z"/>
<path d="M12110 9360 l0 -100 68 0 67 0 43 -75 42 -75 25 16 c27 18 25 35 -3
28 -13 -4 -27 11 -55 60 l-38 65 -62 3 -62 3 -3 88 c-4 121 -22 111 -22 -13z"/>
<path d="M12506 9378 c-13 -19 -14 -25 -2 -43 26 -40 86 -27 86 19 0 47 -57
63 -84 24z m62 -21 c4 -20 -25 -34 -40 -19 -15 15 -1 44 19 40 10 -2 19 -11
21 -21z"/>
<path d="M5812 9351 c-35 -23 -68 -70 -77 -113 -17 -76 64 -194 194 -283 l69
-47 74 50 c167 116 225 225 172 327 -43 83 -135 110 -208 60 l-37 -25 -29 21
c-42 31 -116 36 -158 10z"/>
<path d="M2540 9290 l0 -70 -70 0 -71 0 3 -77 3 -78 67 -3 67 -3 3 -67 3 -67
68 -3 c87 -4 97 4 97 79 l0 58 68 3 67 3 3 78 3 77 -70 0 -70 0 -3 68 -3 67
-82 3 -83 3 0 -71z"/>
<path d="M6396 9324 c-39 -40 -34 -67 25 -130 l52 -54 -52 -54 c-28 -30 -51
-60 -51 -66 0 -20 29 -67 45 -74 37 -14 61 -4 112 46 l52 52 55 -52 c60 -57
80 -62 120 -31 43 34 36 75 -24 134 l-49 49 49 52 c57 60 63 92 25 129 -38 39
-70 33 -128 -25 l-50 -50 -53 50 c-61 58 -89 63 -128 24z"/>
<path d="M11215 9320 c-40 -45 20 -105 65 -65 25 23 25 47 2 68 -24 22 -45 21
-67 -3z m55 -30 c0 -27 -19 -35 -38 -17 -12 13 -13 19 -3 31 16 19 41 10 41
-14z"/>
<path d="M8495 9320 c-3 -5 -19 -10 -35 -10 -57 0 -60 -12 -60 -224 0 -174 2
-195 18 -209 15 -14 42 -17 160 -17 183 0 172 -15 172 225 0 206 -6 225 -65
225 -19 0 -37 5 -40 10 -3 6 -37 10 -75 10 -38 0 -72 -4 -75 -10z"/>
<path d="M12061 9294 c-60 -77 -14 -197 84 -218 38 -8 92 7 121 35 34 32 18
44 -18 14 -22 -19 -41 -25 -75 -25 -38 0 -50 5 -79 34 -28 28 -34 41 -34 78 0
27 8 52 20 68 11 14 20 28 20 33 0 15 -19 6 -39 -19z"/>
<path d="M5483 9243 c-26 -38 -78 -99 -115 -136 -38 -38 -68 -71 -68 -74 0 -3
-11 -14 -24 -24 -34 -26 -126 -166 -126 -190 0 -29 39 -24 92 11 49 32 128
113 128 130 0 5 5 9 10 8 17 -4 249 265 241 279 -8 15 -72 63 -83 63 -4 0 -29
-30 -55 -67z"/>
<path d="M7174 9231 c-232 -90 -242 -95 -260 -134 -35 -73 16 -157 95 -157 21
0 94 22 167 50 235 91 254 101 269 131 38 73 -2 156 -80 164 -31 4 -73 -8
-191 -54z"/>
<path d="M12530 9190 l0 -100 68 0 67 0 43 -76 c40 -70 45 -75 63 -62 24 15
23 34 0 30 -11 -2 -29 19 -55 63 l-38 65 -58 0 -57 0 -7 38 c-3 20 -6 61 -6
90 0 28 -4 52 -10 52 -6 0 -10 -40 -10 -100z"/>
<path d="M400 9225 c0 -10 -15 -15 -57 -17 l-58 -3 -3 -217 c-3 -268 -20 -296
-24 -40 l-3 177 -105 0 -105 0 -3 -177 c-1 -108 -6 -178 -12 -178 -6 0 -10 -7
-10 -15 0 -13 36 -15 282 -13 214 2 282 6 286 16 2 7 -5 12 -16 12 -18 0 -19
7 -14 143 2 79 1 178 -3 220 l-7 77 -48 0 c-33 0 -50 5 -54 15 -7 19 -46 20
-46 0z"/>
<path d="M11234 9198 c3 -13 6 -58 6 -100 l0 -78 65 0 64 0 41 -70 c22 -38 43
-70 46 -70 3 0 14 5 25 10 25 14 25 33 0 25 -16 -5 -27 6 -58 59 -40 68 -52
76 -120 76 l-43 0 0 85 c0 72 -3 85 -16 85 -12 0 -15 -6 -10 -22z"/>
<path d="M7577 9204 c-4 -4 -7 -24 -7 -44 0 -29 -5 -39 -24 -48 -21 -9 -25
-20 -32 -89 -12 -131 -9 -215 10 -250 16 -32 18 -33 86 -33 l70 0 0 -46 c0
-29 4 -43 11 -39 6 4 9 23 7 44 l-3 36 71 3 c69 3 72 4 84 32 9 21 10 70 5
180 -7 145 -9 152 -31 162 -18 8 -24 20 -26 52 l-3 41 -106 3 c-58 1 -108 -1
-112 -4z m153 -44 c0 -5 -20 -10 -45 -10 -25 0 -45 5 -45 10 0 6 20 10 45 10
25 0 45 -4 45 -10z"/>
<path d="M10850 9180 c-48 -15 -338 -128 -358 -139 -51 -27 -69 -112 -36 -160
22 -31 77 -53 112 -45 65 16 377 146 398 165 53 50 36 147 -31 175 -38 16 -48
16 -85 4z"/>
<path d="M1004 9165 c-4 -11 -21 -15 -59 -15 l-53 0 -7 -76 c-4 -41 -6 -140
-3 -220 2 -79 1 -144 -4 -144 -4 0 -9 78 -10 173 l-3 172 -107 3 -107 3 -6
-34 c-4 -18 -5 -97 -3 -175 2 -110 0 -143 -10 -147 -7 -3 -10 -9 -7 -15 4 -6
109 -10 286 -10 241 0 279 2 279 15 0 8 -7 15 -15 15 -12 0 -15 33 -17 218
l-3 217 -50 3 c-30 2 -53 9 -58 18 -10 18 -36 18 -43 -1z"/>
<path d="M3115 9140 c-3 -5 -17 -10 -31 -10 -14 0 -34 -5 -45 -10 -18 -10 -19
-23 -19 -213 0 -145 3 -206 12 -215 8 -8 57 -12 154 -12 116 0 145 3 158 16
13 13 16 46 16 209 0 216 -3 225 -65 225 -19 0 -37 5 -40 10 -3 6 -35 10 -70
10 -35 0 -67 -4 -70 -10z"/>
<path d="M12485 9127 c-33 -51 -38 -85 -20 -132 25 -67 85 -103 151 -91 37 8
97 53 88 67 -3 5 -19 -2 -36 -16 -28 -24 -50 -30 -93 -27 -81 7 -121 104 -75
180 23 37 24 42 10 42 -5 0 -16 -10 -25 -23z"/>
<path d="M8008 9128 c-2 -7 -6 -68 -7 -134 l-3 -122 -49 -53 c-55 -59 -101
-142 -92 -166 11 -28 58 -36 223 -40 203 -5 263 6 268 50 4 34 -46 115 -108
177 l-39 39 -3 128 -3 128 -91 3 c-68 2 -93 -1 -96 -10z"/>
<path d="M4744 9050 c-60 -73 -121 -172 -134 -219 -14 -52 -12 -128 5 -160 71
-138 320 -132 393 9 44 85 13 189 -96 323 -52 65 -97 107 -111 107 -4 0 -29
-27 -57 -60z"/>
<path d="M2037 9023 c-78 -97 -114 -160 -134 -235 -19 -74 -11 -122 29 -173
53 -68 190 -87 286 -39 71 35 95 72 100 152 4 57 1 71 -31 135 -33 66 -165
227 -187 227 -4 0 -32 -30 -63 -67z"/>
<path d="M11180 9048 c-37 -61 -21 -142 36 -187 20 -15 41 -21 80 -21 45 0 59
5 86 29 42 37 30 53 -12 17 -54 -45 -143 -28 -175 34 -20 39 -19 68 5 113 23
42 24 47 10 47 -6 0 -19 -15 -30 -32z"/>
<path d="M4036 8958 c-13 -18 -16 -51 -16 -149 0 -183 -12 -174 230 -174 242
0 230 -9 230 174 0 183 16 171 -230 171 -194 0 -199 -1 -214 -22z"/>
<path d="M3607 8943 c-4 -3 -7 -35 -7 -70 l0 -63 -70 0 -71 0 3 -77 3 -78 67
-3 67 -3 3 -67 3 -67 78 -3 77 -3 0 70 0 70 73 3 72 3 0 75 0 75 -70 5 -70 5
-3 68 -3 67 -73 0 c-40 0 -76 -3 -79 -7z"/>
<path d="M12180 8940 c-47 -15 -338 -128 -358 -139 -33 -17 -62 -61 -62 -93 0
-61 53 -118 110 -118 12 0 108 34 213 75 216 84 237 99 237 170 0 34 -6 50
-29 74 -16 17 -36 31 -44 31 -9 0 -21 2 -29 4 -7 2 -24 1 -38 -4z"/>
<path d="M2578 8823 l-3 -68 -70 -5 -70 -5 -3 -54 c-6 -97 -2 -101 78 -101
l70 0 0 -70 0 -71 78 3 77 3 3 67 3 67 67 3 67 3 3 78 3 77 -71 0 -70 0 0 70
0 70 -80 0 -79 0 -3 -67z"/>
<path d="M8950 8836 c0 -38 -3 -45 -24 -50 -21 -5 -26 -14 -32 -64 -4 -31 -8
-102 -8 -157 -1 -140 9 -155 104 -155 l69 0 4 -47 3 -48 2 48 2 47 69 0 c44 0
72 5 79 13 18 22 22 86 15 222 -7 121 -10 131 -30 140 -17 7 -23 19 -25 50
l-3 40 -112 3 -113 3 0 -45z m160 -6 c0 -5 -22 -10 -50 -10 -27 0 -50 5 -50
10 0 6 23 10 50 10 28 0 50 -4 50 -10z"/>
<path d="M10922 8792 c-162 -198 -183 -364 -57 -438 108 -63 256 -32 323 66
20 30 23 45 20 100 -5 92 -44 164 -143 267 l-80 83 -63 -78z"/>
<path d="M9970 8839 c-59 -24 -100 -85 -100 -149 0 -54 20 -99 67 -151 41 -46
175 -149 193 -149 19 0 133 82 180 130 84 84 108 182 61 251 -53 78 -117 96
-192 56 l-47 -25 -48 24 c-51 26 -75 28 -114 13z"/>
<path d="M9500 8701 l0 -130 -51 -53 c-28 -29 -62 -72 -76 -95 -56 -96 -16
-117 232 -117 137 0 177 3 208 16 20 10 37 23 37 30 -1 32 -44 103 -94 156
l-54 57 -4 130 -3 130 -97 3 -98 3 0 -130z"/>
<path d="M1589 8743 c-89 -95 -152 -208 -164 -294 -15 -100 54 -182 168 -203
88 -16 207 36 243 106 25 49 22 125 -9 192 -28 60 -100 156 -159 214 l-35 33
-44 -48z"/>
<path d="M11443 8784 c-7 -4 -11 -48 -12 -137 l-1 -132 -29 -25 c-36 -31 -100
-116 -112 -148 -25 -67 35 -87 256 -86 166 1 228 14 233 49 4 29 -35 95 -95
164 l-52 59 -2 125 c-1 101 -4 127 -16 131 -17 7 -153 7 -170 0z"/>
<path d="M12525 8750 c-3 -5 -22 -10 -41 -10 -49 0 -54 -21 -54 -220 0 -93 4
-180 10 -194 l10 -26 154 0 c143 0 156 1 166 19 15 29 13 394 -2 409 -7 7 -27
12 -44 12 -18 0 -36 5 -39 10 -3 6 -39 10 -80 10 -41 0 -77 -4 -80 -10z"/>
<path d="M5110 8730 c-19 -19 -20 -33 -20 -220 0 -187 1 -201 20 -220 11 -11
20 -22 20 -25 0 -3 -46 -4 -102 -3 -98 3 -103 4 -106 26 -4 30 -30 28 -42 -3
-7 -19 -17 -25 -38 -25 -34 0 -51 -17 -85 -86 -15 -29 -44 -66 -67 -84 -36
-28 -40 -36 -40 -75 0 -34 5 -47 20 -55 11 -6 20 -17 20 -25 0 -8 11 -22 25
-31 52 -34 104 20 70 73 l-18 28 21 -19 c12 -11 22 -25 22 -33 0 -18 196 -19
203 0 3 6 6 3 6 -9 1 -11 10 -29 21 -39 42 -38 106 14 80 66 -11 23 -10 23 4
5 9 -11 16 -23 16 -28 0 -4 8 -8 19 -8 38 0 43 22 40 178 -2 126 0 152 14 172
15 21 17 53 17 222 0 185 -1 199 -20 218 -11 11 -33 20 -50 20 -17 0 -39 -9
-50 -20z"/>
<path d="M8465 8710 c-3 -5 -21 -10 -40 -10 -21 0 -35 -6 -39 -16 -12 -31 -7
-399 6 -412 8 -8 58 -12 158 -12 100 0 150 4 158 12 14 14 17 413 4 422 -5 3
-26 6 -46 8 -21 1 -40 6 -42 10 -7 12 -152 10 -159 -2z"/>
<path d="M83 8622 c-23 -14 -33 -64 -33 -162 0 -98 10 -148 33 -162 7 -4 98
-8 203 -8 172 0 193 2 207 18 14 15 17 42 17 154 0 118 -2 137 -18 151 -16 15
-46 17 -208 17 -104 0 -194 -4 -201 -8z"/>
<path d="M10473 8584 c-7 -3 -12 -47 -12 -133 l-2 -127 -50 -54 c-62 -66 -102
-132 -97 -162 5 -36 70 -50 248 -51 163 -1 236 11 247 40 9 23 -40 111 -97
175 l-49 55 -2 126 c-1 101 -4 127 -16 131 -17 7 -153 7 -170 0z"/>
<path d="M900 8499 c-232 -88 -268 -119 -240 -205 16 -46 54 -74 102 -74 43 0
389 130 421 158 9 8 22 32 28 52 20 66 -35 141 -103 140 -13 -1 -106 -32 -208
-71z"/>
<path d="M12052 8538 c-7 -7 -12 -38 -12 -70 l0 -58 -57 0 c-81 0 -84 -4 -81
-91 l3 -74 68 -3 67 -3 0 -57 c0 -32 5 -63 12 -70 12 -12 114 -17 142 -6 12 5
16 21 16 70 l0 63 68 3 67 3 3 74 c3 87 0 91 -80 91 l-58 0 0 64 c0 49 -4 65
-16 70 -28 11 -130 6 -142 -6z"/>
<path d="M7612 8508 c-17 -17 -15 -47 3 -54 13 -5 15 -39 15 -223 0 -214 0
-218 23 -239 30 -29 89 -30 117 -2 19 19 20 33 20 240 0 135 4 220 10 220 5 0
14 9 20 19 7 15 6 23 -6 35 -19 20 -183 23 -202 4z"/>
<path d="M2859 8481 c-23 -18 -24 -27 -27 -148 -3 -119 -2 -130 18 -156 l21
-27 188 0 c246 0 231 -11 231 171 0 190 14 179 -224 179 -166 0 -186 -2 -207
-19z"/>
<path d="M3937 8454 c-13 -13 -7 -52 8 -58 13 -4 15 -39 15 -225 l0 -220 26
-20 c36 -28 79 -27 109 4 25 24 25 24 25 238 0 182 2 217 15 227 9 7 15 23 13
34 -3 19 -10 21 -104 24 -55 1 -103 0 -107 -4z"/>
<path d="M4265 8425 c-36 -35 -31 -60 25 -119 28 -29 50 -57 50 -62 0 -4 -21
-29 -46 -55 -55 -56 -61 -91 -20 -126 40 -34 61 -29 122 29 l55 52 42 -41 c59
-57 81 -67 115 -51 15 7 33 25 40 40 16 34 6 56 -51 115 l-40 42 46 55 c53 61
59 94 25 126 -38 35 -77 26 -133 -30 l-49 -50 -51 50 c-59 58 -92 64 -130 25z"/>
<path d="M8051 8404 c-20 -25 -21 -40 -21 -219 0 -175 2 -195 19 -217 11 -13
21 -40 23 -59 3 -29 7 -34 28 -34 21 0 25 5 28 35 2 19 13 45 25 58 20 22 22
35 25 189 2 91 1 181 -3 200 -13 72 -84 98 -124 47z"/>
<path d="M3415 8398 c-11 -6 -23 -16 -27 -22 -4 -6 -8 -72 -8 -147 0 -119 2
-138 18 -152 27 -24 392 -25 416 -2 22 23 29 72 24 190 -5 146 5 139 -221 143
-125 1 -188 -2 -202 -10z"/>
<path d="M2333 8373 c-9 -24 -25 -34 -44 -28 -21 7 -41 -17 -74 -88 -16 -33
-41 -67 -59 -79 -41 -29 -46 -37 -46 -80 0 -24 6 -42 18 -50 9 -7 23 -25 29
-40 17 -38 65 -39 89 -3 15 23 15 27 0 50 -10 15 -12 25 -5 25 6 0 16 -13 22
-30 l11 -30 97 0 c69 0 99 4 102 13 3 6 6 2 6 -9 2 -46 70 -59 97 -19 11 17
11 25 -1 49 -13 25 -13 27 0 16 8 -6 17 -20 20 -31 8 -23 28 -24 49 -3 13 12
16 41 16 148 0 89 -4 136 -12 144 -8 8 -50 12 -124 12 -126 0 -144 4 -144 31
0 25 -38 26 -47 2z"/>
<path d="M1867 8323 c-12 -11 -8 -40 8 -53 12 -10 15 -48 15 -227 0 -214 0
-214 25 -238 30 -31 73 -32 109 -4 l26 20 0 218 c0 205 1 217 20 234 17 14 18
21 10 37 -10 18 -21 20 -109 20 -54 0 -101 -3 -104 -7z"/>
<path d="M39 8247 c-35 -26 -39 -54 -39 -240 0 -169 2 -186 20 -210 11 -14 20
-36 20 -50 0 -31 25 -58 45 -51 8 4 15 19 15 35 0 15 11 45 25 65 24 36 25 41
25 221 l0 185 -29 29 c-31 31 -56 36 -82 16z"/>
<path d="M408 8198 c-100 -118 -148 -217 -148 -307 0 -72 26 -115 90 -151 60
-33 164 -34 226 -2 128 66 146 191 49 338 -42 64 -143 174 -160 174 -7 0 -33
-24 -57 -52z"/>
<path d="M9917 8236 c-94 -35 -147 -110 -147 -210 0 -122 93 -216 215 -216
181 0 282 209 171 355 -52 67 -161 100 -239 71z"/>
<path d="M8571 8227 c-6 -8 -8 -17 -5 -20 6 -6 -15 -12 -60 -19 -13 -2 -31
-26 -52 -69 -21 -42 -48 -78 -73 -99 -37 -29 -41 -36 -41 -77 0 -36 4 -46 20
-50 11 -3 20 -14 20 -24 0 -19 35 -49 57 -49 18 0 53 37 53 55 0 8 -9 24 -20
35 -11 11 -16 20 -12 20 12 0 42 -34 42 -48 0 -17 196 -17 203 1 3 6 6 3 6 -9
1 -11 10 -29 21 -39 16 -15 26 -17 48 -9 24 9 27 15 26 53 -1 39 0 42 13 26 7
-11 13 -22 13 -27 0 -16 40 -7 50 11 13 25 13 261 0 281 -7 12 -38 16 -137 20
-123 5 -128 6 -131 28 -4 25 -24 29 -41 9z"/>
<path d="M9243 8221 c-4 -14 -15 -21 -41 -23 -33 -3 -39 -8 -71 -70 -20 -37
-56 -85 -80 -107 -39 -36 -43 -44 -37 -73 3 -18 14 -40 25 -49 10 -8 22 -25
25 -37 9 -27 46 -38 75 -22 26 13 28 56 4 83 -17 19 -17 20 4 8 12 -6 25 -20
28 -31 6 -18 15 -20 106 -20 72 0 99 3 100 13 1 6 4 -1 8 -17 8 -39 32 -53 68
-40 29 10 43 52 26 78 -4 6 1 2 12 -11 25 -28 51 -30 65 -4 5 11 10 73 10 138
0 166 3 163 -156 163 -117 0 -124 1 -124 20 0 27 -40 27 -47 1z"/>
<path d="M1232 8210 c-33 -14 -42 -49 -42 -171 0 -105 8 -144 34 -161 6 -4 95
-8 199 -8 183 0 187 0 175 -19 -10 -16 -9 -23 5 -39 15 -16 17 -45 17 -229 0
-198 1 -212 21 -237 24 -31 81 -36 117 -10 22 15 22 19 22 235 0 217 0 221 23
239 18 15 20 22 11 37 -9 15 -28 19 -104 23 -81 4 -91 7 -77 19 14 11 17 35
17 150 0 75 -4 141 -8 147 -19 28 -55 34 -219 33 -92 0 -178 -4 -191 -9z"/>
<path d="M11205 8109 l-54 -51 -54 46 c-61 52 -101 60 -132 26 -33 -36 -24
-76 30 -130 l48 -49 -47 -53 c-50 -57 -58 -92 -28 -126 9 -12 29 -24 44 -28
23 -5 35 2 82 46 61 58 66 58 125 -4 40 -41 76 -47 112 -18 39 32 30 75 -26
132 l-48 48 21 29 c11 15 32 39 46 52 36 33 35 82 0 110 -40 31 -60 26 -119
-30z"/>
<path d="M12560 8131 c-8 -17 -6 -25 10 -41 19 -19 20 -33 20 -235 0 -202 1
-216 20 -235 31 -31 93 -27 119 6 20 25 21 39 21 237 0 184 2 213 17 229 13
15 15 23 7 36 -9 14 -30 18 -107 20 -87 2 -97 1 -107 -17z"/>
<path d="M840 8087 c0 -34 -4 -44 -22 -52 -28 -13 -38 -62 -41 -207 -2 -95 0
-110 19 -135 21 -28 28 -30 116 -32 37 -1 37 -1 41 -48 l3 -48 2 48 2 47 43 1
c133 3 133 2 121 213 -9 143 -10 152 -31 161 -19 8 -23 18 -23 52 l0 43 -115
0 -115 0 0 -43z m160 -7 c0 -5 -20 -10 -44 -10 -25 0 -48 5 -51 10 -4 6 13 10
44 10 28 0 51 -4 51 -10z"/>
<path d="M11550 8058 c-83 -42 -112 -137 -69 -224 26 -56 80 -110 169 -173
l72 -50 62 41 c92 63 156 127 182 183 37 79 29 133 -28 192 -46 48 -89 59
-143 39 -24 -10 -49 -23 -55 -31 -10 -12 -17 -10 -48 10 -57 36 -90 39 -142
13z"/>
<path d="M2701 8037 c-13 -17 -6 -43 15 -51 11 -4 14 -44 14 -225 l0 -220 27
-21 c34 -27 89 -22 116 11 15 19 17 46 17 234 0 180 2 215 15 225 9 7 15 23
13 34 -3 19 -10 21 -104 24 -77 2 -104 -1 -113 -11z"/>
<path d="M12167 7984 c-4 -4 -7 -24 -7 -43 0 -28 -5 -39 -22 -46 -21 -9 -24
-19 -32 -127 -4 -64 -5 -137 -2 -161 8 -54 38 -89 74 -86 15 1 44 1 64 1 36
-2 37 -3 41 -44 l4 -43 1 43 c2 41 3 42 40 44 20 0 49 0 63 -1 14 -1 33 7 43
18 17 18 18 36 14 179 -5 163 -9 182 -33 182 -9 0 -15 14 -17 43 l-3 42 -111
3 c-60 1 -113 -1 -117 -4z m161 -36 c-3 -8 -22 -13 -48 -13 -26 0 -45 5 -47
13 -3 8 10 12 47 12 37 0 50 -4 48 -12z"/>
<path d="M3075 7955 c-38 -37 -32 -66 27 -123 l52 -50 -52 -57 c-29 -31 -52
-66 -52 -77 0 -26 53 -78 80 -78 12 0 45 23 76 52 l55 52 47 -46 c57 -55 75
-62 111 -43 59 30 55 75 -11 142 l-52 53 52 53 c59 59 66 91 29 125 -39 37
-76 29 -132 -28 l-49 -49 -52 49 c-60 57 -92 63 -129 25z"/>
<path d="M10345 7837 c-27 -39 -92 -115 -143 -167 -89 -90 -192 -229 -192
-257 0 -24 27 -25 68 -4 54 28 152 119 152 142 0 11 5 16 13 13 8 -3 61 51
132 132 l119 137 -43 39 c-24 21 -46 38 -50 38 -3 0 -28 -33 -56 -73z"/>
<path d="M3670 7769 l0 -131 -58 -62 c-32 -35 -66 -79 -76 -100 -41 -87 -8
-101 234 -101 188 0 234 8 246 40 9 24 -34 102 -92 164 l-52 57 -4 130 -3 129
-97 3 -98 3 0 -132z"/>
<path d="M7727 7870 c-4 -14 -14 -20 -35 -20 -35 0 -50 -16 -90 -95 -20 -39
-43 -68 -66 -83 -33 -20 -36 -27 -36 -67 0 -34 5 -48 20 -57 11 -7 20 -18 20
-24 0 -18 35 -44 58 -44 12 0 29 11 38 26 16 24 16 26 -5 55 -22 29 -22 30 -3
20 12 -6 23 -19 27 -30 3 -10 16 -22 28 -25 39 -10 165 -7 173 5 4 7 12 -1 20
-20 10 -24 19 -31 42 -31 15 0 33 5 40 12 16 16 15 60 0 78 -7 8 -3 6 10 -4
12 -11 22 -25 22 -33 0 -17 10 -17 38 3 21 14 22 22 22 149 0 170 4 165 -162
165 -111 0 -118 1 -118 20 0 13 -7 20 -19 20 -10 0 -21 -9 -24 -20z"/>
<path d="M10677 7828 c-105 -126 -149 -214 -151 -303 -1 -79 26 -124 96 -159
87 -44 207 -30 271 32 102 96 73 240 -81 403 -41 44 -78 79 -82 79 -5 0 -28
-24 -53 -52z"/>
<path d="M4926 7840 c-103 -33 -172 -147 -152 -253 19 -103 125 -184 230 -175
222 18 281 312 83 415 -36 18 -122 26 -161 13z"/>
<path d="M4216 7820 c-41 -13 -83 -56 -102 -105 -37 -98 31 -201 213 -326 l42
-29 68 47 c136 95 193 172 193 261 0 54 -25 100 -72 135 -37 28 -98 27 -151
-2 l-44 -24 -29 21 c-36 25 -80 33 -118 22z"/>
<path d="M2414 7795 c-4 -11 -21 -15 -59 -15 l-53 0 -7 -77 c-4 -42 -5 -141
-3 -220 3 -78 1 -143 -3 -143 -5 0 -9 74 -9 164 0 90 -3 171 -6 180 -9 24
-209 23 -218 -1 -4 -9 -6 -89 -5 -177 0 -108 -3 -162 -10 -164 -6 -2 -11 -8
-11 -13 0 -5 119 -9 285 -9 183 0 285 4 285 10 0 6 -7 10 -15 10 -13 0 -15 31
-15 220 l0 220 -55 0 c-42 0 -55 3 -55 15 0 8 -9 15 -20 15 -11 0 -23 -7 -26
-15z"/>
<path d="M9714 7775 c-5 -11 -21 -15 -59 -15 l-54 0 -6 -43 c-4 -24 -5 -123
-3 -220 2 -114 -1 -177 -7 -177 -6 0 -9 53 -7 147 2 81 1 162 -3 180 l-6 33
-103 0 c-86 0 -105 -3 -110 -16 -3 -9 -6 -89 -6 -179 0 -116 -3 -164 -12 -167
-6 -2 -8 -10 -4 -16 5 -9 81 -12 287 -12 241 0 279 2 279 15 0 8 -7 15 -15 15
-13 0 -15 31 -15 220 l0 220 -55 0 c-42 0 -55 3 -55 15 0 8 -9 15 -20 15 -11
0 -23 -7 -26 -15z"/>
<path d="M8308 7696 c-103 -40 -194 -78 -202 -85 -46 -39 -44 -124 5 -165 48
-41 84 -35 298 50 209 83 221 92 221 170 0 50 -53 104 -101 103 -19 0 -118
-33 -221 -73z"/>
<path d="M8790 7733 c-35 -12 -40 -35 -40 -173 0 -120 2 -139 18 -153 16 -15
46 -17 210 -17 l191 0 21 27 c20 26 21 37 18 156 -4 175 6 167 -227 166 -97 0
-183 -3 -191 -6z"/>
<path d="M1190 7587 l0 -133 -41 -39 c-83 -81 -127 -168 -97 -193 26 -21 160
-35 293 -29 133 5 181 15 191 42 9 24 -34 102 -92 164 l-52 57 -4 130 -3 129
-97 3 -98 3 0 -134z"/>
<path d="M312 7626 l-58 -55 -49 49 c-59 60 -100 67 -134 24 -31 -40 -26 -60
30 -119 l51 -54 -46 -52 c-59 -65 -64 -97 -20 -136 37 -34 59 -28 119 28 l54
51 52 -46 c67 -60 115 -62 144 -5 19 36 12 54 -46 114 l-49 51 50 49 c35 35
50 57 50 76 0 34 -27 66 -62 75 -24 5 -36 -2 -86 -50z"/>
<path d="M707 7613 c-4 -3 -7 -35 -7 -69 l0 -63 -67 -3 -68 -3 -3 -77 -3 -78
70 0 70 0 3 -67 3 -68 74 -3 c88 -3 92 1 89 78 l-2 55 70 5 69 5 0 75 0 75
-69 5 -69 5 0 55 c0 30 -2 61 -4 68 -5 13 -144 18 -156 5z"/>
<path d="M11125 7559 c-21 -5 -43 -15 -47 -22 -13 -21 -10 -401 4 -415 8 -8
58 -12 158 -12 100 0 150 4 158 12 9 9 12 70 12 215 l0 203 -27 11 c-39 15
-210 20 -258 8z"/>
<path d="M11613 7500 c-36 -15 -43 -43 -43 -172 0 -179 -15 -168 230 -168 246
0 230 -12 230 176 0 177 12 168 -219 171 -97 1 -186 -2 -198 -7z"/>
<path d="M3237 7483 c-4 -3 -7 -63 -7 -133 l0 -126 -46 -44 c-63 -63 -106
-132 -102 -167 3 -24 9 -30 53 -41 66 -17 380 -12 413 6 45 26 17 99 -76 200
l-40 43 -4 122 c-2 67 -7 128 -11 135 -9 13 -168 18 -180 5z"/>
<path d="M2802 7458 c-16 -16 -15 -28 3 -48 13 -14 16 -56 18 -233 2 -195 4
-217 21 -236 26 -29 96 -29 122 0 17 19 19 41 22 237 3 185 6 219 20 235 12
14 14 22 6 35 -9 14 -30 18 -105 20 -65 2 -98 -1 -107 -10z"/>
<path d="M8494 7415 c-4 -11 -21 -15 -59 -15 l-52 0 -7 -115 c-4 -63 -4 -162
0 -220 5 -75 4 -105 -4 -105 -8 0 -12 55 -14 178 l-3 177 -107 3 -107 3 -6
-45 c-4 -24 -5 -105 -4 -180 3 -105 1 -137 -9 -141 -7 -3 -10 -9 -7 -15 9 -14
562 -14 570 1 4 6 -2 13 -14 16 -21 5 -21 10 -21 224 l0 219 -55 0 c-42 0 -55
3 -55 15 0 8 -9 15 -20 15 -11 0 -23 -7 -26 -15z"/>
<path d="M10403 7386 c-5 -9 -28 -16 -63 -18 l-55 -3 -3 -217 c-1 -134 -6
-218 -12 -218 -6 0 -10 67 -10 175 l0 175 -109 0 -108 0 -7 -91 c-4 -50 -4
-128 0 -173 6 -72 4 -84 -10 -89 -10 -4 -14 -11 -11 -17 9 -14 562 -14 570 1
4 6 -3 13 -15 16 -22 6 -22 8 -16 110 4 57 4 155 0 218 l-7 115 -52 0 c-38 0
-55 4 -59 15 -7 19 -23 19 -33 1z"/>
<path d="M4967 7383 c-4 -3 -7 -23 -7 -42 0 -28 -5 -39 -22 -46 -20 -9 -24
-21 -31 -90 -4 -44 -6 -117 -5 -161 3 -92 22 -126 68 -123 14 0 42 1 63 0 l37
-1 0 -45 c0 -25 5 -45 10 -45 6 0 10 20 10 45 l0 45 38 1 c20 1 49 0 63 -1 59
-3 69 47 52 279 -6 85 -8 92 -30 97 -20 5 -23 12 -23 50 l0 44 -108 0 c-60 0
-112 -3 -115 -7z m163 -43 c0 -5 -22 -10 -50 -10 -27 0 -50 5 -50 10 0 6 23
10 50 10 28 0 50 -4 50 -10z"/>
<path d="M12359 7383 c-1 -4 0 -23 1 -40 1 -27 -3 -35 -24 -43 -32 -12 -38
-44 -40 -203 -1 -105 2 -126 18 -150 15 -22 26 -28 50 -26 17 1 48 1 68 0 37
-1 37 -1 41 -48 l3 -48 2 48 2 47 38 1 c114 4 106 2 119 39 9 24 11 65 6 130
-3 52 -7 118 -7 145 -1 41 -5 52 -23 60 -17 7 -23 19 -25 50 l-3 40 -112 3
c-62 1 -113 -1 -114 -5z m161 -43 c0 -5 -22 -10 -50 -10 -27 0 -50 5 -50 10 0
6 23 10 50 10 28 0 50 -4 50 -10z"/>
<path d="M7831 7305 l-57 -54 -49 49 c-57 58 -97 66 -133 27 -35 -37 -28 -65
30 -124 l52 -52 -52 -55 c-29 -30 -52 -63 -52 -74 0 -24 35 -69 60 -77 26 -8
74 18 107 60 15 19 33 35 38 35 6 0 31 -20 55 -45 52 -52 95 -60 130 -23 34
37 26 70 -32 126 l-52 51 52 55 c62 65 66 92 21 130 -17 14 -37 26 -46 26 -8
0 -40 -25 -72 -55z"/>
<path d="M9003 7303 c-9 -24 -23 -33 -55 -33 -24 0 -32 -9 -62 -69 -22 -43
-50 -80 -76 -101 -34 -27 -40 -37 -40 -70 0 -26 6 -43 18 -52 9 -7 23 -26 30
-41 11 -25 17 -28 49 -25 31 2 39 8 47 30 8 22 6 32 -9 48 -10 11 -14 20 -9
20 16 0 34 -23 34 -42 0 -16 10 -18 100 -18 73 0 100 3 100 13 1 6 7 -2 15
-20 15 -35 45 -49 74 -34 29 16 35 48 15 79 l-17 27 21 -19 c12 -11 22 -25 22
-33 0 -16 14 -17 41 -3 17 10 19 22 19 148 0 94 -4 142 -12 150 -8 8 -50 12
-124 12 -126 0 -144 4 -144 31 0 24 -28 25 -37 2z"/>
<path d="M1609 7281 c-22 -18 -24 -27 -27 -136 -6 -203 -16 -195 232 -195 174
0 195 2 209 18 14 15 17 42 17 153 0 74 -4 139 -8 145 -19 28 -56 34 -225 34
-157 0 -177 -2 -198 -19z"/>
<path d="M3906 7209 c-99 -38 -187 -76 -197 -85 -9 -8 -23 -29 -30 -45 -27
-66 31 -149 103 -149 32 0 385 136 412 159 79 67 34 192 -68 190 -25 0 -111
-28 -220 -70z"/>
<path d="M4528 7211 c-97 -37 -187 -75 -201 -83 -84 -56 -41 -198 61 -198 22
0 110 29 217 70 205 81 235 102 235 171 0 55 -51 109 -101 108 -19 0 -113 -31
-211 -68z"/>
<path d="M360 7181 c-210 -81 -216 -84 -235 -121 -19 -37 -19 -63 0 -100 20
-40 53 -60 95 -60 50 0 410 143 432 172 23 30 23 106 0 134 -23 29 -55 44 -89
43 -15 0 -107 -31 -203 -68z"/>
<path d="M9680 7129 c-85 -32 -172 -66 -192 -75 -114 -50 -84 -214 39 -214 28
0 370 129 410 156 32 20 49 85 33 124 -18 43 -56 70 -99 69 -20 0 -106 -27
-191 -60z"/>
<path d="M2520 7145 c0 -10 -15 -15 -57 -17 l-58 -3 -3 -217 c-1 -134 -6 -218
-12 -218 -6 0 -10 67 -10 175 l0 175 -109 0 -109 0 -7 -87 c-4 -47 -5 -125 -1
-173 6 -75 4 -89 -9 -94 -9 -3 -13 -10 -10 -16 9 -14 562 -14 570 1 4 6 -3 13
-15 16 -22 6 -22 9 -19 127 1 67 2 165 1 219 l-2 97 -54 0 c-39 0 -55 4 -60
15 -7 19 -36 20 -36 0z"/>
<path d="M11875 7038 c-99 -38 -188 -77 -199 -86 -76 -68 -34 -192 65 -192 41
0 391 130 421 157 73 65 21 195 -77 192 -16 -1 -111 -32 -210 -71z"/>
<path d="M10767 7083 c-4 -3 -7 -35 -7 -70 l0 -63 -70 0 -70 0 0 -80 0 -80 70
0 70 0 0 -70 0 -70 80 0 80 0 0 70 0 70 69 0 c78 0 81 3 81 80 0 77 -3 80 -81
80 l-69 0 0 70 0 70 -73 0 c-41 0 -77 -3 -80 -7z"/>
<path d="M675 6990 c-17 -11 -41 -38 -54 -61 -50 -89 -5 -196 122 -292 128
-97 115 -93 183 -46 124 86 204 188 204 262 0 43 -24 89 -64 125 -47 41 -114
45 -168 9 l-34 -24 -34 24 c-44 29 -112 31 -155 3z"/>
<path d="M1182 6998 c-17 -17 -15 -47 3 -54 13 -5 15 -40 15 -225 0 -206 1
-220 20 -239 14 -14 33 -20 64 -20 74 0 76 8 76 261 0 184 2 218 15 223 18 7
20 37 3 54 -7 7 -44 12 -98 12 -54 0 -91 -5 -98 -12z"/>
<path d="M11299 6937 c-61 -23 -97 -55 -125 -112 -69 -143 18 -298 175 -312
52 -5 68 -2 114 21 126 61 163 224 75 330 -56 69 -163 101 -239 73z"/>
<path d="M1820 6915 c0 -11 -13 -15 -54 -15 l-54 0 -7 -57 c-4 -32 -6 -127 -5
-213 2 -85 1 -159 -1 -165 -2 -5 -6 71 -9 170 l-5 180 -106 3 -107 3 -6 -27
c-4 -14 -6 -94 -5 -177 1 -102 -3 -153 -10 -155 -6 -2 -11 -8 -11 -13 0 -5 74
-9 171 -9 149 0 170 -2 159 -15 -7 -8 -34 -15 -63 -17 l-52 -3 -3 -215 c-1
-123 -7 -219 -12 -224 -7 -7 -10 53 -10 172 l0 182 -109 0 -109 0 -7 -106 c-4
-58 -5 -124 -2 -147 l6 -42 -22 30 c-45 61 -129 155 -148 165 -21 12 -44 -10
-121 -111 -76 -101 -113 -217 -94 -293 9 -37 56 -87 101 -107 78 -36 206 -17
268 39 37 33 60 92 55 144 l-5 48 253 0 c158 0 255 4 259 10 3 6 -4 10 -16 10
-22 0 -22 1 -17 123 3 67 3 167 -1 222 l-6 100 -49 1 c-34 1 -51 6 -58 17 -8
15 1 17 97 17 63 0 105 4 105 10 0 6 -7 10 -15 10 -13 0 -15 31 -15 220 l0
220 -50 0 c-36 0 -52 4 -56 15 -4 8 -17 15 -30 15 -15 0 -24 -6 -24 -15z"/>
<path d="M382 6857 c-21 -22 -22 -32 -22 -219 0 -178 2 -198 19 -220 11 -13
21 -40 23 -59 3 -29 7 -34 28 -34 21 0 25 5 28 34 2 19 12 46 23 59 17 22 19
42 19 222 0 193 0 197 -23 218 -30 28 -68 28 -95 -1z"/>
<path d="M2963 6843 c-9 -3 -13 -27 -13 -68 l0 -64 -67 -3 -68 -3 -3 -74 c-3
-87 0 -91 81 -91 l57 0 0 -64 c0 -49 4 -65 16 -70 28 -11 130 -6 142 6 7 7 12
38 12 70 l0 58 54 0 c85 0 86 1 86 85 0 84 -1 85 -86 85 l-54 0 0 58 c0 32 -5
63 -12 70 -12 12 -120 16 -145 5z"/>
<path d="M12182 6828 c-7 -7 -12 -21 -12 -33 0 -29 19 -45 52 -45 36 0 56 36
39 69 -13 23 -59 29 -79 9z m56 -31 c4 -20 -25 -34 -40 -19 -15 15 -1 44 19
40 10 -2 19 -11 21 -21z"/>
<path d="M10369 6787 c-34 -26 -39 -54 -39 -235 0 -175 1 -180 25 -216 14 -20
25 -50 25 -65 0 -16 7 -31 15 -35 20 -7 45 20 45 51 0 15 8 35 18 46 15 16 17
45 20 200 2 99 1 191 -3 204 -13 52 -69 79 -106 50z"/>
<path d="M9904 6699 l-54 -52 -50 47 c-58 54 -107 63 -134 24 -30 -42 -20 -76
34 -131 l51 -51 -51 -51 c-64 -65 -67 -110 -9 -140 36 -19 54 -12 114 46 l51
49 49 -50 c57 -58 91 -65 130 -25 36 35 31 60 -26 120 l-51 54 51 61 c57 68
59 87 15 128 -37 33 -59 27 -120 -29z"/>
<path d="M12204 6653 c3 -42 6 -87 6 -100 0 -22 4 -23 63 -23 l63 0 44 -75
c39 -70 44 -75 62 -63 23 15 22 34 -1 30 -10 -1 -28 20 -51 60 l-36 63 -62 3
-62 3 0 89 c0 77 -2 90 -16 90 -15 0 -16 -10 -10 -77z"/>
<path d="M11758 6649 c-22 -12 -24 -48 -3 -55 13 -5 15 -39 15 -219 0 -200 1
-214 21 -239 16 -21 29 -26 63 -26 74 0 75 5 76 251 1 200 3 217 21 232 24 21
24 43 0 57 -25 13 -171 13 -193 -1z"/>
<path d="M12151 6556 c-26 -41 -27 -107 -4 -147 17 -29 84 -69 116 -69 29 0
97 32 107 50 15 29 -1 31 -32 5 -22 -19 -41 -25 -75 -25 -91 0 -147 104 -93
173 11 14 20 30 20 36 0 21 -19 11 -39 -23z"/>
<path d="M2198 6498 c-159 -188 -196 -335 -110 -432 54 -60 190 -75 280 -30
71 35 95 72 100 152 4 57 1 71 -31 135 -33 66 -165 227 -187 227 -4 0 -28 -24
-52 -52z"/>
<path d="M10850 6475 c-7 -19 -17 -25 -38 -25 -34 0 -50 -16 -86 -92 -17 -37
-39 -64 -60 -78 -54 -33 -62 -82 -21 -126 13 -14 27 -34 30 -45 9 -26 42 -33
70 -15 29 19 32 51 8 78 -10 11 -12 18 -4 18 7 0 20 -14 29 -30 l17 -31 97 3
c91 3 98 2 107 -19 14 -30 47 -38 76 -19 27 18 33 53 13 76 -11 12 -10 12 5 1
9 -7 17 -20 17 -27 0 -17 32 -18 48 -2 8 8 12 56 12 148 0 92 -4 140 -12 148
-8 8 -50 12 -124 12 -126 0 -144 4 -144 31 0 28 -29 23 -40 -6z"/>
<path d="M733 6470 c-4 -14 -14 -20 -33 -20 -36 0 -54 -18 -80 -78 -11 -27
-40 -65 -67 -89 -41 -36 -47 -46 -46 -79 1 -25 8 -44 21 -54 11 -9 23 -26 26
-38 9 -27 46 -38 75 -22 26 13 28 56 4 83 -17 19 -17 20 4 8 12 -6 25 -20 28
-31 6 -18 15 -20 106 -20 72 0 99 3 100 13 1 6 4 -1 8 -18 7 -35 51 -56 79
-39 19 12 28 58 15 78 -4 6 1 2 12 -11 25 -28 51 -30 65 -4 5 11 10 76 10 144
0 161 4 157 -158 157 -115 0 -122 1 -122 20 0 14 -7 20 -21 20 -12 0 -23 -8
-26 -20z"/>
<path d="M2607 6414 c-4 -4 -7 -24 -7 -43 0 -28 -5 -39 -22 -46 -20 -9 -24
-20 -31 -100 -5 -49 -6 -121 -4 -158 6 -93 23 -110 109 -111 l63 -1 6 -45 6
-45 1 48 2 47 69 0 c49 0 72 4 81 15 12 14 14 89 6 270 -3 60 -6 71 -24 80
-15 7 -22 20 -24 50 l-3 40 -111 3 c-60 1 -113 -1 -117 -4z m163 -34 c0 -5
-22 -10 -50 -10 -27 0 -50 5 -50 10 0 6 23 10 50 10 28 0 50 -4 50 -10z"/>
<path d="M11430 6400 c-24 -24 -25 -43 -4 -64 18 -19 55 -21 72 -4 19 19 14
55 -10 72 -29 20 -34 20 -58 -4z m55 -35 c0 -30 -39 -27 -43 3 -3 20 0 23 20
20 15 -2 23 -10 23 -23z"/>
<path d="M11450 6200 l0 -99 67 -3 68 -3 36 -63 c20 -35 39 -66 42 -68 10 -11
47 7 47 22 0 11 -6 13 -19 9 -16 -5 -26 6 -56 60 -34 59 -40 65 -70 65 -18 0
-47 3 -64 6 l-31 7 0 83 c0 49 -4 84 -10 84 -6 0 -10 -40 -10 -100z"/>
<path d="M3047 6283 c-13 -12 -7 -44 8 -49 13 -5 15 -39 15 -215 0 -133 4
-217 11 -233 22 -47 95 -58 133 -20 14 13 16 49 16 235 0 181 3 221 14 225 18
7 27 29 20 49 -5 12 -27 15 -108 15 -57 0 -106 -3 -109 -7z"/>
<path d="M10188 6238 c-128 -150 -181 -285 -147 -375 54 -142 314 -155 394
-19 43 74 32 161 -33 262 -39 60 -148 184 -162 184 -4 0 -28 -24 -52 -52z"/>
<path d="M9665 6180 c-3 -5 -22 -10 -40 -10 -24 0 -38 -6 -45 -19 -6 -12 -10
-98 -10 -209 0 -149 3 -192 14 -201 9 -8 63 -11 167 -9 l154 3 3 209 c3 228 3
226 -55 226 -17 0 -35 5 -38 10 -3 6 -37 10 -75 10 -38 0 -72 -4 -75 -10z"/>
<path d="M12072 6096 c-60 -82 -147 -176 -164 -176 -4 0 -8 -5 -8 -11 0 -6
-14 -24 -30 -41 -37 -36 -106 -137 -120 -173 -8 -21 -7 -27 7 -32 38 -15 203
110 203 154 0 15 5 20 18 17 12 -2 50 35 127 125 61 71 111 136 113 144 3 13
-35 48 -74 70 -7 4 -37 -27 -72 -77z"/>
<path d="M11401 6134 c-70 -89 -6 -218 108 -218 33 0 57 7 79 23 31 21 43 51
22 51 -5 0 -10 -4 -10 -10 0 -15 -56 -40 -90 -40 -94 0 -148 104 -92 179 27
37 11 51 -17 15z"/>
<path d="M787 6032 c-22 -24 -21 -45 1 -65 23 -21 46 -22 66 -1 30 30 9 84
-33 84 -10 0 -25 -8 -34 -18z m53 -18 c11 -12 10 -18 -3 -32 -16 -15 -18 -15
-34 0 -13 14 -14 20 -3 32 7 9 16 16 20 16 4 0 13 -7 20 -16z"/>
<path d="M10747 5984 c-4 -4 -7 -24 -7 -44 0 -29 -5 -39 -23 -47 -21 -10 -25
-21 -30 -80 -12 -121 -8 -232 8 -263 15 -29 18 -30 85 -30 l70 0 0 -45 c0 -25
5 -45 10 -45 6 0 10 20 10 45 l0 44 72 3 c72 3 72 3 81 35 6 18 6 95 2 178 -7
140 -8 147 -31 157 -18 8 -24 20 -26 52 l-3 41 -106 3 c-58 1 -108 -1 -112 -4z
m158 -44 c4 -6 -13 -10 -44 -10 -28 0 -51 5 -51 10 0 6 20 10 44 10 25 0 48
-4 51 -10z"/>
<path d="M810 5840 l0 -100 33 0 c88 0 100 -7 140 -81 21 -38 40 -69 43 -69 3
0 14 5 25 10 25 14 25 30 -1 27 -14 -1 -29 14 -57 63 l-38 65 -63 3 -62 3 0
89 c0 53 -4 90 -10 90 -6 0 -10 -40 -10 -100z"/>
<path d="M1970 5895 c0 -12 -13 -15 -60 -15 l-60 0 0 -220 c0 -137 -4 -220
-10 -220 -6 0 -11 70 -12 178 l-3 177 -107 3 -108 3 0 -181 c0 -113 -4 -180
-10 -180 -5 0 -10 -7 -10 -15 0 -13 36 -15 282 -13 214 2 282 6 286 16 2 6 -4
12 -15 12 -17 0 -18 10 -14 166 1 91 0 190 -4 220 l-6 54 -50 0 c-35 0 -51 4
-55 15 -4 8 -15 15 -25 15 -10 0 -19 -7 -19 -15z"/>
<path d="M2962 5838 c-7 -7 -12 -24 -12 -40 0 -50 66 -62 91 -17 23 43 -44 92
-79 57z m56 -36 c3 -16 -2 -22 -17 -22 -24 0 -35 15 -27 36 9 23 40 13 44 -14z"/>
<path d="M11253 5775 c-159 -80 -158 -309 2 -387 145 -72 315 33 315 193 -1
168 -166 269 -317 194z"/>
<path d="M754 5765 c-25 -39 -29 -97 -8 -140 23 -49 67 -75 126 -75 39 0 54 6
80 29 18 16 30 33 25 37 -4 4 -18 -3 -31 -15 -15 -14 -42 -25 -69 -28 -41 -5
-48 -2 -83 30 -34 31 -39 41 -39 79 0 29 8 54 23 76 19 25 20 32 8 32 -9 0
-23 -11 -32 -25z"/>
<path d="M2307 5762 c-14 -15 -17 -42 -17 -155 0 -136 0 -136 27 -157 26 -20
36 -21 211 -18 233 4 222 -5 222 179 0 179 14 169 -233 169 -175 0 -196 -2
-210 -18z"/>
<path d="M10323 5744 c-10 -4 -13 -40 -13 -131 l0 -125 -56 -61 c-102 -113
-118 -173 -51 -194 90 -30 395 -24 433 8 35 29 4 99 -82 189 l-42 45 -3 125
c-1 69 -6 130 -11 136 -8 11 -152 18 -175 8z"/>
<path d="M2980 5641 l0 -100 67 -3 66 -3 41 -67 c51 -83 50 -82 75 -66 27 17
27 30 -1 26 -18 -2 -29 10 -61 65 l-39 67 -58 0 -59 0 -3 87 c-2 58 -7 88 -15
91 -10 3 -13 -21 -13 -97z"/>
<path d="M11800 5543 c-30 -43 -94 -118 -143 -168 -133 -135 -220 -275 -172
-275 44 0 187 108 200 150 4 11 12 20 19 20 7 0 65 62 130 137 l119 137 -43
38 c-23 21 -46 38 -49 38 -4 0 -32 -35 -61 -77z"/>
<path d="M2931 5564 c-29 -37 -29 -115 0 -155 43 -61 129 -77 189 -36 19 12
35 28 38 35 6 19 -23 14 -43 -8 -24 -26 -78 -35 -116 -19 -63 26 -90 120 -49
172 11 14 20 28 20 31 0 14 -20 4 -39 -20z"/>
<path d="M9727 5584 c-4 -4 -7 -36 -7 -71 l0 -63 -70 0 -71 0 3 -77 3 -78 67
-3 67 -3 3 -67 3 -67 80 0 80 0 3 67 3 67 67 3 67 3 0 75 0 75 -67 3 -67 3 -3
67 -3 67 -75 3 c-42 1 -79 0 -83 -4z"/>
<path d="M1217 5516 c-94 -35 -147 -110 -147 -210 0 -204 248 -293 383 -136
89 105 57 269 -65 331 -52 26 -123 33 -171 15z"/>
<path d="M1747 5323 c-4 -3 -7 -23 -7 -43 0 -29 -5 -39 -23 -47 -21 -10 -25
-20 -30 -95 -4 -45 -7 -104 -7 -129 0 -39 -4 -48 -26 -59 -14 -8 -39 -31 -56
-52 -16 -21 -34 -38 -40 -38 -6 0 -35 23 -64 50 -29 28 -59 50 -68 50 -8 0
-28 -12 -45 -26 -46 -38 -41 -68 21 -131 l52 -52 -52 -55 c-57 -60 -62 -80
-31 -120 34 -43 75 -36 134 24 l49 49 52 -49 c61 -57 97 -65 132 -27 36 38 28
71 -27 130 l-49 52 49 53 c46 47 54 52 95 52 l44 0 0 -45 c0 -25 5 -45 10 -45
6 0 10 20 10 45 l0 45 70 0 c58 0 71 3 80 19 11 21 12 161 1 276 -5 60 -9 71
-28 80 -19 8 -23 18 -23 52 l0 43 -108 0 c-60 0 -112 -3 -115 -7z m163 -43 c0
-5 -22 -10 -50 -10 -27 0 -50 5 -50 10 0 6 23 10 50 10 28 0 50 -4 50 -10z"/>
<path d="M10757 5303 c-4 -3 -7 -23 -7 -42 0 -28 -5 -39 -22 -46 -19 -8 -24
-20 -29 -75 -14 -142 -10 -233 11 -268 16 -26 27 -33 48 -32 15 1 44 2 65 1
36 -1 37 -2 37 -40 0 -22 5 -43 10 -46 6 -4 10 12 10 39 l0 46 70 0 c58 0 71
3 80 19 11 22 13 126 3 260 -6 85 -8 92 -30 97 -20 5 -23 12 -23 50 l0 44
-108 0 c-60 0 -112 -3 -115 -7z m163 -43 c0 -5 -22 -10 -50 -10 -27 0 -50 5
-50 10 0 6 23 10 50 10 28 0 50 -4 50 -10z"/>
<path d="M2755 5270 c-3 -5 -21 -10 -39 -10 -17 0 -37 -5 -44 -12 -17 -17 -17
-409 0 -426 8 -8 57 -12 154 -12 116 0 145 3 158 16 13 13 16 46 16 209 0 216
-3 225 -65 225 -19 0 -37 5 -40 10 -3 6 -35 10 -70 10 -35 0 -67 -4 -70 -10z"/>
<path d="M3142 5243 c-34 -13 -42 -59 -42 -240 0 -165 2 -180 22 -213 12 -19
22 -42 23 -50 1 -8 2 -23 3 -32 1 -12 10 -18 26 -18 24 0 36 16 36 51 0 10 9
33 20 51 18 30 20 51 20 211 0 137 -3 185 -15 206 -19 37 -54 50 -93 34z"/>
<path d="M2156 5209 c-43 -34 -36 -75 24 -134 l49 -49 -49 -52 c-57 -61 -65
-97 -27 -132 38 -36 73 -29 130 28 l50 50 53 -50 c69 -65 109 -65 143 -2 17
33 0 71 -50 111 -21 18 -39 37 -39 44 0 6 20 32 44 57 58 60 63 80 30 119 -38
46 -68 42 -131 -21 l-52 -52 -55 52 c-60 57 -80 62 -120 31z"/>
<path d="M10118 5199 c-21 -12 -24 -59 -6 -77 7 -7 21 -12 33 -12 12 0 26 5
33 12 19 19 15 66 -7 78 -24 12 -31 12 -53 -1z m52 -39 c0 -10 -6 -20 -12 -23
-21 -7 -38 4 -38 23 0 10 6 20 13 23 20 7 37 -4 37 -23z"/>
<path d="M11229 5146 c-60 -21 -96 -54 -125 -112 -69 -141 19 -297 175 -311
52 -5 68 -2 117 22 136 67 163 237 55 345 -65 65 -143 84 -222 56z"/>
<path d="M10130 5001 l0 -98 31 -7 c17 -3 48 -6 68 -6 35 0 39 -4 76 -67 21
-38 40 -70 42 -72 1 -2 14 1 29 7 27 13 24 36 -4 28 -13 -4 -27 12 -56 64
l-40 70 -57 0 -57 0 -8 90 c-3 50 -10 90 -15 90 -5 0 -9 -44 -9 -99z"/>
<path d="M10432 4997 c-21 -22 -22 -32 -22 -219 0 -178 2 -198 19 -220 11 -13
21 -40 23 -59 3 -29 7 -34 28 -34 21 0 25 5 28 34 2 19 12 46 23 59 17 22 19
42 19 221 0 185 -1 199 -20 219 -27 29 -71 28 -98 -1z"/>
<path d="M9590 4952 c-40 -20 -77 -70 -86 -117 -15 -81 48 -181 169 -266 39
-28 78 -53 85 -56 18 -8 141 78 190 132 109 117 109 230 2 303 -42 29 -106 26
-151 -7 l-28 -21 -47 25 c-55 30 -87 31 -134 7z"/>
<path d="M10086 4931 c-72 -80 -9 -221 100 -221 46 0 91 17 113 43 19 24 -5
31 -28 8 -44 -44 -124 -39 -165 10 -33 39 -36 104 -6 142 11 14 20 28 20 31 0
12 -17 6 -34 -13z"/>
<path d="M2589 4753 c-57 -60 -94 -113 -129 -182 -64 -128 -45 -238 50 -291
61 -34 175 -35 235 -3 153 81 139 250 -36 437 -39 42 -74 76 -78 76 -4 0 -23
-17 -42 -37z"/>
<path d="M2007 4697 c-171 -215 -211 -311 -172 -412 45 -119 226 -155 343 -67
120 88 91 249 -76 422 l-77 80 -18 -23z"/>
<path d="M4203 4676 l-28 -24 -3 -189 c-3 -188 -3 -189 22 -226 14 -21 26 -51
26 -66 0 -32 25 -48 46 -30 8 6 14 25 14 41 0 16 9 41 20 55 18 24 20 41 20
209 0 195 -6 224 -47 243 -33 15 -38 14 -70 -13z"/>
<path d="M3687 4663 c-2 -4 -5 -64 -6 -132 l-2 -124 -54 -60 c-58 -66 -100
-140 -91 -163 12 -31 59 -38 246 -39 253 0 278 11 229 107 -12 23 -46 67 -75
98 l-53 56 -3 130 -3 129 -92 3 c-50 1 -93 -1 -96 -5z"/>
<path d="M3365 4649 c-11 -4 -40 -28 -64 -53 l-45 -45 -52 49 c-61 57 -97 65
-132 27 -37 -39 -29 -74 29 -130 l50 -48 -50 -54 c-65 -69 -66 -110 -4 -143
34 -18 40 -16 97 38 29 28 57 50 62 50 6 0 30 -20 54 -45 52 -53 93 -60 128
-22 35 37 28 65 -30 124 l-52 52 52 55 c57 60 62 80 32 118 -23 29 -47 38 -75
27z"/>
<path d="M8065 4640 c-3 -5 -17 -10 -31 -10 -14 0 -34 -5 -45 -10 -18 -10 -19
-23 -19 -213 0 -145 3 -206 12 -215 17 -17 299 -17 316 0 9 9 12 70 12 215 0
190 -1 203 -19 213 -11 5 -33 10 -50 10 -16 0 -33 5 -36 10 -3 6 -35 10 -70
10 -35 0 -67 -4 -70 -10z"/>
<path d="M4972 4617 c-164 -60 -193 -286 -49 -384 94 -63 198 -53 278 27 85
85 89 206 10 294 -63 69 -155 93 -239 63z"/>
<path d="M8756 4615 c-21 -7 -45 -20 -54 -28 -15 -14 -21 -13 -57 9 -79 47
-166 22 -209 -61 -51 -100 -1 -200 160 -316 l84 -60 75 52 c100 69 160 136
181 204 16 50 16 56 0 98 -32 86 -106 127 -180 102z"/>
<path d="M10730 4619 c-122 -49 -133 -202 -24 -314 47 -47 167 -135 186 -135
7 0 53 29 101 65 164 122 208 253 115 342 -64 60 -100 66 -170 29 l-46 -24
-48 24 c-51 26 -75 28 -114 13z"/>
<path d="M7630 4610 c0 -5 -18 -10 -40 -10 -29 0 -42 -5 -50 -19 -6 -12 -10
-95 -10 -201 0 -106 4 -189 10 -201 10 -17 23 -19 165 -19 142 0 155 2 165 19
6 12 10 95 10 201 0 106 -4 189 -10 201 -8 14 -21 19 -50 19 -22 0 -40 5 -40
10 0 6 -32 10 -75 10 -43 0 -75 -4 -75 -10z"/>
<path d="M9183 4590 c-5 -18 -30 -33 -49 -29 -26 4 -37 -7 -68 -70 -22 -43
-50 -80 -76 -101 -34 -27 -40 -37 -40 -71 0 -28 6 -42 20 -51 11 -7 20 -18 20
-24 0 -21 38 -46 66 -42 40 4 56 48 28 79 -14 16 -15 21 -4 17 8 -2 21 -17 28
-32 l14 -27 98 3 c93 3 100 2 109 -18 5 -12 18 -23 28 -26 54 -14 92 43 57 85
l-19 22 23 -19 c12 -11 22 -25 22 -33 0 -16 14 -17 41 -3 17 10 19 22 19 148
0 94 -4 142 -12 150 -8 8 -50 12 -124 12 -126 0 -144 4 -144 31 0 25 -30 25
-37 -1z"/>
<path d="M4635 4498 c-33 -46 -97 -121 -144 -168 -80 -81 -181 -218 -181 -246
0 -24 20 -26 65 -4 57 27 143 105 151 135 3 12 11 22 18 21 8 0 66 60 131 134
l117 135 -42 37 c-23 21 -46 38 -50 38 -3 0 -33 -37 -65 -82z"/>
<path d="M10010 4477 c0 -34 -4 -44 -22 -52 -28 -12 -37 -59 -41 -200 -3 -137
19 -184 84 -175 8 2 31 2 51 1 37 -1 37 -1 41 -48 l3 -48 2 48 2 47 43 1 c133
3 132 2 120 212 -8 144 -9 153 -30 162 -19 8 -23 18 -23 52 l0 43 -115 0 -115
0 0 -43z m160 -7 c0 -5 -22 -10 -50 -10 -27 0 -50 5 -50 10 0 6 23 10 50 10
28 0 50 -4 50 -10z"/>
<path d="M9611 4348 c-12 -33 -2 -57 27 -65 31 -7 56 7 60 36 5 31 -15 51 -50
51 -20 0 -31 -6 -37 -22z m67 -21 c4 -20 -25 -34 -40 -19 -15 15 -1 44 19 40
10 -2 19 -11 21 -21z"/>
<path d="M10486 4284 c-19 -19 -20 -35 -3 -56 19 -24 43 -28 66 -12 23 17 28
53 9 72 -17 17 -54 15 -72 -4z m59 -29 c0 -13 -8 -21 -22 -23 -17 -3 -23 2
-23 16 0 10 3 22 7 26 13 13 38 1 38 -19z"/>
<path d="M9640 4160 l0 -100 65 0 65 0 28 -46 c15 -25 35 -59 44 -75 17 -29
19 -29 43 -13 28 18 25 35 -4 27 -14 -4 -26 10 -55 61 l-36 65 -63 3 -62 3 -3
88 c-4 121 -22 111 -22 -13z"/>
<path d="M10510 4090 l0 -100 65 0 64 0 42 -72 c23 -40 43 -74 45 -76 1 -2 12
1 23 8 25 13 28 34 4 26 -14 -4 -27 10 -57 64 l-40 70 -63 0 -63 0 0 90 c0 53
-4 90 -10 90 -6 0 -10 -40 -10 -100z"/>
<path d="M2854 4156 c-17 -13 -19 -27 -19 -154 0 -103 4 -143 14 -155 12 -15
39 -17 211 -17 178 0 198 2 213 18 14 15 17 42 17 154 0 118 -2 137 -18 151
-16 15 -46 17 -208 17 -149 0 -194 -3 -210 -14z"/>
<path d="M2320 4085 c-219 -84 -240 -98 -240 -169 0 -85 71 -131 158 -102 122
41 346 136 367 156 46 44 42 130 -9 163 -50 33 -73 29 -276 -48z"/>
<path d="M8277 4153 c-4 -3 -7 -35 -7 -69 l0 -63 -67 -3 -68 -3 -3 -77 -3 -78
71 0 70 0 0 -70 0 -70 80 0 79 0 3 68 3 67 70 5 70 5 0 75 0 75 -72 3 -73 3 0
69 0 70 -73 0 c-41 0 -77 -3 -80 -7z"/>
<path d="M9596 4101 c-9 -10 -21 -35 -27 -55 -29 -105 71 -201 174 -167 39 13
90 61 65 61 -9 0 -21 -7 -28 -15 -16 -19 -71 -34 -104 -28 -15 3 -40 19 -56
35 -24 24 -30 38 -30 75 0 29 7 55 20 73 23 32 11 49 -14 21z"/>
<path d="M4860 4045 c0 -39 -3 -45 -20 -45 -26 0 -27 -4 -39 -135 -10 -119 -2
-199 24 -225 9 -8 30 -15 48 -16 104 -3 97 0 97 -44 0 -22 5 -40 10 -40 6 0
10 19 10 43 l0 42 53 -1 c108 -1 112 9 102 223 -7 140 -8 145 -31 153 -20 8
-24 17 -24 50 l0 40 -115 0 -115 0 0 -45z m165 0 c0 -5 -21 -11 -47 -13 -39
-3 -48 0 -48 13 0 13 9 16 48 13 26 -2 47 -7 47 -13z"/>
<path d="M9184 4068 c-38 -18 -44 -50 -44 -242 0 -168 2 -185 20 -209 11 -14
20 -36 20 -49 0 -13 6 -32 13 -42 18 -25 47 -10 47 25 0 15 12 45 26 66 25 37
25 38 22 226 l-3 189 -28 24 c-31 26 -41 28 -73 12z"/>
<path d="M7723 4048 c-6 -7 -11 -69 -12 -137 l-2 -125 -56 -60 c-66 -71 -101
-139 -83 -162 23 -27 94 -37 250 -37 229 0 268 20 221 111 -11 22 -45 67 -75
100 l-55 59 -3 129 -3 129 -86 3 c-61 2 -89 -1 -96 -10z"/>
<path d="M10461 4024 c-55 -70 -29 -169 56 -213 45 -23 119 -7 153 34 20 25 4
29 -25 7 -37 -29 -77 -36 -118 -18 -69 28 -92 112 -48 174 27 38 10 52 -18 16z"/>
<path d="M3797 4034 c-4 -4 -7 -36 -7 -71 l0 -63 -70 0 -71 0 3 -77 3 -78 68
-3 67 -3 0 -57 c0 -80 4 -83 91 -80 l74 3 3 67 3 67 67 3 67 3 3 78 3 77 -70
0 -70 0 -3 68 -3 67 -75 3 c-42 1 -79 0 -83 -4z"/>
<path d="M8830 3968 c-19 -20 -20 -34 -20 -219 0 -179 2 -199 19 -221 11 -13
21 -40 23 -59 3 -29 7 -34 28 -34 21 0 25 5 28 34 2 19 12 46 23 59 17 22 19
42 19 221 0 185 -1 199 -20 219 -27 29 -73 29 -100 0z"/>
<path d="M2533 3866 l-28 -24 -3 -168 c-4 -188 1 -227 28 -254 10 -10 20 -34
22 -52 2 -28 7 -33 28 -33 21 0 25 5 28 34 2 19 12 46 23 59 17 22 19 42 19
219 0 193 0 194 -25 218 -30 31 -56 32 -92 1z"/>
<path d="M4307 3864 c-4 -4 -7 -24 -7 -43 0 -28 -5 -39 -22 -46 -27 -12 -37
-65 -40 -215 -1 -73 2 -102 15 -127 17 -32 19 -33 87 -33 l70 0 0 -45 c0 -25
5 -45 10 -45 6 0 10 20 10 45 l0 45 65 0 c97 0 100 8 89 208 -9 148 -10 158
-31 167 -17 7 -23 19 -25 50 l-3 40 -106 3 c-58 1 -108 -1 -112 -4z m153 -44
c0 -5 -20 -10 -45 -10 -25 0 -45 5 -45 10 0 6 20 10 45 10 25 0 45 -4 45 -10z"/>
<path d="M10170 3855 c0 -10 -15 -15 -57 -17 l-58 -3 -3 -217 c-3 -268 -20
-296 -24 -40 l-3 177 -105 0 -105 0 -3 -177 c-1 -108 -6 -178 -12 -178 -6 0
-10 -7 -10 -15 0 -13 36 -15 282 -13 214 2 282 6 286 16 2 6 -4 12 -15 12 -17
0 -18 11 -15 187 2 104 1 203 -3 220 -6 32 -8 33 -54 33 -34 0 -51 5 -55 15
-7 19 -46 20 -46 0z"/>
<path d="M3376 3799 c-26 -30 -26 -31 -26 -213 0 -179 1 -184 25 -220 14 -20
25 -50 25 -65 0 -16 7 -31 15 -35 20 -7 45 20 45 51 0 14 9 36 20 50 18 24 20
41 20 210 0 142 -3 190 -15 212 -26 51 -72 55 -109 10z"/>
<path d="M9452 3758 c-16 -16 -15 -33 2 -48 12 -9 16 -55 18 -232 3 -217 3
-220 27 -239 30 -24 82 -24 112 0 24 19 24 22 27 237 3 186 6 221 20 237 12
14 14 22 6 35 -9 14 -30 18 -105 20 -65 2 -98 -1 -107 -10z"/>
<path d="M2880 3597 l0 -133 -41 -39 c-81 -78 -124 -160 -100 -189 21 -25 146
-39 291 -33 138 5 186 15 196 42 9 24 -34 102 -92 164 l-52 57 -4 130 -3 129
-97 3 -98 3 0 -134z"/>
<path d="M8413 3700 c-153 -36 -222 -220 -129 -343 76 -101 234 -117 325 -34
32 30 71 114 71 156 0 139 -136 252 -267 221z"/>
<path d="M3755 3490 c-3 -5 -19 -10 -35 -10 -57 0 -60 -12 -60 -225 0 -163 3
-196 16 -209 13 -13 42 -16 158 -16 97 0 146 4 154 12 17 17 17 409 0 426 -7
7 -27 12 -44 12 -18 0 -36 5 -39 10 -3 6 -37 10 -75 10 -38 0 -72 -4 -75 -10z"/>
<path d="M5024 3475 c-5 -11 -21 -15 -60 -15 l-54 0 0 -220 c0 -137 -4 -220
-10 -220 -6 0 -11 70 -12 178 l-3 177 -106 3 -106 3 -7 -99 c-4 -55 -4 -136 0
-181 5 -58 4 -81 -5 -81 -6 0 -11 -7 -11 -15 0 -13 38 -15 279 -15 188 0 282
4 286 11 4 6 -3 13 -15 16 -22 6 -22 8 -16 110 4 57 4 155 0 218 l-7 115 -53
0 c-41 0 -54 4 -54 15 0 8 -9 15 -20 15 -11 0 -23 -7 -26 -15z"/>
<path d="M9117 3404 c-4 -4 -7 -36 -7 -70 l0 -63 -67 -3 -68 -3 -3 -77 -3 -77
68 -3 68 -3 3 -67 3 -68 79 0 79 0 3 68 3 67 70 5 70 5 3 63 c4 83 -4 92 -84
92 l-63 0 -3 68 -3 67 -70 3 c-39 1 -74 0 -78 -4z"/>
<path d="M7625 3388 c-43 -23 -45 -34 -45 -240 0 -185 1 -199 20 -218 11 -11
20 -33 20 -49 0 -16 6 -34 14 -40 22 -18 46 -2 46 31 0 16 9 41 20 55 18 24
20 41 20 223 0 174 -2 200 -17 218 -23 26 -53 34 -78 20z"/>
<path d="M8166 3285 c-4 -11 -21 -15 -61 -15 l-55 0 0 -220 c0 -140 -4 -220
-10 -220 -6 0 -10 67 -10 180 l0 180 -110 0 -110 0 0 -180 c0 -113 -4 -180
-10 -180 -5 0 -10 -4 -10 -10 0 -6 102 -10 285 -10 183 0 285 4 285 10 0 6 -8
10 -17 10 -17 0 -18 14 -15 187 2 102 1 201 -3 220 -6 32 -7 33 -54 33 -34 0
-51 5 -55 15 -3 8 -14 15 -25 15 -10 0 -21 -7 -25 -15z"/>
<path d="M9824 3188 c-32 -45 -84 -107 -116 -138 -32 -32 -58 -62 -58 -68 0
-7 -6 -12 -13 -12 -14 0 -82 -86 -124 -157 -43 -75 -7 -84 85 -22 68 45 112
91 112 118 0 11 7 17 18 17 19 -1 242 247 242 269 0 6 -20 26 -44 43 l-45 32
-57 -82z"/>
<path d="M8607 3214 c-4 -4 -7 -36 -7 -71 l0 -63 -70 0 -71 0 3 -77 3 -78 67
-3 67 -3 3 -67 3 -67 80 0 80 0 3 67 3 67 67 3 67 3 3 78 3 77 -70 0 -70 0 -3
68 -3 67 -75 3 c-42 1 -79 0 -83 -4z"/>
<path d="M4169 3147 c-136 -71 -154 -271 -34 -363 147 -111 355 -11 355 171 0
162 -176 268 -321 192z"/>
<path d="M3084 3096 c-17 -13 -19 -29 -22 -150 -3 -134 -3 -136 22 -161 25
-25 26 -25 204 -25 241 0 232 -7 232 174 0 188 15 176 -224 176 -150 0 -196
-3 -212 -14z"/>
<path d="M4962 2867 c-198 -72 -186 -364 18 -418 96 -25 197 18 247 106 30 52
31 149 4 203 -49 96 -169 145 -269 109z"/>
<path d="M3650 2830 c0 -5 -18 -10 -40 -10 -29 0 -42 -5 -50 -19 -6 -12 -10
-95 -10 -201 0 -106 4 -189 10 -201 10 -17 23 -19 165 -19 142 0 155 2 165 19
13 26 13 376 0 402 -8 14 -21 19 -50 19 -22 0 -40 5 -40 10 0 6 -32 10 -75 10
-43 0 -75 -4 -75 -10z"/>
<path d="M8980 2820 c-18 -18 -20 -33 -20 -158 0 -122 2 -141 18 -155 16 -15
46 -17 209 -17 171 0 192 2 206 18 14 15 17 42 17 160 0 183 15 172 -227 172
-170 0 -184 -1 -203 -20z"/>
<path d="M4507 2723 c-78 -97 -114 -160 -134 -235 -19 -74 -11 -122 29 -173
53 -68 190 -87 286 -39 71 35 95 72 100 152 4 57 1 71 -31 135 -33 66 -165
227 -187 227 -4 0 -32 -30 -63 -67z"/>
<path d="M7018 2686 c-26 -7 -62 -24 -81 -39 -74 -57 -102 -181 -60 -266 16
-32 17 -41 7 -41 -8 0 -14 7 -14 15 0 8 -9 15 -20 15 -11 0 -23 -7 -26 -15 -5
-11 -21 -15 -59 -15 l-54 0 -6 -54 c-4 -30 -5 -129 -4 -220 3 -106 0 -166 -6
-166 -6 0 -9 57 -7 157 2 87 0 168 -3 180 -5 22 -10 23 -109 23 -85 0 -105 -3
-110 -16 -3 -9 -6 -68 -6 -132 l0 -116 -22 44 c-32 63 -80 93 -139 87 -26 -2
-60 -14 -77 -26 l-31 -21 -37 25 c-54 37 -112 35 -159 -6 -122 -108 -74 -247
134 -388 l63 -43 68 46 c77 53 134 106 160 148 11 18 20 25 24 19 5 -8 93 -11
272 -11 l264 0 0 -126 0 -125 -49 -52 c-67 -71 -101 -125 -101 -157 0 -42 40
-52 216 -58 162 -4 257 8 273 35 8 15 13 13 41 -10 49 -41 128 -37 182 11 31
26 9 32 -29 7 -107 -74 -230 42 -163 153 23 37 24 42 10 42 -15 0 -43 -48 -49
-86 l-6 -34 -62 75 -63 75 0 84 c0 46 -3 104 -6 130 l-7 46 -78 0 c-46 0 -79
4 -79 10 0 6 -7 10 -15 10 -13 0 -15 27 -15 183 l0 184 73 -5 c80 -5 117 7
170 57 64 58 86 163 52 244 -40 97 -153 151 -257 123z m-556 -761 c3 -16 1
-25 -7 -25 -8 0 -10 9 -7 25 2 14 6 25 7 25 1 0 5 -11 7 -25z"/>
<path d="M7460 2650 c-18 -18 -20 -33 -20 -155 0 -186 -14 -175 228 -175 241
0 227 -11 227 177 0 182 12 173 -231 173 -171 0 -185 -1 -204 -20z"/>
<path d="M8567 2663 c-4 -3 -7 -35 -7 -69 l0 -63 -67 -3 -68 -3 -3 -77 -3 -78
71 0 70 0 0 -70 0 -71 81 3 82 3 1 65 1 65 70 5 70 5 3 69 c2 49 -1 72 -10 77
-7 5 -41 9 -76 9 l-63 0 2 58 c1 32 -1 64 -5 70 -8 13 -137 17 -149 5z"/>
<path d="M8105 2650 c-3 -5 -22 -10 -40 -10 -24 0 -38 -6 -45 -19 -6 -12 -10
-95 -10 -201 0 -106 4 -189 10 -201 10 -17 23 -19 165 -19 142 0 155 2 165 19
6 12 10 95 10 201 0 106 -4 189 -10 201 -8 14 -21 19 -50 19 -22 0 -40 5 -40
10 0 6 -31 10 -74 10 -41 0 -78 -4 -81 -10z"/>
<path d="M5787 2643 c-13 -12 -7 -44 8 -49 13 -5 15 -39 15 -215 0 -133 4
-217 11 -233 22 -47 95 -58 133 -20 14 13 16 49 16 235 0 181 3 221 14 225 18
7 27 29 20 49 -5 12 -27 15 -108 15 -57 0 -106 -3 -109 -7z"/>
<path d="M6336 2576 c-206 -79 -246 -106 -246 -167 0 -62 55 -119 115 -119 9
0 102 34 208 75 129 51 199 84 215 101 27 31 30 98 6 133 -16 23 -71 52 -96
50 -7 0 -98 -33 -202 -73z"/>
<path d="M5430 2590 c0 -5 -15 -10 -34 -10 -63 0 -66 -9 -66 -224 0 -174 2
-195 18 -209 15 -14 42 -17 160 -17 183 0 172 -15 172 225 0 206 -6 225 -65
225 -19 0 -37 5 -40 10 -3 6 -37 10 -76 10 -39 0 -69 -4 -69 -10z"/>
<path d="M4044 2522 c-193 -226 -207 -416 -35 -477 124 -43 270 16 302 124 17
57 1 136 -43 208 -38 62 -154 193 -171 193 -7 0 -30 -21 -53 -48z"/>
<path d="M8970 2323 c-30 -43 -94 -118 -143 -168 -87 -88 -187 -222 -187 -251
0 -43 74 -14 158 61 29 26 55 57 58 70 3 12 12 22 19 21 8 0 67 60 131 134
l117 134 -43 38 c-23 21 -46 38 -49 38 -4 0 -32 -35 -61 -77z"/>
<path d="M7307 2286 c-123 -44 -179 -182 -123 -301 28 -60 46 -77 110 -106
131 -57 282 29 302 172 9 69 -11 127 -65 180 -65 66 -141 84 -224 55z"/>
<path d="M4882 2257 c-37 -39 -29 -76 28 -132 l49 -49 -49 -52 c-57 -60 -63
-92 -25 -129 38 -39 67 -32 124 27 l51 53 42 -42 c42 -40 77 -63 97 -63 5 0
23 12 40 26 45 38 41 65 -20 130 l-52 54 52 54 c28 30 51 60 51 66 0 20 -29
67 -45 74 -37 14 -61 4 -112 -46 l-53 -52 -53 52 c-59 59 -91 66 -125 29z"/>
<path d="M7840 2119 c-30 -44 -81 -105 -112 -134 -32 -30 -58 -56 -58 -58 0
-2 -19 -24 -42 -49 -48 -51 -120 -167 -112 -180 10 -17 52 -7 96 22 59 39 131
117 122 132 -5 7 -2 9 9 5 12 -4 47 29 132 127 63 74 115 138 115 144 0 13
-70 72 -85 72 -5 -1 -35 -37 -65 -81z"/>
<path d="M4453 2081 c-5 -21 -29 -35 -44 -25 -16 10 -39 -17 -74 -85 -22 -44
-45 -73 -69 -88 -35 -23 -44 -45 -37 -97 2 -17 11 -30 22 -33 11 -3 19 -13 19
-22 0 -25 20 -41 50 -41 14 0 31 5 38 12 16 16 15 61 0 77 -11 10 -10 11 5 5
9 -3 20 -17 23 -30 6 -23 9 -24 104 -24 85 0 99 2 103 18 3 11 5 8 6 -8 0 -15
6 -31 13 -38 15 -15 61 -15 76 0 16 16 15 60 0 78 -11 12 -10 12 4 1 10 -7 20
-21 23 -32 8 -24 27 -24 48 -1 14 15 17 41 17 141 0 67 -5 131 -10 142 -10 17
-22 19 -125 19 -127 0 -145 4 -145 31 0 26 -40 26 -47 0z"/>
<path d="M8190 2029 c-102 -39 -195 -80 -207 -91 -76 -71 -28 -192 75 -189 21
0 117 32 222 74 161 64 188 78 208 107 26 39 28 60 5 107 -16 35 -63 64 -100
62 -10 0 -101 -32 -203 -70z"/>
<path d="M5655 2020 c-3 -5 -22 -10 -40 -10 -24 0 -38 -6 -45 -19 -13 -25 -13
-361 0 -395 l10 -26 154 0 c143 0 156 1 166 19 15 29 13 394 -2 409 -7 7 -27
12 -44 12 -18 0 -36 5 -39 10 -3 6 -39 10 -80 10 -41 0 -77 -4 -80 -10z"/>
<path d="M5353 1926 l-28 -24 -3 -189 c-3 -188 -3 -189 22 -226 14 -21 26 -51
26 -66 0 -32 25 -48 46 -30 8 6 14 25 14 41 0 16 9 41 20 55 18 24 20 41 20
210 0 142 -3 190 -15 212 -24 47 -60 53 -102 17z"/>
<path d="M8395 1807 c-27 -39 -92 -114 -143 -166 -88 -90 -192 -230 -192 -258
0 -24 27 -25 68 -4 54 28 152 119 152 142 0 11 5 16 13 13 8 -3 60 50 132 132
l119 137 -43 39 c-24 21 -46 38 -50 38 -3 0 -28 -33 -56 -73z"/>
<path d="M7368 1839 c-21 -12 -24 -59 -6 -77 20 -20 56 -14 74 13 15 23 15 27
0 50 -17 26 -40 31 -68 14z m52 -39 c0 -23 -13 -32 -34 -24 -19 7 -21 25 -5
41 16 16 39 5 39 -17z"/>
<path d="M6663 1756 c-5 -9 -28 -16 -63 -18 l-55 -3 -3 -217 c-3 -268 -20
-296 -24 -40 l-3 177 -105 0 -105 0 -3 -177 c-1 -108 -6 -178 -12 -178 -6 0
-10 -7 -10 -15 0 -13 36 -15 282 -13 214 2 282 6 286 16 2 7 -5 12 -15 12 -18
0 -19 8 -15 144 3 80 1 179 -3 220 l-7 76 -48 0 c-33 0 -50 5 -54 15 -7 19
-33 19 -43 1z"/>
<path d="M4873 1730 c-4 -14 -14 -20 -32 -20 -33 0 -62 -29 -89 -91 -11 -26
-37 -60 -60 -79 -22 -17 -43 -41 -46 -52 -8 -33 5 -77 25 -83 11 -4 19 -14 19
-24 0 -25 20 -41 50 -41 14 0 31 5 38 12 17 17 15 58 -5 81 -17 19 -17 20 4 8
12 -6 25 -20 28 -31 8 -26 39 -33 134 -29 71 4 79 2 87 -16 10 -23 58 -32 80
-14 17 14 18 60 2 78 -11 11 -10 12 0 6 7 -4 17 -18 22 -31 11 -29 24 -30 50
-4 18 18 20 33 20 145 0 167 2 165 -160 165 -113 0 -120 1 -120 20 0 14 -7 20
-21 20 -12 0 -23 -8 -26 -20z"/>
<path d="M7384 1726 c-3 -8 -4 -54 -2 -103 l4 -88 67 -3 67 -3 36 -64 c41 -75
47 -80 73 -66 18 10 19 6 22 -68 5 -89 24 -123 69 -120 14 0 42 1 63 0 l37 -1
0 -45 c0 -25 5 -45 10 -45 6 0 10 20 10 45 l0 45 38 1 c128 3 127 1 117 212
-7 155 -7 157 -31 163 -21 5 -24 12 -24 50 l0 44 -115 0 -115 0 0 -43 c0 -34
-4 -44 -22 -52 -19 -8 -24 -21 -31 -80 -12 -108 -33 -111 -91 -12 l-38 67 -59
0 -59 0 0 84 c0 79 -12 118 -26 82z m491 -96 c-3 -5 -26 -10 -51 -10 -24 0
-44 5 -44 10 0 6 23 10 51 10 31 0 48 -4 44 -10z"/>
<path d="M6004 1538 c-4 -15 -1 -25 11 -34 15 -11 16 -35 15 -217 0 -135 3
-213 11 -230 29 -63 126 -59 149 7 6 19 10 109 10 229 -1 176 0 200 15 211 12
9 15 19 11 34 -7 21 -13 22 -111 22 -98 0 -104 -1 -111 -22z"/>
<path d="M5582 1487 c-36 -38 -28 -68 30 -125 l52 -51 -49 -54 c-28 -30 -52
-55 -55 -56 -3 0 -14 14 -25 32 -11 18 -40 42 -65 54 -38 19 -51 21 -81 13
-20 -6 -48 -19 -62 -30 l-26 -20 -37 25 c-129 87 -278 -63 -209 -210 24 -51
102 -129 183 -184 l62 -42 76 52 c95 66 158 136 179 199 l16 50 29 -22 c26
-18 32 -19 59 -8 17 7 47 30 66 51 19 22 38 39 42 39 4 0 28 -20 53 -44 25
-25 52 -45 60 -46 33 -5 50 1 70 22 33 36 26 67 -32 125 l-52 52 52 55 c58 61
65 90 29 124 -39 37 -76 29 -132 -28 l-49 -49 -52 49 c-61 57 -97 65 -132 27z"/>
<path d="M7339 1276 c-87 -23 -149 -92 -163 -181 -8 -50 13 -124 49 -171 l27
-36 -33 -46 c-69 -98 -130 -170 -164 -193 -19 -13 -35 -29 -35 -36 0 -7 -6
-16 -13 -20 -21 -13 -90 -104 -117 -155 -34 -64 -20 -79 44 -48 54 26 156 119
156 142 0 9 6 15 13 14 11 -1 217 223 241 262 3 6 -2 19 -13 29 -20 18 -18 19
48 15 54 -3 76 0 107 16 144 74 168 256 48 361 -58 52 -122 67 -195 47z"/>
<path d="M6892 1167 c-21 -22 -22 -32 -22 -224 0 -185 1 -201 19 -218 11 -9
21 -33 23 -54 3 -31 6 -36 28 -36 21 0 25 5 28 34 2 19 12 46 23 59 17 22 19
42 19 217 0 179 -1 194 -21 219 -26 33 -68 34 -97 3z"/>
<path d="M6326 1130 c-59 -18 -107 -84 -108 -149 -1 -85 59 -166 192 -260 l72
-51 62 43 c155 107 227 219 197 305 -17 48 -66 99 -107 112 -39 13 -96 1 -126
-27 -19 -17 -21 -17 -56 3 -47 27 -89 35 -126 24z"/>
<path d="M5700 1020 c-8 -5 -27 -10 -42 -10 -55 0 -58 -13 -58 -229 0 -140 3
-200 12 -209 8 -8 58 -12 160 -12 l148 0 0 -93 c0 -132 -9 -127 226 -127 149
0 194 3 210 14 17 13 19 27 19 154 0 103 -4 143 -14 155 -12 15 -40 17 -217
17 l-204 0 0 154 c0 108 -4 157 -12 162 -37 23 -204 41 -228 24z"/>
<path d="M6564 578 c-27 -40 -77 -101 -111 -135 -35 -34 -63 -63 -63 -66 0 -2
-19 -24 -43 -49 -52 -53 -121 -164 -112 -178 9 -15 31 -12 73 9 53 27 142 109
142 131 0 10 8 20 19 22 18 3 241 250 241 267 0 13 -68 71 -84 71 -7 0 -35
-33 -62 -72z"/>
<path d="M6713 453 c-26 -37 -80 -101 -120 -141 -40 -40 -73 -75 -73 -76 0 -1
-17 -21 -37 -43 -44 -48 -104 -145 -107 -170 -2 -31 50 -18 118 31 63 45 96
83 96 110 0 9 6 13 14 10 8 -3 50 38 112 108 54 62 107 123 118 135 19 22 19
23 0 44 -10 12 -31 30 -46 41 l-27 19 -48 -68z"/>
</g>
</svg>
