<svg id="Capa_1" enable-background="new 0 0 512 512" height="512" viewBox="0 0 512 512" width="512" xmlns="http://www.w3.org/2000/svg"><g><path d="m255.979 294.918v-77.837c0-4.143-3.357-7.5-7.5-7.5s-7.5 3.357-7.5 7.5v77.837c0 4.143 3.357 7.5 7.5 7.5s7.5-3.357 7.5-7.5z"/><path d="m122.783 224.937c4.143 0 7.5-3.357 7.5-7.5s-3.357-7.5-7.5-7.5h-32.498c-4.143 0-7.5 3.357-7.5 7.5v77.126c0 4.143 3.357 7.5 7.5 7.5h32.498c4.143 0 7.5-3.357 7.5-7.5s-3.357-7.5-7.5-7.5h-24.998v-23.563h22.602c4.143 0 7.5-3.357 7.5-7.5s-3.357-7.5-7.5-7.5h-22.602v-23.563z"/><path d="m148.624 301.05c3.416 2.405 8.085 1.546 10.451-1.812l23.228-32.973 23.193 32.969c2.38 3.383 7.057 4.206 10.449 1.818 3.388-2.383 4.202-7.062 1.818-10.449l-26.284-37.364 22.429-31.838c2.385-3.387 1.574-8.065-1.812-10.451-3.389-2.387-8.065-1.573-10.451 1.812l-19.333 27.444-19.303-27.44c-2.382-3.386-7.059-4.204-10.449-1.818-3.388 2.383-4.202 7.062-1.818 10.449l22.395 31.835-26.324 37.367c-2.386 3.386-1.575 8.065 1.811 10.451z"/><path d="m307.757 302.418c4.143 0 7.5-3.357 7.5-7.5v-70.337h14.08c4.143 0 7.5-3.357 7.5-7.5s-3.357-7.5-7.5-7.5h-42.986c-4.143 0-7.5 3.357-7.5 7.5s3.357 7.5 7.5 7.5h13.906v70.337c0 4.143 3.357 7.5 7.5 7.5z"/><path d="m355.386 255.999c0 4.143 3.357 7.5 7.5 7.5h47.297l-7.513 7.924c-2.85 3.006-2.724 7.753.282 10.603 3.005 2.85 7.753 2.724 10.603-.282l19.517-20.583c2.743-2.893 2.743-7.427 0-10.32l-19.517-20.584c-2.851-3.006-7.598-3.131-10.603-.282-3.006 2.85-3.133 7.597-.282 10.603l7.512 7.923h-47.295c-4.144-.002-7.501 3.355-7.501 7.498z"/><path d="m443.863 170.986h-2.739c-4.143 0-7.5 3.357-7.5 7.5s3.357 7.5 7.5 7.5h2.739c4.143 0 7.5-3.357 7.5-7.5s-3.357-7.5-7.5-7.5z"/><path d="m70.877 170.986h-2.74c-4.143 0-7.5 3.357-7.5 7.5s3.357 7.5 7.5 7.5h2.74c4.143 0 7.5-3.357 7.5-7.5s-3.357-7.5-7.5-7.5z"/><path d="m443.863 326.014h-2.739c-4.143 0-7.5 3.357-7.5 7.5s3.357 7.5 7.5 7.5h2.739c4.143 0 7.5-3.357 7.5-7.5s-3.357-7.5-7.5-7.5z"/><path d="m70.877 326.014h-2.74c-4.143 0-7.5 3.357-7.5 7.5s3.357 7.5 7.5 7.5h2.74c4.143 0 7.5-3.357 7.5-7.5s-3.357-7.5-7.5-7.5z"/><path d="m171.867 366.771h302.633c4.143 0 7.5-3.357 7.5-7.5v-206.542c0-4.143-3.357-7.5-7.5-7.5h-437c-4.143 0-7.5 3.357-7.5 7.5v206.543c0 4.143 3.357 7.5 7.5 7.5h104.38c4.143 0 7.5-3.357 7.5-7.5s-3.357-7.5-7.5-7.5h-96.88v-191.543h422v191.543h-295.133c-4.143 0-7.5 3.357-7.5 7.5s3.358 7.499 7.5 7.499z"/><path d="m504.5 332.442c-4.143 0-7.5 3.357-7.5 7.5v28.999c0 7.074-5.755 12.83-12.829 12.83h-456.341c-7.074 0-12.83-5.756-12.83-12.83v-225.883c0-7.074 5.756-12.829 12.83-12.829h40.307c4.143 0 7.5-3.357 7.5-7.5s-3.357-7.5-7.5-7.5h-40.307c-15.346 0-27.83 12.484-27.83 27.829v225.884c0 15.346 12.484 27.83 27.83 27.83h456.341c15.345 0 27.829-12.484 27.829-27.83v-28.999c0-4.143-3.357-7.501-7.5-7.501z"/><path d="m484.171 115.229h-386.047c-4.143 0-7.5 3.357-7.5 7.5s3.357 7.5 7.5 7.5h386.047c7.074 0 12.829 5.755 12.829 12.829v166.898c0 4.143 3.357 7.5 7.5 7.5s7.5-3.357 7.5-7.5v-166.898c0-15.345-12.484-27.829-27.829-27.829z"/></g></svg>