<?xml version="1.0"?>
<svg xmlns="http://www.w3.org/2000/svg" xmlns:xlink="http://www.w3.org/1999/xlink" xmlns:svgjs="http://svgjs.com/svgjs" version="1.1" width="512" height="512" x="0" y="0" viewBox="0 0 512 512" style="enable-background:new 0 0 512 512" xml:space="preserve" class=""><g>
<g xmlns="http://www.w3.org/2000/svg">
	<g>
		<g>
			<path d="M340.164,126.361c-15.571-49.779-61.637-83.703-113.795-83.8s-98.35,33.653-114.108,83.374     c-15.758,49.721,2.562,103.917,45.255,133.88v-0.043c0.285,0.246,0.587,0.472,0.905,0.674     c40.92,28.343,95.165,28.193,135.927-0.375h0.06C337.213,230.268,355.736,176.14,340.164,126.361z M174.865,250.675v-0.043     c0.923-0.984,1.983-1.829,3.149-2.509l27.443-13.457c5.629-2.816,9.2-8.554,9.242-14.848v-3.243     c-0.018-4.785-2.755-9.144-7.057-11.238c-10.124-5.01-17.519-14.236-20.207-25.207c-0.761-2.812-2.904-5.042-5.683-5.914     c-2.053-0.903-3.29-3.025-3.063-5.257v-7.083c-0.231-1.9,0.578-3.777,2.116-4.915c2.527-1.339,4.215-3.853,4.497-6.699     c0.588-6.408,2.138-12.691,4.599-18.637c2.325-5.154,3.709-10.683,4.087-16.324c8.867,4.435,18.803,6.286,28.672,5.342     c0.998-0.077,2.065-0.077,3.132-0.068c32.853,0,38.903,15.94,40.508,29.824c0.322,2.792,1.997,5.246,4.48,6.562     c1.81,0.954,2.902,2.872,2.799,4.915v7.083c0.101,2.39-1.425,4.547-3.712,5.248c-2.814,0.868-4.982,3.126-5.734,5.973     c-2.47,10.873-9.629,20.094-19.55,25.182c-4.281,2.098-7.001,6.445-7.014,11.213v3.584c0.005,6.207,3.503,11.883,9.045,14.677     l26.223,13.483c1.417,0.735,2.719,1.672,3.866,2.782C245.133,269.222,206.281,269.059,174.865,250.675z M290.987,241.331     c-2.878-3.437-6.422-6.256-10.419-8.286l-25.933-12.885v-0.853c11.893-6.738,20.768-17.758,24.815-30.814     c6.963-4.034,11.234-11.486,11.196-19.533v-7.083c0.09-6.697-2.837-13.08-7.97-17.382c-3.413-19.558-16.427-40.96-56.883-40.96     c-1.493,0-2.987,0-4.429,0.111c-7.705,0.838-15.47-0.915-22.067-4.983c-2.327-1.533-4.442-3.367-6.289-5.453     c-2.817-3.409-7.551-4.54-11.605-2.773c-3.965,1.635-6.391,5.673-5.973,9.941c0.228,2.676,0.61,5.338,1.143,7.97     c0.904,5.614,0.079,11.369-2.364,16.503c-2.669,6.343-4.502,13.007-5.453,19.823c-4.781,4.428-7.4,10.716-7.177,17.229v7.083     c-0.219,7.926,3.795,15.37,10.539,19.541c4.362,13.145,13.498,24.174,25.6,30.908l-27.571,13.525     c-3.61,1.988-6.799,4.66-9.387,7.868c-33.189-27.543-45.549-72.937-30.905-113.503c14.644-40.567,53.15-67.599,96.279-67.591     c43.286-0.036,81.914,27.162,96.472,67.927S324.503,213.939,290.987,241.331z" fill="#ffffff" data-original="#000000" style=""/>
			<path d="M477.135,346.332c-3.201-3.201-7.542-4.999-12.068-4.999h-8.533v-25.6c-0.031-24.358-13.038-46.854-34.133-59.034V25.6     c0-14.138-11.462-25.6-25.6-25.6H55.467c-14.138,0-25.6,11.461-25.6,25.6v426.667c0,14.138,11.462,25.6,25.6,25.6h244.779     c9.875,20.819,30.845,34.102,53.888,34.133H422.4c32.974-0.038,59.696-26.759,59.733-59.733V358.4     C482.133,353.874,480.335,349.533,477.135,346.332z M439.467,315.733v25.6h-102.4v-25.6c0-28.277,22.923-51.2,51.2-51.2     S439.467,287.456,439.467,315.733z M294.4,358.4v93.867c0.024,2.857,0.252,5.709,0.683,8.533H55.467     c-4.713,0-8.533-3.821-8.533-8.533V25.6c0-4.713,3.82-8.533,8.533-8.533H396.8c4.713,0,8.533,3.82,8.533,8.533v224.111     c-20.441-5.388-42.225-0.963-58.944,11.973c-16.719,12.936-26.472,32.911-26.389,54.05v25.6h-8.533     C302.041,341.333,294.4,348.974,294.4,358.4z M465.067,375.467H448c-4.713,0-8.533,3.82-8.533,8.533s3.82,8.533,8.533,8.533     h17.067V409.6H448c-4.713,0-8.533,3.82-8.533,8.533s3.82,8.533,8.533,8.533h17.067v17.067H448c-4.713,0-8.533,3.821-8.533,8.533     c0,4.713,3.82,8.533,8.533,8.533h16.213c-4.083,19.852-21.546,34.108-41.813,34.133h-68.267     c-20.268-0.026-37.731-14.281-41.813-34.133h16.213c4.713,0,8.533-3.821,8.533-8.533c0-4.713-3.82-8.533-8.533-8.533h-17.067     v-17.067h17.067c4.713,0,8.533-3.82,8.533-8.533s-3.82-8.533-8.533-8.533h-17.067v-17.067h17.067c4.713,0,8.533-3.82,8.533-8.533     s-3.82-8.533-8.533-8.533h-17.067V358.4h153.6V375.467z" fill="#ffffff" data-original="#000000" style=""/>
			<path d="M379.733,433.63v18.637c0,4.713,3.82,8.533,8.533,8.533s8.533-3.821,8.533-8.533V433.63     c11.747-4.137,18.796-16.144,16.686-28.418c-2.11-12.274-12.765-21.236-25.219-21.212c-12.454-0.024-23.109,8.939-25.219,21.212     C360.937,417.486,367.987,429.492,379.733,433.63z M388.267,401.067c4.713,0,8.533,3.82,8.533,8.533s-3.82,8.533-8.533,8.533     s-8.533-3.82-8.533-8.533S383.554,401.067,388.267,401.067z" fill="#ffffff" data-original="#000000" style=""/>
			<path d="M277.333,307.2h-102.4c-4.713,0-8.533,3.82-8.533,8.533s3.82,8.533,8.533,8.533h102.4c4.713,0,8.533-3.82,8.533-8.533     S282.046,307.2,277.333,307.2z" fill="#ffffff" data-original="#000000" style=""/>
			<path d="M268.8,392.533h-93.867c-4.713,0-8.533,3.821-8.533,8.533s3.82,8.533,8.533,8.533H268.8c4.713,0,8.533-3.82,8.533-8.533     S273.513,392.533,268.8,392.533z" fill="#ffffff" data-original="#000000" style=""/>
			<path d="M268.8,349.867H98.133c-4.713,0-8.533,3.82-8.533,8.533s3.82,8.533,8.533,8.533H268.8c4.713,0,8.533-3.82,8.533-8.533     S273.513,349.867,268.8,349.867z" fill="#ffffff" data-original="#000000" style=""/>
		</g>
	</g>
</g>
<g xmlns="http://www.w3.org/2000/svg">
</g>
<g xmlns="http://www.w3.org/2000/svg">
</g>
<g xmlns="http://www.w3.org/2000/svg">
</g>
<g xmlns="http://www.w3.org/2000/svg">
</g>
<g xmlns="http://www.w3.org/2000/svg">
</g>
<g xmlns="http://www.w3.org/2000/svg">
</g>
<g xmlns="http://www.w3.org/2000/svg">
</g>
<g xmlns="http://www.w3.org/2000/svg">
</g>
<g xmlns="http://www.w3.org/2000/svg">
</g>
<g xmlns="http://www.w3.org/2000/svg">
</g>
<g xmlns="http://www.w3.org/2000/svg">
</g>
<g xmlns="http://www.w3.org/2000/svg">
</g>
<g xmlns="http://www.w3.org/2000/svg">
</g>
<g xmlns="http://www.w3.org/2000/svg">
</g>
<g xmlns="http://www.w3.org/2000/svg">
</g>
</g></svg>
