<svg id="Capa_1" enable-background="new 0 0 512 512" height="512" viewBox="0 0 512 512" width="512" xmlns="http://www.w3.org/2000/svg"><g><g><g><g><g><path d="m254.62 358.058c-1.609-3.859-5.586-6.387-9.771-6.161-4.151.225-7.827 3.115-9.029 7.09-1.187 3.925.201 8.344 3.478 10.832 3.388 2.572 8.095 2.724 11.641.379 3.942-2.607 5.462-7.791 3.681-12.14z"/><path d="m499.58 12.673c-16.528-16.511-43.419-16.509-59.945.002 0 0-65.72 65.653-66.823 66.717-.013.013-.025.025-.038.038-32.349 31.215-65.162 60.173-110.716 71.575-9.05 2.266-17.321 6.946-23.919 13.536l-215.474 215.243c-14.615 14.6-22.665 34.014-22.665 54.663s8.05 40.063 22.665 54.663c15.083 15.066 34.895 22.6 54.706 22.6s39.624-7.534 54.707-22.601l88.531-88.302c3.911-3.899 3.922-10.23.023-14.143-3.9-3.911-10.23-3.923-14.143-.023l-56.202 56.016-81.135-81.049 183.121-182.918c4.037-4.033 9.1-6.898 14.64-8.284 46.906-11.741 80.518-39.293 112.695-69.831l32.014 31.979c-30.586 32.158-58.177 65.745-69.916 112.545-1.388 5.529-4.254 10.584-8.294 14.62l-63.002 63.003c-3.905 3.905-3.905 10.237 0 14.142 3.906 3.904 10.236 3.904 14.143 0l62.998-63c6.6-6.593 11.286-14.857 13.554-23.9 11.403-45.459 40.427-78.259 71.708-110.605.01-.011.02-.021.03-.032 1.056-1.091 66.737-66.744 66.737-66.744 8.009-8 12.42-18.639 12.42-29.955 0-11.316-4.411-21.955-12.42-29.955zm-381.638 462.287c-22.371 22.347-58.771 22.349-81.143 0-10.832-10.822-16.799-25.21-16.799-40.513s5.967-29.691 16.801-40.514l18.203-18.189 81.128 81.042zm367.502-416.525-59.85 59.807-31.659-31.626 59.836-59.794c8.732-8.723 22.942-8.723 31.675 0 4.227 4.223 6.555 9.836 6.555 15.806-.001 5.97-2.329 11.584-6.557 15.807z"/><path d="m212.811 341.845c2.558 0 5.115-.975 7.067-2.925l92.912-92.813c1.878-1.876 2.933-4.421 2.933-7.075s-1.055-5.199-2.933-7.075l-32.729-32.694c-3.904-3.9-10.23-3.9-14.135 0l-92.912 92.813c-1.878 1.876-2.933 4.421-2.933 7.075s1.055 5.199 2.933 7.075l32.729 32.694c1.953 1.951 4.511 2.925 7.068 2.925zm60.183-121.373 18.58 18.559-78.763 78.679-18.58-18.56z"/><path d="m126.387 338.655c-6.155 6.148-9.544 14.323-9.544 23.02s3.39 16.87 9.54 23.014l.808.808c.001.001.003.002.004.003 6.35 6.344 14.688 9.515 23.028 9.515 8.338 0 16.68-3.172 23.027-9.514 6.154-6.148 9.544-14.323 9.544-23.018 0-8.696-3.39-16.871-9.545-23.02l-.807-.806c-12.696-12.687-33.357-12.688-46.055-.002zm32.728 32.695c-4.904 4.899-12.882 4.897-17.786 0l-.809-.809c-2.371-2.369-3.678-5.519-3.678-8.867 0-3.35 1.306-6.5 3.679-8.87 4.904-4.898 12.883-4.898 17.787.001l.807.807c2.372 2.369 3.679 5.52 3.679 8.869s-1.307 6.499-3.679 8.869z"/></g></g></g></g></g></svg>