<svg height="511pt" viewBox="0 -29 511.99963 511" width="511pt" xmlns="http://www.w3.org/2000/svg"><path d="m419.058594 204.535156c-4.160156 0-7.527344 3.367188-7.527344 7.527344v60.179688h-19.804688c-7.847656 0-12.429687 8.871093-7.882812 15.269531l27.332031 38.460937c3.847657 5.414063 11.914063 5.417969 15.761719 0l27.332031-38.460937c4.546875-6.394531-.03125-15.269531-7.878906-15.269531h-19.804687v-60.179688c0-4.160156-3.371094-7.527344-7.527344-7.527344zm0 106.539063-16.902344-23.777344h33.800781zm0 0"/><path d="m251.4375 244.941406c0-13.496094-10.980469-24.476562-24.476562-24.476562-13.496094 0-24.476563 10.980468-24.476563 24.476562s10.980469 24.476563 24.476563 24.476563c13.496093 0 24.476562-10.980469 24.476562-24.476563zm-24.476562 9.421875c-5.195313 0-9.421876-4.226562-9.421876-9.421875 0-5.195312 4.226563-9.425781 9.421876-9.425781 5.195312 0 9.421874 4.230469 9.421874 9.425781 0 5.195313-4.226562 9.421875-9.421874 9.421875zm0 0"/><path d="m53.121094 453.714844h156.277344c4.160156 0 7.527343-3.371094 7.527343-7.527344s-3.367187-7.527344-7.527343-7.527344h-156.277344c-20.992188 0-38.066406-17.074218-38.066406-38.066406v-346.972656c0-20.992188 17.074218-38.066406 38.066406-38.066406h346.972656c20.992188 0 38.066406 17.074218 38.066406 38.066406v120.851562c-15.628906-3.183594-31.789062-2.460937-47.183594 2.292969-27.8125-64.257813-91.503906-107.921875-164.367187-107.921875-76.011719 0-143.953125 48.175781-169.066406 119.875-3.660157 10.445312-2.027344 22.121094 4.363281 31.234375 6.457031 9.207031 16.5625 14.558594 27.753906 14.679687h82.246094c6.523438 0 12.496094-3.496093 15.578125-9.121093 16.921875-30.886719 61.320313-30.894531 78.246094-.003907 3.082031 5.628907 9.050781 9.125 15.578125 9.125h48.851562c-25.527344 69.832032 35.367188 140.265626 108 125.46875v40.492188c0 20.992188-17.074218 38.066406-38.066406 38.066406h-155.570312c-4.160157 0-7.527344 3.371094-7.527344 7.527344s3.367187 7.527344 7.527344 7.527344h155.570312c29.292969 0 53.121094-23.832032 53.121094-53.121094v-44.890625c29.316406-11.3125 52.039062-37.132813 58.628906-69.347656.835938-4.070313-1.789062-8.046875-5.863281-8.882813-4.078125-.835937-8.050781 1.792969-8.882813 5.867188-7.460937 36.460937-39.628906 63.628906-78.039062 63.628906-61.8125 0-100.082032-67.644531-68.378906-120.59375 14.703124-24.582031 40.78125-38.769531 68.378906-38.769531 38.109375 0 70.515625 26.867187 78.039062 63.625.832032 4.074219 4.796875 6.699219 8.882813 5.867187 4.074219-.832031 6.699219-4.8125 5.863281-8.882812-6.574219-32.136719-29.242188-58.003906-58.628906-69.347656v-125.246094c0-29.292969-23.828125-53.121094-53.121094-53.121094h-346.972656c-29.292969 0-53.121094 23.828125-53.121094 53.121094v346.972656c0 29.292969 23.828125 53.121094 53.121094 53.121094zm121.160156-235.4375c-.433594.792968-1.367188 1.304687-2.375 1.304687h-12.589844c14.339844-32.261719 50.335938-50.738281 85.695313-41.753906l-4.324219 11.113281c-26.21875-6.371094-53.433594 5.664063-66.40625 29.335938zm107.03125 1.304687c-1.011719 0-1.945312-.511719-2.378906-1.304687-5.671875-10.355469-14.152344-18.582032-24.1875-23.957032l4.40625-11.3125c15.542968 7.5625 28.277344 20.433594 35.453125 36.574219zm55.882812 0h-26.40625c-8.109374-22.65625-25.039062-40.699219-46.164062-50.628906l19.730469-50.679687c1.507812-3.875-.410157-8.238282-4.28125-9.746094-3.871094-1.507813-8.238281.410156-9.746094 4.285156l-19.824219 50.914062c-45.667968-12.644531-92.074218 13.113282-107.371094 55.855469h-53.027343l-.308594-.003906c-6.253906-.066406-11.929687-3.078125-15.566406-8.265625-3.664063-5.226562-4.570313-11.648438-2.480469-17.617188 23-65.671874 85.234375-109.796874 154.855469-109.796874 64.972656 0 124.511719 39.28125 150.394531 98.453124-16.460938 8.171876-30.449219 21.203126-39.804688 37.230469zm0 0"/></svg>